<?xml version="1.0" encoding="utf-8"?>
<!-- Generator: Adobe Illustrator 24.1.0, SVG Export Plug-In . SVG Version: 6.00 Build 0)  -->
<svg version="1.1" id="Livello_1" xmlns="http://www.w3.org/2000/svg" xmlns:xlink="http://www.w3.org/1999/xlink" x="0px" y="0px"
	 viewBox="0 0 600 406.02" style="enable-background:new 0 0 600 406.02;" xml:space="preserve">
<style type="text/css">
	.st0{fill:#FFFFFF;}
	.st1{fill:#4D4D4D;}
	.st2{fill:#020203;}
	.st3{fill:#353535;}
	.st4{fill:#FFE90B;}
</style>
<g>
	<circle class="st0" cx="484.89" cy="90.96" r="3.32"/>
	<circle class="st0" cx="541.23" cy="90.47" r="2.6"/>
	<path class="st1" d="M544.39,107.52c-9.06,0-16.4-7.34-16.4-16.4c0-0.09,0.01-0.19,0.01-0.29l7.68-1.53l10.32-2.05l13.44-2.67
		c0.87,2,1.36,4.21,1.36,6.54C560.79,100.17,553.44,107.52,544.39,107.52 M551.37,120.64c-0.51,1.23-2,2-3.33,1.74
		c-1.33-0.26-1.99-1.47-1.48-2.7c0.51-1.23,2-2.01,3.33-1.74C551.21,118.2,551.88,119.41,551.37,120.64 M541.24,129.74
		c-0.51,1.23-2,2.01-3.33,1.75c-1.33-0.26-1.99-1.47-1.48-2.7c0.51-1.23,2-2.01,3.33-1.75
		C541.09,127.31,541.75,128.52,541.24,129.74 M535.75,119.92c-1.33-0.27-1.99-1.47-1.49-2.7c0.51-1.22,2-2,3.33-1.74
		c1.33,0.26,1.99,1.47,1.48,2.7C538.57,119.4,537.08,120.18,535.75,119.92 M527.45,114.55c-1.87,2.33-5.37,5.17-6.79,5.17h-0.05
		h-0.05c-0.92,0-1.37-0.67-2.26-2.01c-0.54-0.81-1.29-1.92-2.28-3.16c-0.95-1.18-1.99-2.3-2.82-3.19c-1.61-1.73-2.09-2.25-1.9-3.12
		c0.02-0.08,0.04-0.16,0.07-0.23c0.32-1.03,1.75-1.13,3.5-1.25c1.54-0.11,3.58-0.17,5.74-0.17s4.2,0.06,5.74,0.17
		c1.67,0.12,3.04,0.22,3.45,1.11c0.08,0.14,0.15,0.29,0.19,0.46C530.27,109.48,529.5,112,527.45,114.55 M480.75,113.79
		c-12.08,0-21.87-9.8-21.87-21.87c0-3.1,0.65-6.05,1.81-8.72l17.91,3.56l13.76,2.74l0,0l10.24,2.04c0,0.13,0.01,0.25,0.01,0.38
		C502.62,104,492.83,113.79,480.75,113.79 M494.59,121.88c-1.66,0.33-3.52-0.65-4.16-2.18c-0.63-1.53,0.2-3.04,1.86-3.37
		c1.66-0.33,3.52,0.64,4.16,2.18C497.08,120.03,496.25,121.54,494.59,121.88 M491.88,136.34c-1.66,0.33-3.53-0.65-4.16-2.18
		c-0.63-1.54,0.2-3.05,1.86-3.38c1.66-0.33,3.52,0.64,4.16,2.18C494.37,134.5,493.54,136.01,491.88,136.34 M479.22,124.95
		c-1.66,0.33-3.52-0.64-4.16-2.18c-0.63-1.53,0.2-3.04,1.86-3.38c1.66-0.33,3.52,0.65,4.16,2.18
		C481.71,123.11,480.88,124.63,479.22,124.95 M556.92,65.25l-0.2-0.17l-0.1-0.11c-0.43-0.36-1.36-0.93-2.49-1.58
		c-2.99,6.64-9.26,9.49-9.26,9.49c-0.33-5.34-5.61-12.11-9.55-16.47c-2.61-0.59-5.2-1.1-7.72-1.52c0.84,15.1-8.43,26.18-8.43,26.18
		c-6.69-11.95-32.49-21.98-42.76-25.58c-4.07,0.85-7.84,1.84-11.32,2.92c5.45,9.21,3.72,19.12,3.72,19.12
		c-4.86-2.88-13.26-3.22-21.17-2.68c-6.49,0.44-12.66,1.47-16.25,2.16c-8.25,7.44-12.78,15.83-12.78,23.78
		c0,10.81,7.09,23.8,16.87,30.9c2.83,2.06,6.34,3.79,10.46,5.19c8.47,2.9,19.53,4.41,32.71,4.41c14.75,0,28.63-5.96,38.08-16.35
		l3.78-4.15l3.08,4.73c6.43,9.87,15.53,15.77,24.35,15.77h0c1.37,0,2.75-0.14,4.09-0.42c15.67-3.24,24.91-24.23,20.61-46.79
		C570.38,82.29,564.65,71.78,556.92,65.25"/>
	<path class="st2" d="M539.76,127.04c-1.33-0.26-2.82,0.52-3.33,1.75c-0.51,1.23,0.16,2.44,1.48,2.7c1.33,0.27,2.82-0.52,3.33-1.74
		C541.75,128.52,541.09,127.31,539.76,127.04"/>
	<path class="st2" d="M489.58,130.78c-1.66,0.33-2.49,1.84-1.86,3.38c0.63,1.53,2.5,2.51,4.16,2.18c1.66-0.33,2.49-1.84,1.86-3.38
		C493.1,131.43,491.24,130.45,489.58,130.78"/>
	<path class="st3" d="M517.74,129.75c-7.56,7.98-18.11,13.96-30.19,16.47c6.07,3.3,14.91,5.38,24.74,5.38
		c10.14,0,19.21-2.21,25.3-5.69C530.01,143.28,523.04,137.57,517.74,129.75"/>
	<path class="st2" d="M484.29,87.9l2.4,0.48c0.84,0.57,1.4,1.53,1.4,2.62c0,1.75-1.42,3.17-3.17,3.17c-1.75,0-3.17-1.42-3.17-3.17
		C481.75,89.47,482.84,88.19,484.29,87.9 M484.92,98.6c4.2,0,7.6-3.4,7.6-7.6c0-0.51-0.05-1.01-0.15-1.5h0l0,0l-13.76-2.74
		c-0.81,1.21-1.29,2.67-1.29,4.23C477.32,95.2,480.72,98.6,484.92,98.6"/>
	<path class="st2" d="M529.79,107.86c-0.4-0.89-1.78-0.99-3.45-1.11c-1.54-0.11-3.57-0.17-5.74-0.17s-4.2,0.06-5.74,0.17
		c-1.75,0.13-3.18,0.23-3.5,1.25c-0.03,0.08-0.06,0.15-0.07,0.23c-0.19,0.87,0.3,1.39,1.9,3.12c0.83,0.9,1.87,2.01,2.82,3.19
		c0.99,1.23,1.74,2.35,2.28,3.16c0.89,1.34,1.35,2.01,2.26,2.01h0.1c1.41,0,4.92-2.84,6.79-5.17c2.05-2.55,2.83-5.07,2.53-6.23
		C529.94,108.15,529.87,108,529.79,107.86"/>
	<path class="st2" d="M492.29,116.32c-1.66,0.33-2.49,1.84-1.86,3.37c0.64,1.54,2.5,2.51,4.16,2.18c1.66-0.33,2.49-1.84,1.85-3.38
		C495.81,116.96,493.95,115.99,492.29,116.32"/>
	<path class="st2" d="M476.92,119.4c-1.66,0.33-2.49,1.84-1.86,3.37c0.64,1.54,2.5,2.51,4.16,2.18c1.66-0.33,2.49-1.84,1.85-3.37
		C480.44,120.05,478.58,119.07,476.92,119.4"/>
	<path class="st2" d="M539.07,118.18c0.51-1.23-0.16-2.44-1.48-2.7c-1.33-0.26-2.82,0.52-3.33,1.74c-0.51,1.23,0.16,2.44,1.49,2.7
		C537.08,120.18,538.56,119.4,539.07,118.18"/>
	<path class="st3" d="M457.83,60.95c-16.89,6.57-24.88,14.64-24.98,14.74l-0.17,0.19l-0.19,0.17c-8.95,7.67-13.88,16.47-13.88,24.76
		c0,10.81,7.1,23.81,16.87,30.9c2.83,2.05,6.34,3.79,10.46,5.19c-4.4-8.96-6.87-18.9-6.87-29.38
		C439.06,89.72,446.15,73.45,457.83,60.95"/>
	<path class="st2" d="M552.02,140.89c-1.34,0.28-2.72,0.42-4.09,0.42h0c-8.82,0-17.92-5.9-24.35-15.77l-3.09-4.73l-3.78,4.15
		c-9.45,10.39-23.33,16.35-38.08,16.35c-13.18,0-24.24-1.51-32.71-4.41c-4.11-1.41-7.63-3.14-10.46-5.19
		c-9.78-7.09-16.87-20.09-16.87-30.9c0-7.94,4.53-16.34,12.78-23.78c3.6-0.68,9.76-1.71,16.25-2.15c7.91-0.54,16.31-0.21,21.17,2.68
		c0,0,1.72-9.92-3.72-19.12c3.48-1.08,7.25-2.07,11.32-2.92c10.27,3.6,36.07,13.63,42.76,25.58c0,0,9.28-11.08,8.43-26.18
		c2.52,0.42,5.12,0.92,7.72,1.52c3.95,4.36,9.22,11.13,9.55,16.47c0,0,6.27-2.85,9.26-9.49c1.14,0.64,2.06,1.22,2.49,1.57l0.1,0.11
		l0.2,0.17c7.73,6.52,13.46,17.04,15.71,28.85C576.93,116.67,567.69,137.66,552.02,140.89 M512.29,151.6
		c-9.84,0-18.67-2.08-24.74-5.38c12.08-2.51,22.63-8.49,30.19-16.47c5.3,7.83,12.28,13.54,19.84,16.17
		C531.5,149.39,522.43,151.6,512.29,151.6 M577.1,94.82c-1.98-10.01-6.25-18.78-11.85-25.47L545.03-0.06l-15.32,52.61
		c-16.14-2.94-30.4-2.88-30.4-2.88c-17.87,0.37-32.34,3.33-43.64,7.08h-74.53l27.9,37.33c-0.89,2.73-1.37,5.52-1.37,8.36
		c0,12.15,7.9,26.56,19.53,34.67c12.08,8.42,31.48,10.38,47.02,10.43c7.07,5.75,20.01,9.6,34.81,9.6c14.93,0,27.97-3.92,35-9.75
		c2.64,0.28,5.32,0.18,7.99-0.35C570.85,143.29,582.07,119.92,577.1,94.82"/>
	<path class="st2" d="M539.94,88.45l1.8-0.36c1.09,0.22,1.9,1.17,1.9,2.33c0,1.31-1.06,2.38-2.37,2.38c-1.31,0-2.38-1.07-2.38-2.38
		C538.89,89.61,539.3,88.88,539.94,88.45 M541.26,96.12c3.15,0,5.7-2.55,5.7-5.7c0-1.18-0.36-2.27-0.97-3.18l-10.32,2.05l0,0
		c-0.07,0.36-0.11,0.74-0.11,1.12C535.56,93.57,538.11,96.12,541.26,96.12"/>
	<path class="st2" d="M549.88,117.94c-1.33-0.26-2.82,0.52-3.33,1.74c-0.51,1.23,0.16,2.44,1.48,2.7c1.33,0.26,2.82-0.52,3.33-1.74
		C551.88,119.41,551.21,118.2,549.88,117.94"/>
	<path class="st4" d="M492.52,91c0-0.51-0.05-1.01-0.15-1.5h0C492.47,89.99,492.52,90.49,492.52,91"/>
	<path class="st4" d="M535.67,89.3l1.61-0.32L535.67,89.3z"/>
	<g>
		<path class="st4" d="M492.37,89.5c0.1,0.49,0.15,0.98,0.15,1.5c0,4.2-3.4,7.6-7.6,7.6c-4.19,0-7.6-3.4-7.6-7.6
			c0-1.57,0.48-3.02,1.29-4.23l-17.91-3.56c-1.17,2.67-1.81,5.62-1.81,8.72c0,12.07,9.79,21.87,21.87,21.87
			c12.07,0,21.87-9.8,21.87-21.87c0-0.13-0.01-0.25-0.01-0.38L492.37,89.5z"/>
		<path class="st4" d="M545.99,87.25c0.61,0.91,0.97,2,0.97,3.18c0,3.15-2.55,5.7-5.7,5.7c-3.15,0-5.7-2.55-5.7-5.7
			c0-0.39,0.04-0.76,0.11-1.12l-7.68,1.53c0,0.1-0.01,0.19-0.01,0.29c0,9.06,7.34,16.4,16.4,16.4c9.06,0,16.4-7.34,16.4-16.4
			c0-2.32-0.49-4.53-1.36-6.54L545.99,87.25L545.99,87.25z"/>
	</g>
	<path class="st2" d="M218.73,336.59c0.46-0.04,0.77-0.34,0.9-0.45c0.16,0.1,0.4,0.86,0.48,1.14c-0.37,0.42-0.97,0.78-1.66,0.84
		c-1.31,0.13-2.03-0.68-2.02-1.84c0.02-1.61,1.14-2.91,2.84-3.08c0.74-0.07,1.28,0.11,1.39,0.33c-0.03,0.17-0.46,1.21-0.7,1.41
		c-0.2-0.11-0.54-0.25-0.84-0.22c-0.54,0.05-0.99,0.57-1,1.23C218.14,336.59,218.55,336.6,218.73,336.59 M218.13,339.27
		c1.76-0.17,3.72-1.68,3.74-4.51c0.01-1.67-0.88-2.79-2.59-2.62c-2.87,0.27-3.81,2.76-3.83,4.63
		C215.44,338.53,216.45,339.43,218.13,339.27 M219.33,331.23c2.02-0.19,3.48,0.86,3.46,3.36c-0.02,2.71-1.72,5.22-4.74,5.5
		c-2.2,0.22-3.53-1.11-3.51-3.2C214.57,333.45,216.77,331.48,219.33,331.23"/>
	<path class="st2" d="M229.9,336.46c0.17-0.02,0.27-0.06,0.39-0.13c0.02-0.09,0.06-0.48,0.06-0.48s-0.53,0.07-0.63,0.08
		c-0.07-0.08,0.21-1.72,0.32-1.87c0.29-0.11,3.03-0.46,3.09-0.39c0.08,0.05-0.69,4.1-0.7,4.04c-0.6,0.51-2.01,1.04-2.91,1.12
		c-2.54,0.25-3.46-1.14-3.44-3.26c0.02-2.58,1.77-4.83,4.71-5.11c1.3-0.13,2.13,0.27,2.35,0.62c-0.07,0.3-1.06,1.94-1.38,2.24
		c-0.32-0.19-0.77-0.36-1.27-0.32c-0.84,0.08-1.59,0.94-1.6,2.22C228.89,336.25,229.42,336.5,229.9,336.46"/>
	<path class="st2" d="M237.42,333.4c0.43-0.04,0.7-0.44,0.7-0.9c0-0.27-0.16-0.45-0.56-0.41c-0.08,0.01-0.16,0.03-0.2,0.04
		c-0.09,0.52-0.14,0.78-0.24,1.27C237.18,333.41,237.33,333.41,237.42,333.4 M233.66,338.2c0.01-0.4,1.4-7.59,1.45-7.72
		c0.01-0.07,1.58-0.5,2.64-0.6c2.07-0.2,3.11,0.56,3.09,2.17c-0.01,1.02-0.46,1.94-1.49,2.58c0.5,0.96,0.89,2.2,0.84,2.25
		c-0.18,0.2-1.9,1.08-2.35,1.12c-0.03,0-0.51-1.48-1.03-2.64l-0.07,0.01c-0.22,1.15-0.44,2.25-0.53,2.54
		C236.08,337.97,233.66,338.3,233.66,338.2"/>
	<path class="st2" d="M245.4,329.31c-0.26,1.28-0.93,4.21-0.93,4.87c0,0.36,0.11,0.52,0.41,0.49c0.45-0.04,0.53-0.56,0.62-0.96
		c0.36-1.54,0.63-3.9,0.75-4.58c0.15-0.11,2.9-0.49,2.9-0.38c-0.1,1.04-0.61,4.18-0.77,4.99c-0.4,2.02-1.31,3.36-3.73,3.59
		c-1.76,0.17-3.02-0.7-3.01-2.49c0.01-0.91,0.69-3.78,1.09-5.24C242.8,329.33,244.68,329.21,245.4,329.31"/>
	<path class="st2" d="M249.26,335.94c-0.01-0.22,0.87-2.25,1.01-2.22c0.19,0.03,1.07,0.6,1.78,0.54c0.21-0.02,0.36-0.16,0.36-0.34
		c0-0.19-0.1-0.34-0.71-0.5c-1.05-0.25-1.72-0.83-1.71-1.99c0.01-1.7,1.27-2.94,3.17-3.12c1.42-0.14,2.39,0.21,2.72,0.5
		c0.14,0.12-0.89,2.18-1.02,2.22c0.01,0.05-0.95-0.52-1.86-0.43c-0.2,0.02-0.31,0.12-0.31,0.27c0,0.2,0.18,0.29,0.8,0.47
		c0.87,0.27,1.85,0.75,1.84,2.02c-0.01,1.26-0.93,2.86-3.26,3.09C250.72,336.59,249.67,336.17,249.26,335.94"/>
	<path class="st2" d="M259.91,331.49c0.41-0.04,0.73-0.4,0.74-0.92c0-0.35-0.17-0.52-0.52-0.49c-0.02,0-0.14,0.02-0.18,0.04
		c-0.07,0.34-0.19,1.02-0.27,1.37C259.71,331.49,259.84,331.49,259.91,331.49 M256.08,336.05c0-0.37,1.38-7.73,1.45-7.8
		c0.18-0.2,1.74-0.44,2.43-0.5c2.13-0.21,3.19,0.6,3.17,2.34c-0.02,1.92-1.18,3.38-3.51,3.6l-0.29,0.03
		c-0.23,1.16-0.34,1.92-0.44,2.02C258.83,335.83,256.08,336.15,256.08,336.05"/>
	<path class="st2" d="M263.89,335.44c-0.51,0.03-0.97-0.37-0.97-1.08c0.01-1,0.65-1.71,1.67-1.81c0.68-0.07,1.18,0.26,1.17,1.04
		C265.75,334.65,265.06,335.37,263.89,335.44"/>
	<path class="st2" d="M270.99,328.99c-0.63,0.06-1.22,1-1.23,2.26c-0.01,0.73,0.25,1.19,0.74,1.14c0.67-0.07,1.22-1.06,1.23-2.36
		C271.74,329.21,271.43,328.95,270.99,328.99 M274.59,329.72c-0.02,2.38-1.69,4.89-4.24,5.13c-2.25,0.22-3.41-0.93-3.39-3.2
		c0.02-2.41,1.74-4.86,4.21-5.09C273.44,326.35,274.61,327.51,274.59,329.72"/>
	<path class="st2" d="M278.84,329.42c0.43-0.04,0.7-0.44,0.7-0.9c0-0.27-0.16-0.45-0.56-0.41c-0.08,0.01-0.16,0.03-0.2,0.04
		c-0.08,0.53-0.14,0.78-0.24,1.27C278.61,329.43,278.75,329.43,278.84,329.42 M275.08,334.22c0-0.4,1.4-7.58,1.45-7.72
		c0.01-0.07,1.58-0.5,2.65-0.6c2.06-0.2,3.1,0.57,3.09,2.17c-0.01,1.02-0.46,1.94-1.49,2.58c0.5,0.96,0.89,2.2,0.84,2.25
		c-0.18,0.2-1.9,1.08-2.35,1.12c-0.03,0-0.5-1.48-1.03-2.64l-0.07,0.01c-0.22,1.15-0.43,2.25-0.53,2.54
		C277.5,333.99,275.08,334.32,275.08,334.22"/>
	<path class="st2" d="M286.78,330.99c0.17-0.02,0.27-0.06,0.39-0.13c0.02-0.09,0.06-0.48,0.06-0.48s-0.53,0.08-0.63,0.08
		c-0.07-0.08,0.21-1.72,0.32-1.87c0.29-0.11,3.02-0.46,3.09-0.39c0.08,0.05-0.69,4.1-0.7,4.04c-0.6,0.51-2,1.04-2.9,1.12
		c-2.54,0.24-3.46-1.14-3.44-3.26c0.02-2.58,1.77-4.83,4.7-5.11c1.31-0.13,2.13,0.27,2.35,0.61c-0.07,0.3-1.06,1.94-1.38,2.24
		c-0.32-0.19-0.77-0.36-1.27-0.32c-0.84,0.08-1.59,0.94-1.6,2.22C285.77,330.78,286.3,331.04,286.78,330.99"/>
	<path class="st2" d="M297.68,328.46c0.59-1.67,1.5-4.28,1.68-4.44c0.16-0.14,2.5-0.38,2.68-0.31c0.11,0.02-0.35,7.45-0.46,7.78
		c-0.2,0.24-2.62,0.55-2.62,0.47c0-0.32,0.47-2.79,0.57-3.87l-0.06,0.01c-0.53,1.51-1.12,3.29-1.4,3.91
		c-0.22,0.08-2.01,0.26-2.07,0.17c-0.05-0.04-0.01-2.46,0.02-3.81l-0.04,0c-0.42,1.48-0.8,3.35-0.99,3.98
		c-0.54,0.09-2.46,0.02-2.42-0.08c0.01-0.41,2.15-7.13,2.44-7.81c0.12-0.25,2.25-0.44,2.4-0.29c0.08,0.08,0.16,2.61,0.2,4.3
		L297.68,328.46z"/>
	<path class="st2" d="M307.54,327.51c0.58-1.67,1.5-4.28,1.68-4.44c0.16-0.14,2.5-0.37,2.68-0.31c0.11,0.02-0.35,7.45-0.46,7.77
		c-0.2,0.24-2.62,0.56-2.62,0.47c0-0.32,0.47-2.78,0.57-3.87l-0.06,0c-0.53,1.51-1.12,3.3-1.39,3.92c-0.22,0.08-2.01,0.26-2.07,0.16
		c-0.05-0.04-0.01-2.45,0.02-3.8l-0.05,0c-0.41,1.48-0.8,3.35-0.99,3.98c-0.54,0.08-2.46,0.02-2.42-0.08
		c0.01-0.42,2.15-7.13,2.44-7.81c0.11-0.25,2.25-0.44,2.39-0.29c0.08,0.08,0.16,2.61,0.2,4.3L307.54,327.51L307.54,327.51z"/>
	<path class="st2" d="M316.78,322.37c0.09,0.05-1.31,7.64-1.47,7.93c-0.08,0.27-2.69,0.4-2.69,0.31c0.01-0.43,1.3-7.33,1.6-7.88
		C314.39,322.36,316.71,322.31,316.78,322.37"/>
	<path class="st2" d="M320.58,326.57c0.3-0.93,1.24-3.93,1.67-4.83c0.03-0.07,2.86-0.24,2.89-0.08c-0.32,0.97-3.35,7.96-3.45,8.04
		c-0.1,0.08-2.91,0.42-3.15,0.38c-0.03-0.01-0.69-6.16-0.66-7.71c0.15-0.21,2.69-0.59,2.73-0.51c0.1,0.17-0.08,3.79-0.1,4.71
		L320.58,326.57L320.58,326.57z"/>
	<path class="st2" d="M525.13,314.66c-4.31,0-6.9-2.74-6.9-7.01c0-5.66,3.71-9.52,9.07-9.52c4.35,0,6.97,2.77,6.97,7.12
		C534.26,310.91,530.48,314.66,525.13,314.66 M527.71,295.02c-7.57,0-12.97,5.32-12.97,13c0,5.92,3.75,9.74,9.97,9.74
		c7.61,0,13.04-5.21,13.04-12.89C537.75,298.92,533.93,295.02,527.71,295.02"/>
	<path class="st2" d="M526.62,305.51h-0.86l0.34-2.59h0.71c0.93,0,1.46,0.38,1.46,1.09C528.27,305.03,527.52,305.51,526.62,305.51
		 M527.33,299.7h-2.66c-1.39,0-1.91,0.83-2.06,1.84l-1.27,9.67c-0.12,0.9-0.04,1.24,0.97,1.24h1.42c0.94,0,1.16-0.34,1.27-1.28
		l0.38-2.78h0.45l0.82,2.85c0.26,0.86,0.49,1.2,1.62,1.2h1.46c0.83,0,0.83-0.49,0.6-1.28l-1.05-3.41c1.5-0.75,2.55-2.06,2.55-4.27
		C531.83,300.64,530.03,299.7,527.33,299.7"/>
	<path class="st2" d="M110.17,317.8c-13.19,1.77-21.94-4.03-18.87-17.28c1.58-6.81,8.19-16.5,16.87-17.66
		c1.39-0.19,3.03-0.04,4.94,0.44l0.09-0.37c5.72,2.89,12.83,4.15,21.5,2.99c23.95-3.21,52.71-24.3,80.27-53.3
		C180.84,285.59,136.89,314.22,110.17,317.8 M299.38,71.29c5.9-0.79,18.48-2.84,16.81,4.35c-1.4,6.06-8.86,9.26-18.24,10.51
		c-6.94,0.93-14.57-0.98-23.15-4.6C283.75,76.32,292.35,72.6,299.38,71.29 M255.39,190.15c12.77-10.15,28.24-21.75,32.69-33.72
		l0.26-1.13c2.36-10.22-2.74-14.31-10.38-13.28c-11.11,1.49-28.14,14.04-37.03,36.5l-7.84,16.46c-15.39,17.1-34.51,31.4-45.27,32.84
		c-13.88,1.86-18.37-6.34-14.78-21.86c6.22-26.87,27.98-58.4,52.75-84.08c21.59,4.07,41.62,9.09,64.18,6.08
		c25.33-3.39,55.13-23.16,61.78-51.92c7.01-30.28-19.59-40.29-48.4-36.43c-18.05,2.42-40.8,12.07-64.6,26.26
		c-20.36-7.91-45.41-14.46-78.04-10.09c-32.97,4.42-81.61,32.94-92.12,78.36c-6.39,27.63,10.66,39.65,32.87,36.68
		c8.33-1.12,15.71-3.94,21.1-8.33c-5.38-1.48-6.93-6.4-5.61-12.08c3.5-15.14,25.14-30.14,44.92-32.79c3.12-0.42,6.16-0.46,9.28-0.87
		c-35.55,33-64.61,71.37-72.49,105.43c-4.91,21.2-3.82,39.76,3.96,51.18c-7.62-3.37-16.47-2.93-25.85-1.67
		C40,276.58,9.22,310.78,2.04,341.81c-11.39,49.21,25.43,68.85,63.95,63.69c82.25-11.01,164.96-108.29,187.38-205.18
		C254.16,196.92,254.95,193.51,255.39,190.15 M389.15,343.88l-2.28,0.29c-10.81,1.37-12.52-2.4-12.52-5.53
		c0-3.13,3.13-5.23,5.12-5.48c6.26-0.79,13.66,1.97,22.48,6.54C396.55,342.09,392.28,343.48,389.15,343.88 M528.88,239.11
		c3.13-10.64,2.85-8.33,5.98-16.13c5.41-13.49,14.8-31.47,19.64-32.08c11.67-1.47-13.09,53.45-23.34,54.75
		C529.45,245.87,527.75,242.67,528.88,239.11 M553.07,288.13c-6.83,0.86-12.52,3.01-16.22,6.32c4.84,1.1,7.12,4.79,7.12,9.06
		c0,11.38-15.37,22.72-31.59,24.77c-13.95,1.76-25.9,1-36.71-1.05c15.94-21.65,26.18-44.29,37-69.85
		c-1.14,11.53,1.99,26.22,15.94,24.45c33.01-4.18,70.58-64.71,70.58-101.43c0-12.52-8.25-22.58-20.78-20.99
		c-11.1,1.41-21.63,11.56-30.17,24.88l-2.28,0.29l10.53-19.26l-35.57,4.5c-6.83,16.23-22.2,49.77-38.42,83.98l-1.42,3.59l-0.86,1.53
		c-11.95,24.56-27.04,42.98-41.83,56.24c-19.07-7.26-38.42-13.92-64.89-10.57c-23.05,2.92-45.53,19.42-45.53,42.47
		c0,29.03,34.15,38.37,60.62,35.02l2.84-0.36c19.35-2.45,36.14-9.7,51.23-20.71c22.48,9.96,49.52,17.92,82.82,13.71
		c27.04-3.42,62.61-25,62.61-59.15C588.08,294.8,571.29,285.82,553.07,288.13 M351.01,273.85c-2.85,16.87,0.85,30.63,17.64,28.5
		c12.86-1.63,23.11-12.14,30.91-24.43c4.87,12.68,20.1,18.54,33.98,16.78c30.17-3.82,47.81-32.23,47.81-55.57
		c0-14.8-5.12-27.24-5.12-39.2c0-11.1,4.84-20.25,14.8-22.93c-5.69-4.97-11.1-6.85-18.78-5.88c-23.63,2.99-34.15,23.39-34.15,39.33
		c0,11.95,5.69,21.48,5.69,32.29c0,6.26-3.13,14.06-10.82,15.03c-4.55,0.58-8.25-1.8-8.25-6.64c0-2.28,1.71-5.34,5.12-5.2
		c-1.71-4.05-5.98-5.22-10.25-4.68c-11.99,1.52-19.6,12.57-21.27,23.33c-0.5,0.14-0.99,0.26-1.49,0.33
		c-3.13,0.4-4.84-1.95-3.98-5.76c0.57-4.34,3.98-11.6,8.25-21.25l24.76-56.07l-38.71,4.9l-21.06,46.49l-4.27,9.08
		c-5.12,11.18-11.67,22.25-15.37,23c-6.26,1.65-5.41-4.72,2.28-21.63l24.76-55.21l-36.71,4.64c-13.95,26.52-38.99,76.37-38.99,97.14
		c0,12.53,7.69,19.8,19.07,18.37C330.24,306.94,342.19,291.48,351.01,273.85 M363.82,167.91c6.55-0.83,13.66,1.12,13.38,6.28
		c18.21-9.13,23.33-20.03,23.33-31.98c0-10.53-10.53-19.44-26.75-17.39c-31.3,3.96-54.35,43.31-71.71,85.92l-3.7,0.47l9.67-22.57
		l-30.16,3.82c-14.23,33.96-40.13,89.32-58.06,121.75c6.55-3.39,15.37-7.07,25.61-8.93c8.82-1.69,21.34-1.28,21.34-1.28l19.64-45.46
		C298.08,231.44,331.95,171.95,363.82,167.91"/>
</g>
</svg>
