<?xml version="1.0" encoding="utf-8"?>
<!-- Generator: Adobe Illustrator 24.0.3, SVG Export Plug-In . SVG Version: 6.00 Build 0)  -->
<svg version="1.1" id="Livello_1" xmlns="http://www.w3.org/2000/svg" xmlns:xlink="http://www.w3.org/1999/xlink" x="0px" y="0px"
	 viewBox="0 0 180 180" style="enable-background:new 0 0 180 180;" xml:space="preserve" width="120px" heigth="120px">
<g>
	<path d="M88.4,53.2c-0.5,0.4-0.9,0.7-1.2,0.9c-2.7,1.7-5.4,3.3-8.1,5.1C77,60.6,75,62,72.8,63.5c-1.3,0.9-2.7,1.7-4,2.7
		c-1.7,1.3-3.1,2.8-4,4.9c-1,2.3-1.1,4.6-0.7,7c0.5,2.4,1.6,4.4,3.3,6c1.5,1.5,3.4,2.4,5.4,2.9c1.9,0.5,3.9,0.6,5.7,0.1
		c1.9-0.4,3.7-1.2,5.5-2c3.5-1.6,6.9-3.3,10.4-5.1c2.3-1.1,4.5-2.3,6.7-3.5c0.7-0.4,1.1-0.3,1.6,0.2c7.9,7.9,28.1,28.1,30.2,30.2
		c1.2,1.2,1.9,2.7,1.8,4.4c-0.1,2-1.8,4.1-3.6,4.7c-2.4,0.7-4.4,0.1-6-1.6c-3.1-3.1-6.2-6.2-9.3-9.3c-0.7-0.7-1.9-0.5-2.2,0.5
		c-0.2,0.6,0.1,1.1,0.5,1.5c2.2,2.2,4.5,4.4,6.7,6.7c0.5,0.5,1,1.1,1.4,1.7c1.8,2.8,0.6,7-3,8c-2.2,0.6-4,0-5.5-1.5
		c-2.4-2.4-4.8-4.8-7.2-7.2c-0.2-0.2-0.4-0.4-0.7-0.5c-0.6-0.2-1.1-0.1-1.5,0.4c-0.4,0.4-0.2,1.3,0.2,1.8c1.6,1.6,3.3,3.2,4.9,4.9
		c1.3,1.3,2.1,2.8,1.9,4.7c-0.2,1.5-0.8,2.7-1.9,3.7c-1.1,0.9-2.3,1.3-3.7,1.3c-1.3-0.1-2.4-0.5-3.4-1.4c-1.8-1.7-3.5-3.5-5.3-5.3
		c-0.4-0.4-0.9-0.9-1.6-0.6c-1,0.4-1.2,1.6-0.3,2.5c1,1,2,2,2.9,3c1.2,1.3,1.8,2.8,1.5,4.6c-0.5,2.2-1.7,3.7-4,4.3
		c-2,0.5-3.7-0.1-5.2-1.4c-0.7-0.6-1.3-1.3-2-1.9c-0.4-0.4-0.5-0.7-0.3-1.3c0.2-0.8,0.3-1.7,0.2-2.5c0-2.2-0.6-4.3-1.8-6.2
		c-1.4-2.2-3.3-4-5.9-4.8c-1-0.3-1.5-0.8-1.8-1.8c-1.2-3.2-3.4-5.6-6.6-6.9c-0.3-0.1-0.7-0.2-1-0.3c-0.6-0.2-0.9-0.5-1.1-1.1
		c-0.4-1.5-1.1-2.8-2.1-3.9c-1.5-1.8-3.3-3.1-5.6-3.8c-0.9-0.3-1.1-1-1.4-1.7c-0.8-2.3-2.2-4-4.2-5.5C55.4,94,53.8,93.2,52,93
		c-1.6-0.2-3.2-0.1-4.8,0.2c-2.7,0.4-4.8,2-6.6,3.9c-1.3,1.4-2.8,2.6-3.7,4.3c-0.1,0.1-0.2,0.3-0.2,0.4c-0.6,1.1-0.6,1.1-1.8,0.7
		C33,101.9,20,98,19.5,97.8C19.3,97.6,19,97.3,19,97c0-3.3,0.1-31,0.1-41.2c0-1.1,0.2-1.2,1.2-0.8c2.9,1.1,5.8,2.2,8.7,3.2
		c2.3,0.8,4.6,1.7,6.9,2.4c1.6,0.5,3.2,1,4.8,1.5c1.7,0.5,3.4,1,5.2,0.9c1.4,0,2.8-0.2,4.2-0.5c3.4-0.9,6.3-2.9,9.2-5
		c2.8-2.1,5.7-4,9-5.2c1.5-0.6,3.1-0.9,4.7-1.3c2.4-0.6,4.9-0.5,7.4-0.2c1.7,0.2,3.4,0.8,5.1,1.2C86.4,52.4,87.3,52.8,88.4,53.2z"/>
	<path d="M161,96.3c0,1.3,0,1.3-1.3,1.7c-2.2,0.6-21.5,5.5-22.2,5.6c-0.3,0-0.6-0.1-0.8-0.3c-0.7-0.6-32-31.6-33.1-32.1
		c-1-0.5-2.2-0.4-3.2,0.1c-3.7,1.8-17.4,8.7-20.6,10.1c-2.4,1.1-4.9,1.2-7.3-0.1c-1.7-0.9-2.8-2.4-3.3-4.3c-0.7-2.7,1.1-5.7,3-6.9
		c2.5-1.5,20.4-13.3,22.9-14.8c2.7-1.7,5.4-3.2,8.4-4.1c2.2-0.6,4.5-0.8,6.8-0.7c2.8,0.1,5.3,1,7.8,2.1c1.4,0.7,2.8,1.6,4.1,2.5
		c2.8,2,5.4,4.2,8.2,6.2c2.5,1.8,5.3,2,8.2,0.9c3.1-1.1,20-7.2,21.8-7.9c0.4-0.1,0.5,0,0.5,0.4c0,0.2,0,0.5,0,0.7
		C161,62.3,161,89.5,161,96.3z"/>
	<path d="M58.5,122.8c-5.5,1.6-10.3-2.5-9-8.6c-1,0-2,0.1-3,0.1c-2.7-0.1-5.5-2.5-6-5.5c-0.4-2.6,0.5-4.6,2.1-6.4
		c1.2-1.3,2.4-2.7,4-3.5c1.4-0.8,2.9-1.1,4.6-0.7c1.5,0.3,2.7,1,3.7,2.1c1.4,1.5,1.9,3.2,1.6,5.2c-0.1,0.6-0.1,1.1-0.2,1.7
		c2.7-0.8,5.1-0.3,7.2,1.7c2,2,2.3,4.5,1.6,7.3c2.7-0.8,5.2-0.5,7.2,1.5c2,2,2.5,4.5,1.7,7c1.2,0,2.3-0.1,3.4,0
		c1.8,0.2,3.3,1.1,4.4,2.6c1,1.3,1.4,2.8,1.3,4.4c-0.1,1.4-0.4,2.7-1.4,3.8c-1,1.1-2.1,2.3-3.1,3.3c-1.4,1.4-3.1,2.2-5.1,2.1
		c-3.4-0.1-6.3-2.5-6.6-6.2c-0.1-1,0-1.9,0.1-3c-2.6,0.7-5.1,0.3-7-1.7C58.1,128,57.7,125.5,58.5,122.8z"/>
</g>
</svg>
