<?xml version="1.0" encoding="utf-8"?>
<!-- Generator: Adobe Illustrator 24.0.3, SVG Export Plug-In . SVG Version: 6.00 Build 0)  -->
<svg version="1.1" id="Livello_1" xmlns="http://www.w3.org/2000/svg" xmlns:xlink="http://www.w3.org/1999/xlink" x="0px" y="0px"
	 viewBox="0 0 180 180" style="enable-background:new 0 0 180 180;" xml:space="preserve" width="120px" height="120px">
<path d="M90,44.9c-18.5,0-33.6,15-33.6,33.6c0,0-1.6,13.4,15.7,36c0,0,13.1,17.2,16.3,20.2l0.1-0.1c0.4,0.4,0.9,0.6,1.5,0.6
	c0.6,0,1.1-0.2,1.5-0.6l0,0c3.2-2.9,16.3-20.2,16.3-20.2c7.7-10,11.7-18.3,13.7-24.3c0.9-2.4,1.5-4.9,1.8-7.5c0-0.3,0.1-0.5,0.1-0.7
	c0,0,0,0,0-0.1c0.1-1.1,0.2-1.9,0.1-2.5c0-0.3,0-0.6,0-0.9C123.6,59.9,108.6,44.9,90,44.9z M90,92.5c-7.6,0-13.8-6.2-13.8-13.8
	S82.4,64.9,90,64.9c7.6,0,13.8,6.2,13.8,13.8S97.6,92.5,90,92.5z"/>
</svg>
