<?xml version="1.0" encoding="utf-8"?>
<!-- Generator: Adobe Illustrator 24.1.0, SVG Export Plug-In . SVG Version: 6.00 Build 0)  -->
<svg version="1.1" id="Livello_1" xmlns="http://www.w3.org/2000/svg" xmlns:xlink="http://www.w3.org/1999/xlink" x="0px" y="0px"
	 viewBox="0 0 180 180" style="enable-background:new 0 0 180 180;" xml:space="preserve" width="40px" height="40px">
<style type="text/css">
	.st0{fill-rule:evenodd;clip-rule:evenodd;}
</style>
<path class="st0" d="M103.72,122.27c0-1.52,0.06-6.5,0.06-12.68c0-4.31-1.48-7.13-3.14-8.56c10.29-1.14,21.1-5.05,21.1-22.8
	c0-5.04-1.79-9.17-4.75-12.4c0.48-1.17,2.06-5.87-0.46-12.23c0,0-3.87-1.24-12.7,4.74c-3.69-1.03-7.64-1.54-11.57-1.56
	c-3.93,0.02-7.88,0.53-11.57,1.56c-8.83-5.98-12.71-4.74-12.71-4.74c-2.51,6.36-0.93,11.06-0.45,12.23
	c-2.96,3.23-4.76,7.36-4.76,12.4c0,17.71,10.79,21.67,21.05,22.84c-1.32,1.16-2.51,3.19-2.93,6.18c-2.63,1.18-9.33,3.22-13.45-3.84
	c0,0-2.44-4.44-7.08-4.76c0,0-4.51-0.06-0.32,2.81c0,0,3.03,1.42,5.13,6.76c0,0,2.71,8.99,15.57,6.19c0.02,3.86,0.06,6.76,0.06,7.86
	c0,0.96-0.54,2.04-1.88,2.25c4.22,1.27,8.69,1.97,13.32,1.97c4.63,0,9.1-0.7,13.32-1.97C104.23,124.31,103.72,123.24,103.72,122.27z
	"/>
</svg>
