<?xml version="1.0" encoding="utf-8"?>
<!-- Generator: Adobe Illustrator 24.0.3, SVG Export Plug-In . SVG Version: 6.00 Build 0)  -->
<svg version="1.1" id="Livello_1" xmlns="http://www.w3.org/2000/svg" xmlns:xlink="http://www.w3.org/1999/xlink" x="0px" y="0px"
	 viewBox="0 0 180 180" style="enable-background:new 0 0 180 180;" xml:space="preserve" width="120px" heigth="120px">
<g>
	<path d="M28.8,78.6c0.1,6.6,1.9,13.3,6.1,19.1c2.2,3,5,5.3,8.5,6.9c3.5,1.6,6.9,1.6,10.4,0c5.9-2.7,9.8-7.3,12.2-13.2
		c0.2-0.4,0.1-1-0.1-1.4c-3.7-8.8-4.5-17.9-2.5-27.3c0.1-0.6-0.2-1.4-0.6-1.9c-7.7-9.6-23.1-8.7-29.9,1.6
		C29.9,67.1,28.9,72.4,28.8,78.6z"/>
	<path d="M47.7,134.1c-2.2,0-2.7-0.5-2.6-2.7c0.3-3.5,0.6-7,1.1-10.4c0.5-3.6,2.7-6.1,6.3-7.1c7-1.9,13.2-5.3,18.7-9.9
		c2-1.7,2.3-1.6,4.4,0c9.3,6.7,19.6,6.7,28.8,0c2.2-1.6,2.4-1.6,4.5,0.1c4,3.2,8.1,6.1,12.9,7.9c2.1,0.8,4.2,1.4,6.3,2
		c3,0.9,5.1,2.8,5.5,5.9c0.6,4.1,0.9,8.3,1.3,12.4c0.1,1.1-0.6,1.6-1.6,1.7C132.9,134.1,61.8,134.1,47.7,134.1z"/>
	<path d="M111.9,71.4c-0.2,9.4-2.3,17.2-7.8,23.9c-3.2,3.8-7.1,6.5-12.1,7.5c-2.6,0.5-5.1,0-7.5-1.1c-7.6-3.4-12.1-9.5-14.6-17.2
		c-2.7-8.3-2.7-16.7,0.6-24.8c3-7.3,8.1-12.2,16.2-13.4c10.9-1.6,19.5,3.8,23.2,14.3c0.6,1.6,1,3.2,1.3,4.9
		C111.5,67.6,111.9,69.5,111.9,71.4z"/>
	<path d="M151,78.6c-0.1,6.6-1.9,13.3-6.1,19.1c-2.2,3-5,5.3-8.5,6.9c-3.5,1.6-6.9,1.6-10.4,0c-5.9-2.7-9.8-7.3-12.2-13.2
		c-0.2-0.4-0.1-1,0.1-1.4c3.7-8.8,4.5-17.9,2.5-27.3c-0.1-0.6,0.2-1.4,0.6-1.9c7.7-9.6,23.1-8.7,29.9,1.6
		C149.9,67.1,151,72.4,151,78.6z"/>
	<path d="M45.5,111.1c-4.6,4-5.2,9.5-5.7,14.9c-0.2,2.6-0.3,5.3-0.4,8.1c-0.4,0-29,0-29,0c-1.9,0-2.5-0.4-2.3-2.4
		c0.3-3.4,0.6-6.9,1.1-10.3c0.4-2.9,2.2-4.8,5.1-5.5c6.5-1.7,12.3-4.7,17.4-9.1c1.8-1.6,2.1-1.5,4.1,0
		C38.6,108.8,41.8,110.3,45.5,111.1z"/>
	<path d="M134.8,111c3.7-0.7,7.1-2.4,10.2-4.8c0.8-0.6,1.6-0.7,2.4-0.1c0.6,0.4,1.2,0.8,1.8,1.3c4.5,3.7,9.4,6.6,15.1,7.9
		c4.5,1,6.6,3.8,7,8.2c0.3,2.9,0.4,5.8,0.6,8.7c0.1,1.3-0.5,1.9-1.8,1.9l-29.5,0c-0.2-3.6-0.3-7.2-0.8-10.7
		c-0.4-2.7-1.1-5.5-2.1-8.1C137.2,113.8,135.9,112.5,134.8,111z"/>
</g>
</svg>
