<?xml version="1.0" encoding="utf-8"?>
<!-- Generator: Adobe Illustrator 24.1.0, SVG Export Plug-In . SVG Version: 6.00 Build 0)  -->
<svg version="1.1" id="Livello_1" xmlns="http://www.w3.org/2000/svg" xmlns:xlink="http://www.w3.org/1999/xlink" x="0px" y="0px"
	 viewBox="0 0 180 180" style="enable-background:new 0 0 180 180;" xml:space="preserve" width="120px" height="120px">
<g>
	<path d="M126.41,136.08c-3.63-3.74-7.36-7.58-11.2-11.53c-2.04,3.93-4.03,7.78-6.12,11.81c-3.87-11.73-7.69-23.27-11.56-34.98
		c11.73,3.77,23.29,7.49,35.08,11.28c-4,2.11-7.83,4.13-11.77,6.21c3.96,3.79,7.84,7.5,11.73,11.22
		C130.53,132.07,128.51,134.04,126.41,136.08z"/>
	<path d="M101.66,129.1c-0.04,0.01-0.08,0.03-0.12,0.04c0.03-0.04,0.06-0.08,0.09-0.12l-1.85-5.67c-2.81,4.67-6.23,7.42-9.92,7.45
		c-0.07,0-0.13,0-0.19,0c-5.86-0.11-11.02-7.07-14.13-17.65c7.56-1.34,14.49-1.53,20.54-1.14l-1.7-5.22
		c-7.54-0.38-14.37,0.31-20.08,1.39c-1.05-4.92-1.69-10.39-1.82-16.19h34.66c-0.05,2.47-0.22,4.87-0.45,7.2l4.85,1.59
		c0.34-2.84,0.55-5.78,0.61-8.79h18.79c-0.26,4.98-1.42,9.72-3.3,14.08l4.93,1.62c2.31-5.5,3.59-11.53,3.59-17.87
		c0-25.49-20.67-46.16-46.16-46.16c-0.03,0-0.05,0-0.08,0c-0.01,0-0.03,0-0.04,0c-0.04,0-0.07,0.01-0.11,0.01
		C64.39,43.78,43.84,64.39,43.84,89.8c0,25.42,20.54,46.03,45.93,46.15c0.04,0,0.07,0.01,0.11,0.01c0.01,0,0.03,0,0.04,0
		c0.03,0,0.05,0,0.08,0c4.61,0,9.06-0.69,13.27-1.94L101.66,129.1z M72.5,87.1c0.16-5.72,0.81-11.12,1.86-15.97
		c11.82,2.25,22.53,1.54,30.9-0.01c1.05,4.85,1.71,10.25,1.87,15.98H72.5z M123.12,65.65c4.45,6.09,7.26,13.46,7.78,21.45h-18.76
		c-0.17-6.06-0.9-11.8-2.09-17.01C117.49,68.27,122.27,66.06,123.12,65.65z M119.95,61.81c-3.84,1.44-7.58,2.54-11.21,3.37
		c-1.82-5.97-4.29-11.02-7.19-14.72C108.68,52.55,115,56.53,119.95,61.81z M89.67,48.81c0.07,0,0.13,0,0.19,0
		c5.83,0.04,10.98,6.89,14.12,17.34c-11.11,1.92-20.87,1.39-28.39,0.15C78.71,55.81,83.85,48.92,89.67,48.81z M78.16,50.55
		c-2.91,3.74-5.38,8.83-7.19,14.85c-5.97-1.35-9.88-2.96-11.02-3.46C64.83,56.66,71.09,52.68,78.16,50.55z M57,65.48l0.1,0.31
		c4.28,1.88,8.5,3.29,12.62,4.33c-1.19,5.2-1.92,10.94-2.09,16.99H49.1C49.62,79.03,52.48,71.6,57,65.48z M56.64,113.63
		c-4.41-6.16-7.16-13.6-7.58-21.65h18.55c0.14,6.12,0.85,11.93,2.04,17.21C62.04,111.06,57.24,113.33,56.64,113.63z M59.75,117.48
		c3.83-1.44,7.56-2.54,11.17-3.38c1.82,6.07,4.3,11.2,7.23,14.96C71,126.9,64.67,122.85,59.75,117.48z"/>
</g>
</svg>
