<?xml version="1.0" encoding="utf-8"?>
<!-- Generator: Adobe Illustrator 24.0.3, SVG Export Plug-In . SVG Version: 6.00 Build 0)  -->
<svg version="1.1" id="Livello_1" xmlns="http://www.w3.org/2000/svg" xmlns:xlink="http://www.w3.org/1999/xlink" x="0px" y="0px"
	 viewBox="0 0 180 180" style="enable-background:new 0 0 180 180;" xml:space="preserve" width="100px" height="100px">
<path d="M117.7,83.5v-3.7h28.1c1.2,0,2.2-1,2.2-2.2c0-1.2-1-2.2-2.2-2.2h-28.1v-3.7h28.1c1.2,0,2.2-1,2.2-2.2c0-1.2-1-2.2-2.2-2.2
	h-28.1v-3.7h28.1c1.2,0,2.2-1,2.2-2.2c0-1.2-1-2.2-2.2-2.2c-1.9,0-35,0-36,0c-4.6,0-8.4,3.8-8.4,8.4H37.7c-3.4,0-6.2,2.8-6.2,6.2
	c0,3.4,2.8,6.2,6.2,6.2l63.8,0c0,4.6,3.7,8.3,8.3,8.3h36c1.2,0,2.2-1,2.2-2.2c0-1.2-1-2.2-2.2-2.2H117.7z M77.5,101.9l0,6.8H37.7
	c-3.4,0-6.2,2.8-6.2,6.2c0,3.4,2.8,6.2,6.2,6.2l101.2,0c5.3,0,9.6-4.3,9.6-9.6c0-5.3-4.3-9.6-9.6-9.6H77.5z"/>
</svg>
