<?xml version="1.0" encoding="utf-8"?>
<!-- Generator: Adobe Illustrator 24.0.3, SVG Export Plug-In . SVG Version: 6.00 Build 0)  -->
<svg version="1.1" id="Livello_1" xmlns="http://www.w3.org/2000/svg" xmlns:xlink="http://www.w3.org/1999/xlink" x="0px" y="0px"
	 viewBox="0 0 180 180" style="enable-background:new 0 0 180 180;" xml:space="preserve" width="100px" height="100px">
<path d="M74.1,134.5c2.7-2.1,5.5-3.5,8.5-4.6c1.5-0.5,2.9-0.9,4.5-1.1c0.6-0.1,0.7-0.3,0.7-0.9c-0.2-5.9-0.7-22.5-0.7-25
	c0-0.7-0.2-1.1-0.7-1.6c-7.4-6.8-34-32.9-34.4-33.3l44.6,0c0.7,0,1.2-0.2,1.7-0.7c2.5-2.5,5-5,7.5-7.5c0.5-0.4,0.5-0.8,0.2-1.3
	c-1.1-1.7-1.5-3.6-1-5.6c0.8-3.1,3.8-4.7,7.3-3.9c0.7,0.2,1.5,0.4,2.1,0.9c0.7,0.6,1.1,0.3,1.6-0.2c1.2-1.3,2.6-2.5,3.8-3.9
	c0.4-0.5,0.7-0.4,1.1,0c1.6,1.6,1.6,1.6,0,3.2c-1,1-2.1,2.1-3.1,3.1c-0.4,0.4-0.4,0.6-0.1,1.1c1.1,1.7,1.6,3.5,1.1,5.5
	c-0.8,3.3-3.8,4.9-7.2,4c-0.9-0.2-1.7-0.6-2.5-1.1c-0.3-0.2-0.5-0.3-0.8,0c-1.9,1.9-3.8,3.8-5.7,5.7c-0.2,0.2-0.4,0.3-0.5,0.7h26
	c0,0.5-32.9,32.2-34.2,33.4c-0.5,0.4-0.7,0.8-0.7,1.5c-0.2,8.3-0.5,16.7-0.7,25c0,0.6,0.1,0.8,0.7,0.9c4.3,0.7,8.2,2.4,11.8,4.9
	c0.3,0.2,0.6,0.5,1.1,0.8H74.1z"/>
</svg>
