<?xml version="1.0" encoding="utf-8"?>
<!-- Generator: Adobe Illustrator 24.0.3, SVG Export Plug-In . SVG Version: 6.00 Build 0)  -->
<svg version="1.1" id="Livello_1" xmlns="http://www.w3.org/2000/svg" xmlns:xlink="http://www.w3.org/1999/xlink" x="0px" y="0px" viewBox="0 0 180 180" style="enable-background:new 0 0 180 180;" xml:space="preserve" width="40px" height="40px">
<g>
	<path d="M90,44.9c-24.9,0-45.1,20.2-45.1,45.1s20.2,45.1,45.1,45.1s45.1-20.2,45.1-45.1S114.9,44.9,90,44.9z M126.7,71.4
		c0.1,0,0.1,0,0.2-0.1c0.3,0.6,0.5,1.1,0.9,1.8c-0.4,0-0.7,0.1-1.1,0.1C126.7,72.6,126.7,72,126.7,71.4z M119.4,64
		c1.2-0.4,0.5-1.4,0.8-2.2c0.7,0.7,1.2,1.4,1.8,2.1c-0.3,1.4-1.3,1.4-2.3,1.3c-0.4-0.1-0.8-0.2-1.3-0.3
		C118.8,64.5,119,64.1,119.4,64z M66.7,59.4c-0.9,0-0.9,0-1-0.8c0.8-0.1,1.6-0.3,2.4-0.4C68,59.3,67.9,59.4,66.7,59.4z M68.1,60.4
		c-0.1,0.4-0.1,0.8-0.2,0.9c-0.7,0.2-1.4,0.3-2,0c0-0.1,0-0.2,0-0.3C66.5,60.8,67.2,60.6,68.1,60.4z M125.6,78
		c-1-0.9-2.1-1.1-3.5-0.7c0,0.4-0.1,0.7-0.1,1.2c-1.7-0.5-3.3-1-5-1.5c0-0.7,0-1.5,0-2.4c-2,0.4-4.1,0-5.9,1
		c-0.6,0.3-1.4,0.2-2.2,0.1c-1.2-0.2-2,0.7-2.9,1.2c-0.3,0.2-0.2,1-0.1,1.5c0,0.6-0.1,1-0.6,1.3c-1.1,0.7-2.2,1.5-3.2,2.3
		c-0.3,0.2-0.8,0.4-0.6,1c0.2,0.6,0.3,1.1,1.4,0.9c-0.4,0.7-0.6,1.1-0.9,1.5c0,0-0.1,0.1-0.1,0.1c-0.3,0.4-0.1,3.5,0.3,3.9
		c1,1.1,2,2.2,2.9,3.4c0.6,0.8,1.3,0.7,2.1,0.7c0.9-0.1,1.9-0.2,2.8-0.3c0.3,0,0.7-0.1,0.9-0.2c1.1-0.8,2-0.8,3.1,0.1
		c0.3,0.3,0.9,0.3,1.3,0.4c0.5,0.1,1,0.1,1.5,0.2c-0.1,0.9-0.2,1.8-0.2,2.7c0,0.4,0,0.9,0.2,1.3c0.7,1.4,1.5,2.6,2.2,4
		c0.2,0.3,0.1,0.8,0,1.2c-0.2,0.7-0.6,1.2-1,1.9c-0.4,0.8-0.3,1.7,0.4,2.3c0.5,0.5,0.8,1,0.7,1.7c-0.2,1.5,0.1,2.9,1.2,4
		c0.2,0.2,0.3,0.6,0.3,1c0,0.7,0,1.4,0,2.2c0.4,0,0.8,0.1,1.3,0.1c-4.8,5.8-10.6,10-17.5,12.6c-11,4-21.9,3.7-32.5-1.5
		c-22.1-10.8-27.9-35.7-20.2-53c0,0.3,0.1,0.5,0,0.6c-0.2,1,0.1,1.6,1.1,1.9c0.2,0.1,0.4,0.5,0.5,0.8c0.1,0.1,0,0.4,0,0.5
		c-0.4,1.8,0.5,3.3,1.5,4.6c0.3,0.4,0.9,0.5,1.4,0.7c0.1-0.1,0.2-0.2,0.3-0.2c-0.1-0.5-0.2-1.1-0.4-1.5c-0.9-1.2-1.5-2.5-1.4-4.1
		c0.2,0,0.5,0,0.9,0c-0.2,2.2,1.2,3.7,2.3,5.3c0.1,0.2,0.2,0.7,0.1,0.8c-0.4,0.6-0.1,1,0.1,1.6c0.8,2,2.7,1.8,4.3,2.2
		c0.4,0.1,1-0.3,1.6-0.5c0,0.6,0,0.9,0,1.3c0.2,0,0.5,0.1,0.7,0.1c1.5,0.2,2.7,0.8,3.5,2.1c0.7,1.1,1.6,1.6,2.9,1.5
		c0.4,0,1.2,0.1,1.3,0.4c0.3,0.7,0.4,1.5,0.2,2.2c-0.1,0.4-0.7,0.7-1.1,0.9c-0.7,0.4-1,0.9-1,1.7c0,0.7-0.2,1.5-0.2,2.2
		c0,0.3,0.1,0.8,0.3,1c0.7,0.9,1.4,1.7,2.1,2.6c0.4,0.5,0.5,1.1,0.8,1.7c0.1,0.2,0.3,0.4,0.5,0.6c1,0.6,2,1.1,3,1.8
		c0.2,0.1,0.3,0.6,0.3,0.9c0,1.8,0,3.6,0,5.4c0,0.7,0,1.2,0.9,1.3c-0.1,0.8-0.2,1.6-0.4,2.3c-0.2,0.7,0,1.3,0.4,1.7
		c0.7,0.7,1,1.5,0.7,2.5c-0.5,2.2,0.9,3.8,2,5.4c0.5,0.7,1.2,1.3,1.9,1.6c0.8,0.4,1.8,0.3,2.6,0.5c0.4-0.6,0.5-1,0-1.3
		c-1.1-0.7-1.7-1.5-1-2.8c0.1-0.2,0-0.6,0-0.8c-0.6-0.3-1.2-0.5-1.8-0.7c0.5-0.7,0.9-1.2,1.2-1.7c-0.2-0.2-0.2-0.3-0.2-0.3
		c-0.3-0.2-0.6-0.4-0.9-0.6c0.4-0.2,0.7-0.4,1.1-0.5c1.4-0.5,2.9-0.8,3.7-2.5c0.4-0.9,1.2-1.8,1.9-2.5c0.7-0.7,0.9-1.5,0.5-2.4
		c-0.3-0.7-0.4-1.4,0.2-2.1c0.3-0.2,0.6-0.4,1-0.5c0.7-0.2,1.5,0.2,2.3-0.4c0.7-0.6,1.2-1.1,1.2-2.1c0-0.7,0.2-1.4,0.2-2.1
		c-0.1-1.4,0.6-2.3,1.4-3.3c0.4-0.6,0.6-1.3,1-2.1c-1.5-0.1-2.2-0.8-2.7-1.9c-0.1-0.2-0.6-0.4-0.9-0.3c-1.8,0-3.5-0.1-5.1-0.9
		c-0.5-0.3-0.8-0.5-0.7-1.1c0-0.4,0-0.9-0.2-1.3c-0.4-1.4-0.9-1.7-2.3-1.6c-0.9,0.1-1.4-0.3-1.9-1.1c-0.9-1.5-0.9-1.5-2.1-1.7
		c-0.4,0.1-0.8,0.3-1.1,0.4c-0.9,0.2-1.6,0-2.3-0.9c-0.4-0.5-1.5-0.6-2.4-0.7c-0.3,0-0.8,0.4-1,0.7c-0.9,1.8-2.4,1.5-4,1.2
		c-0.6-0.1-0.8-0.3-0.8-0.9c0-0.9-0.1-1.9-0.2-2.9c-0.8-0.2-1.5-0.3-2.3-0.5c0.1-0.9,1.3-1.6,0.5-2.8c-0.9,0.6-1.7,1.1-2.5,1.7
		c-0.5,0.4-2.2,0.4-2.5,0c-0.4-0.6-0.8-1.3-0.6-2.2c0.5-2,1.7-3.4,3.6-4c0.2-0.1,0.5-0.1,0.8-0.1c1.4,0,2.8,0,4.3,0
		c-0.4,1.6,0.6,1.8,1.7,2.2c0-0.3,0.1-0.6,0-0.8c-0.4-1.5,0.4-2.4,1.5-3.1c0.5-0.3,0.9-0.6,1.4-0.9c0.5-0.3,1-0.7,1-1.4
		c0-0.2,0.2-0.4,0.3-0.6c1.2-1.3,2.4-2.6,4.1-3.4c0.7-0.3,1.3-1.1,1.8-1.7c0.5-0.6,1.1-0.8,1.7-0.1c0.2-0.3,0.4-0.5,0.7-0.8
		c-0.4-0.1-0.7-0.1-1-0.3c-0.2-0.1-0.4-0.4-0.4-0.5c0-0.2,0.3-0.5,0.4-0.5c0.4,0,0.9,0.1,1.3,0.3c0.2,0.1,0.4,0.5,0.6,0.5
		c0.6-0.1,1.1-0.3,1.6-0.4c0.2-0.1,0.4-0.1,0.7-0.2c0,0.3,0,0.6-0.1,0.8c-0.6,0.8-0.6,1,0.4,1.3c0.5,0.2,1.1,0.3,1.6,0.5
		c0.1,0,0.3,0,0.4,0c0.3-0.7,0.2-1.1-0.6-1.4c-0.1,0-0.2-0.1-0.3-0.1c-0.3-0.2-0.5-0.4-0.8-0.6c0.3-0.2,0.5-0.4,0.8-0.5
		c0.6-0.3,0.9-1.4,0.5-1.8c-0.4-0.4-1.1-0.7-1.3-1.2c-0.3-0.5-0.1-1.3-0.2-2c-0.9,0.4-1.9,0.7-2.9,1.1c0.1-0.8,0.1-1.4,0.1-2
		c-0.9-0.2-1.8-0.5-2.7-0.6c-0.5-0.1-1.5,0.8-1.5,1.3c0,0.1,0,0.1,0,0.2c0.2,1.5,0,2.6-1.8,2.8c-0.3,0-0.6,0.8-0.9,1.2
		c-0.3,0.3-0.6,0.6-0.9,0.9c-0.1-0.1-0.2-0.1-0.3-0.2c0-0.7,0-1.4,0-2.2c-1.5-0.3-3.4-0.1-3.4-2.6c1.6-0.9,3.4-1.8,5.3-2.8
		c0.1,0.6,0.2,1,0.4,1.6c0.7-0.4,1.3-0.7,2-1.1c-0.1-0.2-0.3-0.5-0.6-1c1.1,0.2,1.6-0.5,2.3-0.9c0.7-0.4,1.7-0.5,2.6-0.5
		c0.4,0,0.9,0.5,1.5,0.8c-1.1,0.6-2.1,1.1-3.2,1.8c1.5,0.4,2.7,0.7,4,1c0.1-0.2,0.2-0.4,0.3-0.7c0.1-0.5,0.5-0.8,1-0.7
		c0.9,0.2,1.4-0.3,1.5-1.2c-0.4-0.1-0.7-0.2-1.2-0.4c0.4-1.4-0.5-1.7-1.5-2.1c-1.5-0.7-3-1.3-4.6-0.7c-0.6,0.2-1.2,0.5-1.8,0.8
		c-0.1,0.1-0.2,0.4-0.2,0.6c0,0.4,0,0.8,0,1.5c-0.6-0.2-1.3-0.3-1.5-0.6c-0.6-1.1,0.8-1.3,1.1-2.2c-1,0-2-0.1-2.9,0
		c-0.3,0-0.6,0.5-1.1,1c0.5,0.1,0.8,0.2,1.1,0.3c0.1,0.6,0.1,1-0.7,1c-0.5,0-1.1,0-1.4,0.7C77.4,58,77,58,76.7,58.1
		c-0.6,0-1.1,0-1.7,0c-0.1-0.4-0.1-0.8-0.2-1.4c1.5,0.2,2.6-0.2,3.4-1.5c-0.4-0.4-0.8-0.5-1.2,0C76.1,56.1,74.8,56,74,55
		c-0.6-0.8-2.3-1.2-3.2-0.6c-0.7,0.4-1.3,1-1.9,1.7c0.4,0,0.7,0,1.1,0c1.1,0,1.2,0.2,0.8,1.1c0.8,0.5,2-0.4,2.6,1
		c-0.8,0-1.6,0-2.3,0c-0.1,0-0.2,0-0.3,0c-1.3-1.3-3-1.5-4.7-1.6c11.8-9.4,34.3-12.3,51.4,2.6c-0.4,0.3-0.8,0.7-1.2,1
		c-0.5,0.3-1.2,0.5-1.6,1c-0.7,0.6-0.5,1.2,0.3,1.6c0.5,0.2,0.7,0.9,1.1,1.4c0.4-0.1,0.9-0.3,1.5-0.5c0.1,0.6,0.2,1.2,0.3,1.8
		c-0.9,0-1.8-0.1-2.7,0c-0.4,0.1-0.9,0.4-1.2,0.7c-0.6,1-1.4,1.8-2.7,1.8c-0.2,0-0.5,0.4-0.6,0.6c-0.1,0.3-0.1,0.7-0.2,1.2
		c0.3,0.1,0.5,0.2,0.9,0.4c-0.1,0.3-0.1,0.6-0.2,0.8c-1.2,0-2.3,0-3.4,0.1c-0.8,0.1-1.2,0.8-1.1,1.6c0,0.3,0.1,0.7,0.1,1
		c0.2,1,0.6,1.4,1.6,1.4c0.1,0,0.1,0,0.2,0c1.5,0.1,3,0.2,3.6-1.7c0.1-0.4,0.5-0.7,0.8-1.1c0.5-0.6,0.9-1.3,1.8-0.8
		c0.1,0.1,0.4-0.1,0.6-0.2c0.3-0.2,0.6-0.5,0.9-0.8c0.6,1.6,2.4,1.9,3.4,3c-0.3,0.9-1,0.2-1.5,0.4c0.2,0.7,0.6,1.1,1.3,0.9
		c0.6-0.1,1.2-0.2,1.1-1.1c0-0.3,0.2-0.6,0.3-1c-0.9-0.9-2.9-1-2.8-2.9c0.5,0,1.2-0.2,1.6,0c0.8,0.5,1.4,1.2,2.1,1.8
		c0.1,0.1,0.1,0.2,0.1,0.3c-0.2,1.4,0.8,2.1,1.6,2.9c0.6-0.9,0.1-2.4,1.7-2.7c0.1,0.3,0.1,0.6,0.2,0.9c0.1,1.4,0.9,2.1,2.3,2
		c0.8-0.1,1.2,0.2,1.4,1c0.2,0.8,0.5,1.5,0.8,2.5C128.3,78.4,126.8,79.1,125.6,78z M69.4,65.2c0.8-0.1,1.4-0.2,2-0.3
		c-0.1,1-0.3,1.7-1.3,1.7C70,66.3,69.8,65.9,69.4,65.2z M75,70.9c0-0.4,0-0.8,0-1.2c0.4,0,0.8,0,1.2,0C76.4,70.6,76.2,70.8,75,70.9z
		 M74.4,72.7c-0.1-0.9,0.1-1.1,1.6-1.3C76.1,72.5,75.8,72.7,74.4,72.7z M75,69.3c-1-0.1-2.1-0.1-3.1-0.2c0.3-0.9,1.7-1.5,2.6-1.2
		c0.3,0.1,0.5,0.7,0.8,1C75.2,69.1,75.1,69.2,75,69.3z M74,69.8c-0.5,0.8-1.1,1.5-1.5,2.2c-0.8,0-0.7-0.6-0.6-1.1
		C72,70.1,72.8,69.6,74,69.8z M76.8,70.5c0.5,0.5,1.7,0,1.5,1.2C76.9,71.9,76.7,71.8,76.8,70.5z"/>
	<path d="M113.2,66.1c-0.8,1.6-2.3,1-3.6,1.1c0-0.8-0.2-1.6,1.2-1.6c-0.2-0.4-0.3-0.7-0.5-0.9c-0.2-0.2-0.6-0.3-0.8-0.5
		c-0.2-0.2-0.4-0.6-0.4-0.8c0.1-0.3,0.4-0.6,0.6-0.8c0.3-0.2,0.7-0.1,1.1-0.2C111.1,63.9,111.5,65.4,113.2,66.1z"/>
	<path d="M106.8,66.6c-0.1-1.2,0.7-2.3,1.7-2.3c0.3,0,0.9,0.2,1,0.4c0.1,0.2-0.1,0.8-0.4,1C107.9,66.8,107.8,66.8,106.8,66.6z"/>
	<path d="M85.1,70c0.6-0.1,1.2,0.1,1.5-0.7c0-0.1,0.5,0,1,0.1c-0.5,0.5-0.9,1-1.4,1.3C85.7,71.1,85.2,70.8,85.1,70z"/>
</g>
</svg>
