<?xml version="1.0" encoding="utf-8"?>
<!-- Generator: Adobe Illustrator 24.0.3, SVG Export Plug-In . SVG Version: 6.00 Build 0)  -->
<svg version="1.1" id="Livello_1" xmlns="http://www.w3.org/2000/svg" xmlns:xlink="http://www.w3.org/1999/xlink" x="0px" y="0px"
	 viewBox="0 0 180 180" style="enable-background:new 0 0 180 180;" xml:space="preserve" width="120px" heigth="120px">
<g>
	<path d="M159.4,86.1c1,3.8,2.4,7.5,3,11.2c1.1,6.5-2.8,12.8-8.9,15.1c-3.7,1.4-7.6,2.4-11.5,3.6c-0.6-1.9-1.1-3.7-1.7-5.5
		c-2.3,0.7-4.5,1.4-6.9,2.1c0.6,1.8,1.1,3.6,1.7,5.5c-22.1,6.8-44.2,13.6-66.4,20.5c-0.6-1.8-1.1-3.5-1.7-5.3
		c-2.3,0.7-4.6,1.4-6.9,2.1c0.5,1.8,1.1,3.5,1.6,5.4c-2.2,0.7-4.4,1.4-6.6,2c-2,0.6-4,1.3-6,1.7c-6.7,1.2-13.5-2.8-15.7-9.3
		c-1.2-3.3-2.1-6.7-3.2-10.2c5.3-1.7,9.1-5.1,11.1-10.3c1.5-3.9,1.4-7.8,0-11.6c-2.8-7.4-11.3-12.7-20.7-9.8c-0.1,0-0.1-0.1-0.1-0.1
		c-1-3.5-2.4-7-3-10.5c-1.1-6.6,2.8-13.1,9.1-15.4c3.7-1.3,7.6-2.4,11.4-3.6c0.8,2.7,1.6,5.2,2.5,8c2.3-0.7,4.5-1.4,6.9-2.1
		c-0.8-2.7-1.6-5.3-2.4-8c22.2-6.8,44.2-13.6,66.4-20.5c0.8,2.6,1.6,5.1,2.4,7.8c2.3-0.7,4.5-1.4,6.9-2.1c-0.8-2.6-1.6-5.1-2.4-7.7
		c0.2-0.1,0.4-0.2,0.6-0.3c3.2-1,6.5-2,9.7-3c7.9-2.4,15.8,2,18.2,9.9c0.8,2.8,1.7,5.6,2.6,8.4c-5.5,1.9-9.4,5.4-11.4,10.9
		c-1.3,3.7-1.2,7.5,0.1,11.2C140.7,83.1,148.8,89,159.4,86.1z M115.2,53.5c1.1,3.5,2.1,6.9,3.2,10.3c2.4-0.7,4.6-1.4,6.9-2.1
		c-1.1-3.5-2.1-6.9-3.2-10.3C119.7,52.1,117.5,52.8,115.2,53.5z M48.8,74.1c-2.4,0.7-4.6,1.4-6.9,2.1c1.1,3.5,2.1,6.9,3.2,10.3
		c2.3-0.7,4.6-1.4,6.9-2.1C50.9,81,49.9,77.6,48.8,74.1z M127.5,93.5c2.3-0.7,4.6-1.4,6.9-2.1c-1.1-3.5-2.1-6.9-3.2-10.3
		c-2.4,0.7-4.6,1.4-6.9,2.1C125.4,86.6,126.5,90,127.5,93.5z M54.3,116.2c2.3-0.7,4.6-1.4,6.9-2.1c-1.1-3.5-2.1-6.9-3.2-10.3
		c-2.3,0.7-4.6,1.4-6.9,2.1C52.1,109.3,53.2,112.7,54.3,116.2z M129.8,76.5c-1.1-3.5-2.1-6.9-3.2-10.3c-2.3,0.7-4.6,1.4-6.9,2.1
		c1.1,3.5,2.1,6.9,3.2,10.3C125.3,77.9,127.5,77.2,129.8,76.5z M56.6,99.3c-1.1-3.5-2.1-6.9-3.2-10.3c-2.4,0.7-4.6,1.4-6.9,2.1
		c1.1,3.5,2.1,6.9,3.2,10.3C52,100.7,54.2,100,56.6,99.3z M138.9,106.2c-1.1-3.5-2.1-6.9-3.2-10.3c-2.3,0.7-4.6,1.4-6.9,2.1
		c1.1,3.5,2.1,6.9,3.2,10.3C134.4,107.6,136.6,106.9,138.9,106.2z M55.6,120.7c1.1,3.5,2.1,6.9,3.2,10.3c2.3-0.7,4.6-1.4,6.9-2.1
		c-1.1-3.5-2.1-6.9-3.2-10.3C60.2,119.3,57.9,120,55.6,120.7z"/>
</g>
</svg>
