<?xml version="1.0" encoding="utf-8"?>
<!-- Generator: Adobe Illustrator 24.0.3, SVG Export Plug-In . SVG Version: 6.00 Build 0)  -->
<svg version="1.1" id="Livello_1" xmlns="http://www.w3.org/2000/svg" xmlns:xlink="http://www.w3.org/1999/xlink" x="0px" y="0px"
	 viewBox="0 0 180 180" style="enable-background:new 0 0 180 180;" xml:space="preserve" width="40px" height="40px">
<style type="text/css">
	.st0{fill-rule:evenodd;clip-rule:evenodd;}
</style>
<path class="st0" d="M47.5,102.3c0,0,16,14.3,30.8-0.8c0,0-9.2,0-2.4-7.3c0,0-6.8,1.6-10.3-5.1c0,0,3-2.2,5.7-1.9c0,0-7-0.8-9.2-8.7
	c0,0,1.9-1.4,4.9-0.8c0,0-6.8-3-6.5-10.8c0,0,16.5,6.8,20.3,8.6c0,0,6.5,4.1,7.6,6.8c0,0,5.1-16.2,13.5-21.4c0,0-0.1,1.6-0.9,2.2
	c0,0,10.9-5.7,4.4-0.1c0,0,5.8-2.3,5.8-0.2c0,0,0.6,1.6-7.2,3.1c0,0,14.7-0.5,18.3,16.4c0,0,3.7,1.2,9.9-1c0,0-0.4,4.1-8.9,5.3
	c0,0,3.3,2.1,9.3,1c0,0-1.6,3.5-10.1,3.8c0,0-2.9,19.1-28.5,26.1C93.9,117.8,65.5,126.6,47.5,102.3z"/>
</svg>
