<?xml version="1.0" encoding="utf-8"?>
<!-- Generator: Adobe Illustrator 24.1.0, SVG Export Plug-In . SVG Version: 6.00 Build 0)  -->
<svg version="1.1" id="Livello_1" xmlns="http://www.w3.org/2000/svg" xmlns:xlink="http://www.w3.org/1999/xlink" x="0px" y="0px"
	 viewBox="0 0 180 180" style="enable-background:new 0 0 180 180;" xml:space="preserve">
<g>
	<path d="M151.57,52.81h-43.84c-4.33,0-7.88-3.55-7.88-7.88v0c0-4.33,3.55-7.88,7.88-7.88h43.84c4.33,0,7.88,3.55,7.88,7.88v0
		C159.45,49.26,155.91,52.81,151.57,52.81z"/>
	<path d="M151.57,142.95h-43.84c-4.33,0-7.88-3.55-7.88-7.88v0c0-4.33,3.55-7.88,7.88-7.88h43.84c4.33,0,7.88,3.55,7.88,7.88v0
		C159.45,139.4,155.91,142.95,151.57,142.95z"/>
	<path d="M151.57,112.9h-27.08c-4.33,0-7.88-3.55-7.88-7.88l0.08,0c0-4.33,3.47-7.88,7.8-7.88h27.08c4.33,0,7.88,3.55,7.88,7.88v0
		C159.45,109.36,155.91,112.9,151.57,112.9z"/>
	<path d="M105.02,89.75c0-1.91-0.69-3.67-1.83-5.04c-0.11-0.19-27.51-27.36-27.51-27.36c-3.07-3.07-8.02-3.01-11.09,0.06l-0.06-0.06
		c-3.07,3.07-3.07,8.08,0,11.15l13.51,13.37H28.43c-4.33,0-7.88,3.55-7.88,7.88v0c0,4.33,3.55,7.88,7.88,7.88H78.4l-13.88,13.85
		c-3.07,3.07-3.01,8.02,0.06,11.09l-0.06,0.06c3.07,3.07,8.08,3.07,11.15,0c0,0,27.45-27.56,27.8-28.2
		C104.44,93.12,105.02,91.5,105.02,89.75L105.02,89.75z"/>
	<path d="M151.57,82.86h-27.08c-4.33,0-7.88-3.55-7.88-7.88l0.08,0c0-4.33,3.47-7.88,7.8-7.88h27.08c4.33,0,7.88,3.55,7.88,7.88v0
		C159.45,79.31,155.91,82.86,151.57,82.86z"/>
</g>
</svg>
