<?xml version="1.0" encoding="utf-8"?>
<!-- Generator: Adobe Illustrator 24.1.0, SVG Export Plug-In . SVG Version: 6.00 Build 0)  -->
<svg version="1.1" id="Livello_1" xmlns="http://www.w3.org/2000/svg" xmlns:xlink="http://www.w3.org/1999/xlink" x="0px" y="0px"
	 viewBox="0 0 180 180" style="enable-background:new 0 0 180 180;" xml:space="preserve">
<style type="text/css">
	.st0{fill:#FFFFFF;}
</style>
<g>
	<path d="M90.02,43.93c25.41-0.02,46.08,20.58,46.12,45.97c0.04,25.48-20.69,46.21-46.17,46.17c-25.46-0.04-46.15-20.68-46.11-45.99
		C43.9,64.48,64.44,43.95,90.02,43.93z M53.43,89.83c-0.04,20.31,16.3,36.78,36.52,36.81c20.11,0.02,36.56-16.37,36.61-36.48
		c0.05-20.3-16.31-36.78-36.52-36.79C69.89,53.35,53.47,69.71,53.43,89.83z"/>
	<path class="st0" d="M53.43,89.83c0.04-20.12,16.46-36.48,36.61-36.47c20.21,0.01,36.57,16.49,36.52,36.79
		c-0.05,20.11-16.5,36.51-36.61,36.48C69.73,126.61,53.39,110.14,53.43,89.83z M78.67,116.23c11.89-8.85,23.49-17.49,35.26-26.24
		c-11.79-8.76-23.37-17.36-35.26-26.18C78.67,81.41,78.67,98.6,78.67,116.23z"/>
	<path d="M78.67,116.23c0-17.63,0-34.82,0-52.42c11.88,8.82,23.47,17.42,35.26,26.18C102.17,98.74,90.56,107.38,78.67,116.23z"/>
</g>
</svg>
