<?xml version="1.0" standalone="no"?>
<!DOCTYPE svg PUBLIC "-//W3C//DTD SVG 20010904//EN"
 "http://www.w3.org/TR/2001/REC-SVG-20010904/DTD/svg10.dtd">
<svg version="1.0" xmlns="http://www.w3.org/2000/svg"
 width="512.000000pt" height="512.000000pt" viewBox="0 0 512.000000 512.000000"
 preserveAspectRatio="xMidYMid meet">
<metadata>
Created by potrace 1.14, written by Peter Selinger 2001-2017
</metadata>
<g transform="translate(0.000000,512.000000) scale(0.100000,-0.100000)"
fill="#000000" stroke="none">
<path d="M3250 4153 c-97 -15 -238 -74 -315 -133 -133 -101 -176 -162 -419
-595 -21 -37 -207 -360 -216 -375 -5 -8 -32 -53 -58 -100 -27 -47 -93 -161
-147 -255 -54 -93 -106 -183 -115 -200 -25 -43 -459 -794 -480 -830 -10 -16
-34 -59 -54 -95 -48 -84 -84 -121 -154 -156 -50 -25 -68 -29 -142 -29 -76 0
-91 3 -139 30 -58 32 -115 91 -146 151 -11 22 -34 62 -52 91 -18 29 -33 54
-33 57 0 2 -26 48 -58 103 -32 54 -70 118 -84 143 -14 25 -49 86 -78 135 -29
50 -61 106 -72 125 -103 182 -261 450 -266 450 -4 0 -56 -100 -115 -221 l-108
-221 19 -31 c11 -18 31 -52 44 -77 14 -25 73 -126 130 -225 58 -99 116 -200
130 -225 222 -396 299 -502 434 -590 131 -86 259 -120 429 -115 279 8 494 153
647 436 13 24 31 55 39 69 9 14 78 133 154 265 154 267 190 329 500 865 120
206 227 391 238 410 131 233 480 830 513 881 24 36 63 85 87 110 47 49 130
119 141 119 5 0 20 9 34 20 l26 21 -145 -2 c-79 -2 -155 -4 -169 -6z"/>
<path d="M3797 4139 c-140 -34 -264 -106 -363 -211 -66 -69 -81 -94 -383 -621
-10 -18 -67 -115 -126 -217 -59 -102 -119 -205 -133 -230 -13 -25 -28 -49 -32
-55 -4 -5 -19 -31 -33 -56 -24 -43 -98 -171 -560 -969 -376 -650 -377 -651
-524 -761 -29 -22 -57 -39 -62 -39 -5 0 -13 -5 -16 -11 -12 -18 278 -9 364 13
163 40 296 125 402 258 20 25 96 149 168 275 142 247 180 312 258 445 27 47
105 182 173 300 68 118 187 325 265 460 78 135 213 369 300 520 247 430 264
452 384 486 148 44 301 -27 376 -172 11 -22 27 -50 36 -64 13 -20 368 -634
565 -978 l42 -73 111 225 111 226 -19 32 c-10 18 -102 179 -206 358 -103 179
-197 341 -207 360 -155 274 -251 377 -419 453 -106 48 -151 58 -289 62 -79 3
-125 -1 -183 -16z"/>
<path d="M3892 3624 c-74 -27 -131 -104 -137 -184 -3 -49 23 -108 135 -300 62
-107 123 -213 136 -235 12 -22 59 -102 103 -179 45 -76 81 -140 81 -142 0 -2
21 -38 47 -81 25 -43 47 -79 48 -80 1 -3 106 -11 230 -18 50 -3 129 -8 178
-11 48 -3 87 -3 87 1 0 4 -22 45 -50 92 -27 47 -50 87 -50 89 0 3 -8 17 -19
32 -15 22 -157 267 -389 672 -162 284 -178 307 -233 335 -45 24 -116 27 -167
9z"/>
<path d="M405 2570 c52 -89 95 -164 95 -166 0 -3 8 -17 19 -32 10 -15 117
-198 236 -407 120 -209 227 -392 239 -407 37 -46 94 -72 161 -72 66 0 104 16
149 61 42 41 57 81 57 151 0 49 -13 78 -100 227 -35 61 -71 124 -81 140 -54
95 -363 630 -364 632 -1 1 -40 5 -86 8 -47 3 -114 7 -150 10 -36 2 -111 7
-167 11 l-102 6 94 -162z"/>
</g>
</svg>
