<svg xmlns="http://www.w3.org/2000/svg" xmlns:xlink="http://www.w3.org/1999/xlink" width="220" zoomAndPan="magnify" viewBox="0 0 165 82.499998" height="110" preserveAspectRatio="xMidYMid meet" version="1.0"><defs><clipPath id="id1"><path d="M 0.496094 0 L 164.503906 0 L 164.503906 82.003906 L 0.496094 82.003906 Z M 0.496094 0 " clip-rule="nonzero"/></clipPath></defs><g clip-path="url(#id1)"><path fill="rgb(100%, 100%, 100%)" d="M 0.496094 0 L 164.503906 0 L 164.503906 89.457031 L 0.496094 89.457031 Z M 0.496094 0 " fill-opacity="1" fill-rule="nonzero"/><path fill="rgb(100%, 100%, 100%)" d="M 0.496094 0 L 164.503906 0 L 164.503906 82.003906 L 0.496094 82.003906 Z M 0.496094 0 " fill-opacity="1" fill-rule="nonzero"/><path fill="rgb(100%, 100%, 100%)" d="M 0.496094 0 L 164.503906 0 L 164.503906 82.003906 L 0.496094 82.003906 Z M 0.496094 0 " fill-opacity="1" fill-rule="nonzero"/><path fill="rgb(100%, 100%, 100%)" d="M 0.496094 0 L 164.503906 0 L 164.503906 82.003906 L 0.496094 82.003906 Z M 0.496094 0 " fill-opacity="1" fill-rule="nonzero"/></g><path fill="rgb(11.759949%, 52.159119%, 76.078796%)" d="M 33.960938 44.402344 L 33.960938 54.171875 L 12.566406 54.171875 L 12.566406 37.777344 L 23.261719 27.082031 L 29.820312 33.640625 L 33.394531 30.0625 L 23.261719 19.898438 L 7.480469 35.671875 L 7.480469 54.367188 C 7.480469 57.066406 9.671875 59.253906 12.371094 59.253906 L 39.042969 59.253906 L 39.042969 39.320312 Z M 33.960938 44.402344 " fill-opacity="1" fill-rule="nonzero"/><path fill="rgb(34.509277%, 77.648926%, 87.059021%)" d="M 20.714844 39.269531 L 18.316406 43.863281 L 15.363281 40.785156 L 18.8125 37.363281 Z M 20.714844 39.269531 " fill-opacity="1" fill-rule="nonzero"/><path fill="rgb(21.569824%, 66.668701%, 87.059021%)" d="M 25.957031 48.433594 L 24.425781 49.96875 L 18.316406 43.863281 L 20.714844 39.269531 L 24.425781 42.976562 Z M 25.957031 48.433594 " fill-opacity="1" fill-rule="nonzero"/><path fill="rgb(47.839355%, 45.878601%, 68.238831%)" d="M 26.394531 48 L 25.957031 48.433594 L 24.425781 42.976562 L 26.179688 41.21875 Z M 26.394531 48 " fill-opacity="1" fill-rule="nonzero"/><path fill="rgb(65.879822%, 30.589294%, 59.609985%)" d="M 36 38.394531 L 26.394531 48 L 26.179688 41.21875 L 29.878906 37.523438 Z M 36 38.394531 " fill-opacity="1" fill-rule="nonzero"/><path fill="rgb(90.19928%, 9.01947%, 52.159119%)" d="M 41.328125 33.070312 L 36 38.394531 L 29.878906 37.523438 L 39.433594 27.972656 Z M 41.328125 33.070312 " fill-opacity="1" fill-rule="nonzero"/><path fill="rgb(11.759949%, 52.159119%, 76.078796%)" d="M 62.363281 40.417969 C 61.546875 39.445312 60.367188 38.894531 58.84375 38.894531 C 55.746094 38.894531 53.460938 41.414062 53.460938 44.878906 C 53.460938 48.34375 55.746094 50.863281 58.714844 50.863281 C 60.367188 50.863281 61.707031 50.128906 62.546875 48.867188 L 65.960938 51.414062 C 64.410156 53.621094 61.785156 54.644531 59.238281 54.644531 C 53.433594 54.644531 49.207031 50.839844 49.207031 44.878906 C 49.207031 38.921875 53.433594 35.113281 59.238281 35.113281 C 61.3125 35.113281 63.9375 35.824219 65.515625 37.84375 Z M 62.363281 40.417969 " fill-opacity="1" fill-rule="nonzero"/><path fill="rgb(11.759949%, 52.159119%, 76.078796%)" d="M 76.785156 40.996094 L 74.527344 46.769531 L 79.070312 46.769531 Z M 75.207031 35.585938 L 78.59375 35.585938 L 86.683594 54.171875 L 82.0625 54.171875 L 80.460938 50.234375 L 73.238281 50.234375 L 71.6875 54.171875 L 67.171875 54.171875 Z M 75.207031 35.585938 " fill-opacity="1" fill-rule="nonzero"/><path fill="rgb(11.759949%, 52.159119%, 76.078796%)" d="M 98.605469 40.128906 C 97.949219 39.289062 96.636719 38.894531 95.636719 38.894531 C 94.480469 38.894531 92.882812 39.417969 92.882812 40.808594 C 92.882812 44.195312 101.441406 42.019531 101.441406 48.527344 C 101.441406 52.675781 98.105469 54.644531 94.273438 54.644531 C 91.882812 54.644531 89.78125 53.933594 88.023438 52.308594 L 90.9375 49.105469 C 91.777344 50.207031 93.144531 50.863281 94.507812 50.863281 C 95.847656 50.863281 97.34375 50.234375 97.34375 48.921875 C 97.34375 45.507812 88.625 47.347656 88.625 41.152344 C 88.625 37.1875 92.066406 35.113281 95.714844 35.113281 C 97.816406 35.113281 99.839844 35.664062 101.414062 37.058594 Z M 98.605469 40.128906 " fill-opacity="1" fill-rule="nonzero"/><path fill="rgb(11.759949%, 52.159119%, 76.078796%)" d="M 112.179688 40.996094 L 109.921875 46.769531 L 114.464844 46.769531 Z M 110.605469 35.585938 L 113.992188 35.585938 L 122.082031 54.171875 L 117.457031 54.171875 L 115.859375 50.234375 L 108.636719 50.234375 L 107.085938 54.171875 L 102.570312 54.171875 Z M 110.605469 35.585938 " fill-opacity="1" fill-rule="nonzero"/><path fill="rgb(11.759949%, 52.159119%, 76.078796%)" d="M 148.386719 50.863281 C 144.898438 50.863281 142.613281 48.335938 142.613281 44.875 C 142.613281 41.40625 144.898438 38.890625 148.386719 38.890625 C 151.882812 38.890625 154.167969 41.40625 154.167969 44.875 C 154.167969 48.335938 151.882812 50.863281 148.386719 50.863281 Z M 148.386719 35.105469 C 142.589844 35.105469 138.359375 38.921875 138.359375 44.875 C 138.359375 50.832031 142.589844 54.640625 148.386719 54.640625 C 154.195312 54.640625 158.421875 50.832031 158.421875 44.875 C 158.421875 38.921875 154.195312 35.105469 148.386719 35.105469 Z M 148.386719 35.105469 " fill-opacity="1" fill-rule="nonzero"/><path fill="rgb(21.569824%, 66.668701%, 87.059021%)" d="M 128.199219 46.941406 L 128.199219 54.183594 L 126.746094 54.183594 L 124.503906 48.371094 L 127.339844 44.703125 L 128.085938 46.648438 Z M 128.199219 46.941406 " fill-opacity="1" fill-rule="nonzero"/><path fill="rgb(47.839355%, 45.878601%, 68.238831%)" d="M 132.609375 47.761719 L 129.980469 54.183594 L 128.199219 54.183594 L 128.199219 46.945312 L 128.558594 47.871094 L 128.609375 47.871094 L 130.066406 44.09375 Z M 132.609375 47.761719 " fill-opacity="1" fill-rule="nonzero"/><path fill="rgb(65.879822%, 30.589294%, 59.609985%)" d="M 137.429688 35.976562 L 137.027344 36.960938 L 132.886719 47.078125 L 132.609375 47.761719 L 130.066406 44.09375 L 130.222656 43.6875 L 131.890625 39.355469 L 131.984375 39.113281 Z M 137.429688 35.976562 " fill-opacity="1" fill-rule="nonzero"/><path fill="rgb(90.19928%, 9.01947%, 52.159119%)" d="M 138.402344 33.601562 L 137.429688 35.976562 L 131.984375 39.113281 L 134.105469 33.601562 Z M 138.402344 33.601562 " fill-opacity="1" fill-rule="nonzero"/><path fill="rgb(34.509277%, 77.648926%, 87.059021%)" d="M 127.339844 44.703125 L 124.503906 48.371094 L 121.691406 41.085938 L 125.945312 41.085938 Z M 127.339844 44.703125 " fill-opacity="1" fill-rule="nonzero"/><path fill="rgb(34.509277%, 77.648926%, 87.059021%)" d="M 127.339844 44.703125 L 125.945312 41.085938 L 126 41.085938 Z M 127.339844 44.703125 " fill-opacity="1" fill-rule="nonzero"/></svg>