<svg xmlns="http://www.w3.org/2000/svg" xmlns:xlink="http://www.w3.org/1999/xlink" width="220" zoomAndPan="magnify" viewBox="0 0 165 82.499998" height="110" preserveAspectRatio="xMidYMid meet" version="1.0"><defs><clipPath id="id1"><path d="M 0.496094 0 L 164.503906 0 L 164.503906 82.003906 L 0.496094 82.003906 Z M 0.496094 0 " clip-rule="nonzero"/></clipPath><clipPath id="id2"><path d="M 8.699219 29.835938 L 24 29.835938 L 24 47 L 8.699219 47 Z M 8.699219 29.835938 " clip-rule="nonzero"/></clipPath><clipPath id="id3"><path d="M 85 30 L 104 30 L 104 52.199219 L 85 52.199219 Z M 85 30 " clip-rule="nonzero"/></clipPath><clipPath id="id4"><path d="M 150 29.835938 L 156.300781 29.835938 L 156.300781 36 L 150 36 Z M 150 29.835938 " clip-rule="nonzero"/></clipPath></defs><g clip-path="url(#id1)"><path fill="rgb(100%, 100%, 100%)" d="M 0.496094 0 L 164.503906 0 L 164.503906 89.457031 L 0.496094 89.457031 Z M 0.496094 0 " fill-opacity="1" fill-rule="nonzero"/><path fill="rgb(100%, 100%, 100%)" d="M 0.496094 0 L 164.503906 0 L 164.503906 82.003906 L 0.496094 82.003906 Z M 0.496094 0 " fill-opacity="1" fill-rule="nonzero"/><path fill="rgb(100%, 100%, 100%)" d="M 0.496094 0 L 164.503906 0 L 164.503906 82.003906 L 0.496094 82.003906 Z M 0.496094 0 " fill-opacity="1" fill-rule="nonzero"/><path fill="rgb(100%, 100%, 100%)" d="M 0.496094 0 L 164.503906 0 L 164.503906 82.003906 L 0.496094 82.003906 Z M 0.496094 0 " fill-opacity="1" fill-rule="nonzero"/></g><g clip-path="url(#id2)"><path fill="rgb(57.249451%, 63.529968%, 66.668701%)" d="M 17.140625 44.75 C 17.664062 44.765625 18.175781 44.699219 18.679688 44.558594 C 19.183594 44.417969 19.652344 44.203125 20.09375 43.921875 C 20.53125 43.636719 20.921875 43.296875 21.257812 42.894531 C 21.59375 42.496094 21.863281 42.054688 22.070312 41.574219 C 22.097656 41.507812 22.148438 41.472656 22.222656 41.46875 L 23.785156 41.46875 C 23.847656 41.472656 23.898438 41.496094 23.929688 41.550781 C 23.964844 41.601562 23.972656 41.65625 23.949219 41.714844 C 23.441406 43.113281 22.585938 44.25 21.382812 45.121094 C 19.988281 46.109375 18.4375 46.585938 16.726562 46.546875 C 15.640625 46.585938 14.59375 46.390625 13.59375 45.964844 C 12.589844 45.539062 11.726562 44.921875 10.996094 44.109375 C 10.292969 43.289062 9.761719 42.367188 9.402344 41.347656 C 9.046875 40.324219 8.886719 39.273438 8.925781 38.195312 C 8.886719 37.113281 9.046875 36.0625 9.402344 35.039062 C 9.761719 34.019531 10.292969 33.097656 10.996094 32.277344 C 11.722656 31.464844 12.589844 30.847656 13.589844 30.417969 C 14.59375 29.992188 15.640625 29.796875 16.726562 29.835938 C 18.4375 29.796875 19.988281 30.277344 21.382812 31.265625 C 22.585938 32.136719 23.441406 33.269531 23.949219 34.667969 C 23.972656 34.726562 23.964844 34.78125 23.929688 34.832031 C 23.898438 34.882812 23.847656 34.910156 23.785156 34.914062 L 22.222656 34.914062 C 22.148438 34.914062 22.097656 34.878906 22.070312 34.808594 C 21.863281 34.328125 21.59375 33.890625 21.253906 33.488281 C 20.917969 33.089844 20.53125 32.75 20.089844 32.464844 C 19.652344 32.183594 19.179688 31.972656 18.679688 31.832031 C 18.175781 31.6875 17.664062 31.625 17.140625 31.636719 C 16.148438 31.605469 15.191406 31.773438 14.265625 32.144531 C 13.519531 32.464844 12.878906 32.925781 12.339844 33.535156 C 11.792969 34.1875 11.382812 34.914062 11.113281 35.714844 C 10.839844 36.519531 10.71875 37.347656 10.757812 38.195312 C 10.722656 39.042969 10.839844 39.867188 11.113281 40.671875 C 11.386719 41.476562 11.792969 42.203125 12.339844 42.851562 C 13.445312 44.113281 15.046875 44.746094 17.140625 44.75 Z M 17.140625 44.75 " fill-opacity="1" fill-rule="nonzero"/></g><path fill="rgb(57.249451%, 63.529968%, 66.668701%)" d="M 31.230469 44.964844 C 31.914062 45.003906 32.558594 44.855469 33.15625 44.515625 C 33.753906 44.175781 34.210938 43.703125 34.527344 43.089844 C 34.558594 43.035156 34.609375 43.003906 34.671875 43 L 36.207031 43 C 36.269531 43 36.320312 43.027344 36.355469 43.082031 C 36.390625 43.132812 36.394531 43.191406 36.367188 43.25 C 35.980469 44.1875 35.378906 44.960938 34.566406 45.566406 C 33.554688 46.277344 32.433594 46.601562 31.203125 46.546875 C 30.402344 46.574219 29.628906 46.4375 28.890625 46.132812 C 28.148438 45.828125 27.503906 45.382812 26.953125 44.800781 C 26.417969 44.21875 26.015625 43.558594 25.738281 42.820312 C 25.460938 42.082031 25.335938 41.316406 25.363281 40.527344 C 25.332031 39.746094 25.449219 38.984375 25.710938 38.246094 C 25.972656 37.507812 26.363281 36.84375 26.882812 36.257812 C 27.421875 35.671875 28.058594 35.226562 28.789062 34.917969 C 29.523438 34.613281 30.289062 34.476562 31.082031 34.503906 C 31.878906 34.472656 32.640625 34.613281 33.378906 34.917969 C 34.113281 35.222656 34.75 35.671875 35.289062 36.257812 C 35.804688 36.84375 36.195312 37.507812 36.457031 38.246094 C 36.71875 38.984375 36.835938 39.746094 36.808594 40.527344 L 36.808594 41.074219 C 36.808594 41.199219 36.753906 41.253906 36.628906 41.253906 L 27.144531 41.253906 C 27.238281 42.296875 27.660156 43.183594 28.414062 43.914062 C 29.207031 44.660156 30.144531 45.007812 31.230469 44.964844 Z M 31.085938 36.09375 C 30.0625 36.066406 29.171875 36.398438 28.414062 37.09375 C 27.703125 37.777344 27.285156 38.613281 27.164062 39.59375 L 35.003906 39.59375 C 34.882812 38.613281 34.46875 37.777344 33.753906 37.09375 C 33 36.402344 32.113281 36.066406 31.085938 36.09375 Z M 31.085938 36.09375 " fill-opacity="1" fill-rule="nonzero"/><path fill="rgb(57.249451%, 63.529968%, 66.668701%)" d="M 40.667969 34.871094 L 40.667969 36.5 C 41.089844 35.933594 41.597656 35.460938 42.191406 35.074219 C 42.820312 34.679688 43.5 34.488281 44.242188 34.503906 C 44.921875 34.488281 45.582031 34.597656 46.222656 34.832031 C 46.785156 35.050781 47.273438 35.382812 47.683594 35.820312 C 48.175781 36.320312 48.542969 36.894531 48.796875 37.546875 C 49.046875 38.199219 49.160156 38.871094 49.128906 39.570312 L 49.128906 46.1875 C 49.128906 46.304688 49.074219 46.363281 48.957031 46.363281 L 47.5625 46.363281 C 47.445312 46.363281 47.386719 46.304688 47.386719 46.1875 L 47.386719 39.628906 C 47.4375 38.652344 47.136719 37.792969 46.484375 37.0625 C 45.851562 36.394531 45.074219 36.074219 44.152344 36.109375 C 43.921875 36.105469 43.691406 36.121094 43.464844 36.164062 C 43.238281 36.207031 43.015625 36.269531 42.800781 36.355469 C 42.585938 36.445312 42.382812 36.550781 42.1875 36.679688 C 41.996094 36.808594 41.816406 36.953125 41.65625 37.121094 C 41.492188 37.285156 41.347656 37.464844 41.21875 37.65625 C 41.09375 37.851562 40.988281 38.058594 40.902344 38.273438 C 40.816406 38.488281 40.753906 38.710938 40.714844 38.941406 C 40.675781 39.167969 40.660156 39.398438 40.667969 39.628906 L 40.667969 46.160156 C 40.667969 46.277344 40.609375 46.335938 40.492188 46.335938 L 39.113281 46.335938 C 38.996094 46.335938 38.9375 46.277344 38.9375 46.160156 L 38.9375 34.871094 C 38.933594 34.75 38.992188 34.691406 39.113281 34.691406 L 40.492188 34.691406 C 40.613281 34.691406 40.667969 34.75 40.667969 34.871094 Z M 40.667969 34.871094 " fill-opacity="1" fill-rule="nonzero"/><path fill="rgb(57.249451%, 63.529968%, 66.668701%)" d="M 53.25 46.1875 L 53.25 36.230469 L 51.074219 36.230469 C 50.960938 36.230469 50.902344 36.171875 50.902344 36.054688 L 50.902344 34.871094 C 50.902344 34.753906 50.960938 34.691406 51.074219 34.691406 L 53.25 34.691406 L 53.25 30.925781 C 53.246094 30.804688 53.304688 30.746094 53.421875 30.746094 L 54.800781 30.746094 C 54.921875 30.746094 54.980469 30.804688 54.976562 30.925781 L 54.976562 34.691406 L 57.460938 34.691406 C 57.574219 34.691406 57.632812 34.753906 57.632812 34.871094 L 57.632812 36.054688 C 57.632812 36.171875 57.574219 36.230469 57.460938 36.230469 L 54.976562 36.230469 L 54.976562 46.1875 C 54.976562 46.304688 54.917969 46.363281 54.800781 46.363281 L 53.421875 46.363281 C 53.308594 46.363281 53.25 46.304688 53.25 46.1875 Z M 53.25 46.1875 " fill-opacity="1" fill-rule="nonzero"/><path fill="rgb(57.249451%, 63.529968%, 66.668701%)" d="M 65.429688 34.503906 C 65.550781 34.503906 65.609375 34.5625 65.609375 34.683594 L 65.609375 36.070312 C 65.609375 36.191406 65.550781 36.25 65.429688 36.246094 C 63.800781 36.203125 61.246094 37.691406 61.246094 41.226562 L 61.246094 46.1875 C 61.246094 46.304688 61.1875 46.363281 61.074219 46.363281 L 59.699219 46.363281 C 59.582031 46.363281 59.523438 46.304688 59.523438 46.1875 L 59.523438 34.871094 C 59.523438 34.753906 59.582031 34.691406 59.699219 34.691406 L 61.082031 34.691406 C 61.199219 34.691406 61.257812 34.753906 61.257812 34.871094 L 61.257812 37.5625 C 61.390625 37.113281 61.589844 36.699219 61.859375 36.316406 C 62.128906 35.933594 62.449219 35.601562 62.828125 35.328125 C 63.203125 35.050781 63.617188 34.84375 64.0625 34.703125 C 64.507812 34.5625 64.960938 34.496094 65.429688 34.503906 Z M 65.429688 34.503906 " fill-opacity="1" fill-rule="nonzero"/><path fill="rgb(57.249451%, 63.529968%, 66.668701%)" d="M 76.484375 44.496094 C 76.027344 45.179688 75.429688 45.703125 74.691406 46.070312 C 73.957031 46.4375 73.175781 46.59375 72.355469 46.546875 C 71.582031 46.570312 70.839844 46.429688 70.132812 46.125 C 69.421875 45.820312 68.808594 45.378906 68.292969 44.800781 C 67.78125 44.207031 67.394531 43.542969 67.132812 42.808594 C 66.871094 42.070312 66.75 41.308594 66.773438 40.527344 C 66.75 39.746094 66.867188 38.984375 67.128906 38.25 C 67.394531 37.511719 67.78125 36.847656 68.292969 36.257812 C 68.828125 35.664062 69.460938 35.214844 70.195312 34.910156 C 70.933594 34.601562 71.695312 34.46875 72.492188 34.503906 C 73.296875 34.46875 74.058594 34.640625 74.777344 35.007812 C 75.492188 35.378906 76.070312 35.90625 76.507812 36.582031 L 76.507812 34.871094 C 76.507812 34.75 76.566406 34.691406 76.6875 34.691406 L 78.066406 34.691406 C 78.1875 34.691406 78.246094 34.75 78.242188 34.871094 L 78.242188 46.1875 C 78.242188 46.304688 78.183594 46.363281 78.066406 46.363281 L 76.6875 46.363281 C 76.566406 46.367188 76.507812 46.308594 76.507812 46.1875 Z M 72.585938 44.964844 C 73.152344 44.988281 73.695312 44.886719 74.214844 44.65625 C 74.738281 44.425781 75.179688 44.089844 75.539062 43.652344 C 76.277344 42.742188 76.625 41.699219 76.578125 40.527344 C 76.625 39.355469 76.277344 38.3125 75.539062 37.398438 C 75.175781 36.960938 74.734375 36.628906 74.214844 36.398438 C 73.695312 36.167969 73.152344 36.066406 72.585938 36.09375 C 72.011719 36.074219 71.464844 36.179688 70.9375 36.40625 C 70.414062 36.636719 69.960938 36.964844 69.585938 37.398438 C 68.816406 38.300781 68.457031 39.34375 68.5 40.527344 C 68.457031 41.710938 68.820312 42.75 69.585938 43.652344 C 69.960938 44.085938 70.410156 44.417969 70.9375 44.648438 C 71.460938 44.875 72.011719 44.980469 72.585938 44.964844 Z M 72.585938 44.964844 " fill-opacity="1" fill-rule="nonzero"/><path fill="rgb(57.249451%, 63.529968%, 66.668701%)" d="M 82.777344 46.363281 L 81.398438 46.363281 C 81.277344 46.367188 81.21875 46.308594 81.21875 46.1875 L 81.21875 30.199219 C 81.21875 30.082031 81.277344 30.019531 81.398438 30.019531 L 82.777344 30.019531 C 82.898438 30.019531 82.953125 30.082031 82.949219 30.199219 L 82.949219 46.1875 C 82.949219 46.304688 82.894531 46.363281 82.777344 46.363281 Z M 82.777344 46.363281 " fill-opacity="1" fill-rule="nonzero"/><path fill="rgb(89.019775%, 26.269531%, 34.509277%)" d="M 105.992188 34.449219 C 105.191406 34.425781 104.421875 34.566406 103.683594 34.875 C 102.945312 35.1875 102.304688 35.636719 101.761719 36.222656 C 101.242188 36.8125 100.851562 37.476562 100.585938 38.214844 C 100.320312 38.953125 100.203125 39.714844 100.226562 40.5 C 100.203125 41.292969 100.332031 42.058594 100.609375 42.796875 C 100.886719 43.539062 101.292969 44.199219 101.832031 44.777344 C 102.382812 45.367188 103.03125 45.816406 103.773438 46.125 C 104.519531 46.433594 105.296875 46.574219 106.101562 46.546875 C 106.714844 46.570312 107.316406 46.492188 107.90625 46.3125 C 108.492188 46.132812 109.039062 45.863281 109.535156 45.503906 C 110.035156 45.144531 110.460938 44.710938 110.816406 44.210938 C 111.171875 43.707031 111.4375 43.160156 111.609375 42.570312 C 111.625 42.511719 111.613281 42.460938 111.578125 42.417969 C 111.542969 42.371094 111.5 42.347656 111.441406 42.347656 L 109.105469 42.347656 C 109.027344 42.34375 108.976562 42.378906 108.949219 42.449219 C 108.707031 43 108.328125 43.433594 107.816406 43.746094 C 107.304688 44.0625 106.75 44.203125 106.148438 44.167969 C 105.257812 44.203125 104.488281 43.914062 103.847656 43.292969 C 103.359375 42.828125 103.039062 42.265625 102.882812 41.605469 L 111.609375 41.605469 C 111.722656 41.601562 111.78125 41.542969 111.785156 41.429688 L 111.785156 40.5 C 111.808594 39.714844 111.691406 38.953125 111.425781 38.210938 C 111.160156 37.472656 110.765625 36.808594 110.246094 36.21875 C 109.699219 35.628906 109.054688 35.179688 108.3125 34.871094 C 107.570312 34.5625 106.796875 34.421875 105.992188 34.449219 Z M 105.992188 36.832031 C 106.828125 36.808594 107.550781 37.078125 108.164062 37.644531 C 108.617188 38.066406 108.917969 38.578125 109.074219 39.179688 L 102.917969 39.179688 C 103.074219 38.582031 103.378906 38.070312 103.824219 37.644531 C 104.4375 37.082031 105.160156 36.808594 105.992188 36.832031 Z M 105.992188 36.832031 " fill-opacity="1" fill-rule="nonzero"/><path fill="rgb(89.019775%, 26.269531%, 34.509277%)" d="M 122.308594 35.632812 C 121.375 34.808594 120.289062 34.417969 119.046875 34.449219 C 118.25 34.421875 117.480469 34.5625 116.742188 34.875 C 116.007812 35.183594 115.371094 35.636719 114.832031 36.230469 C 114.316406 36.820312 113.929688 37.484375 113.664062 38.222656 C 113.402344 38.957031 113.277344 39.71875 113.300781 40.5 C 113.277344 41.285156 113.402344 42.042969 113.664062 42.78125 C 113.929688 43.519531 114.316406 44.183594 114.832031 44.773438 C 115.351562 45.359375 115.96875 45.804688 116.6875 46.117188 C 117.40625 46.425781 118.15625 46.570312 118.9375 46.546875 C 120.21875 46.597656 121.351562 46.210938 122.328125 45.382812 L 122.328125 46.199219 C 122.324219 46.316406 122.382812 46.378906 122.503906 46.378906 L 124.675781 46.378906 C 124.796875 46.378906 124.855469 46.316406 124.851562 46.199219 L 124.851562 34.769531 C 124.832031 34.652344 124.765625 34.605469 124.648438 34.625 L 122.476562 34.625 C 122.359375 34.625 122.300781 34.683594 122.300781 34.796875 Z M 121.535156 37.890625 C 122.152344 38.652344 122.4375 39.523438 122.394531 40.5 C 122.4375 41.480469 122.152344 42.351562 121.535156 43.113281 C 121.242188 43.46875 120.882812 43.738281 120.460938 43.921875 C 120.035156 44.109375 119.59375 44.191406 119.132812 44.167969 C 118.664062 44.183594 118.214844 44.097656 117.78125 43.90625 C 117.351562 43.714844 116.984375 43.441406 116.679688 43.082031 C 116.039062 42.332031 115.742188 41.464844 115.789062 40.480469 C 115.742188 39.492188 116.039062 38.625 116.679688 37.871094 C 116.984375 37.515625 117.351562 37.238281 117.78125 37.046875 C 118.214844 36.859375 118.664062 36.769531 119.132812 36.785156 C 119.601562 36.765625 120.042969 36.855469 120.464844 37.050781 C 120.890625 37.246094 121.246094 37.523438 121.535156 37.890625 Z M 121.535156 37.890625 " fill-opacity="1" fill-rule="nonzero"/><path fill="rgb(89.019775%, 26.269531%, 34.509277%)" d="M 130.929688 37.117188 C 131.429688 36.914062 131.953125 36.816406 132.496094 36.832031 C 132.792969 36.835938 133.082031 36.886719 133.359375 36.980469 C 133.640625 37.078125 133.902344 37.214844 134.140625 37.394531 C 134.375 37.574219 134.582031 37.785156 134.75 38.027344 C 134.921875 38.269531 135.046875 38.535156 135.132812 38.820312 C 135.160156 38.898438 135.210938 38.9375 135.292969 38.9375 L 137.601562 38.9375 C 137.65625 38.9375 137.703125 38.917969 137.738281 38.871094 C 137.773438 38.828125 137.785156 38.777344 137.769531 38.722656 C 137.621094 38.09375 137.371094 37.511719 137.019531 36.972656 C 136.667969 36.429688 136.234375 35.96875 135.722656 35.578125 C 135.210938 35.1875 134.644531 34.894531 134.03125 34.703125 C 133.417969 34.507812 132.789062 34.425781 132.148438 34.449219 C 131.355469 34.429688 130.597656 34.570312 129.871094 34.882812 C 129.140625 35.191406 128.511719 35.640625 127.980469 36.222656 C 127.457031 36.8125 127.0625 37.472656 126.792969 38.214844 C 126.523438 38.953125 126.402344 39.714844 126.425781 40.5 C 126.402344 41.289062 126.523438 42.050781 126.792969 42.789062 C 127.0625 43.527344 127.457031 44.191406 127.980469 44.777344 C 128.511719 45.363281 129.140625 45.8125 129.867188 46.121094 C 130.597656 46.429688 131.355469 46.570312 132.148438 46.546875 C 132.789062 46.566406 133.414062 46.480469 134.027344 46.285156 C 134.640625 46.089844 135.199219 45.800781 135.710938 45.410156 C 136.226562 45.023438 136.65625 44.558594 137.011719 44.023438 C 137.363281 43.484375 137.617188 42.90625 137.769531 42.28125 C 137.78125 42.226562 137.769531 42.175781 137.734375 42.128906 C 137.699219 42.085938 137.652344 42.0625 137.597656 42.0625 L 135.292969 42.0625 C 135.210938 42.0625 135.160156 42.101562 135.132812 42.175781 C 135.046875 42.460938 134.917969 42.726562 134.75 42.96875 C 134.578125 43.210938 134.375 43.421875 134.136719 43.601562 C 133.898438 43.78125 133.640625 43.917969 133.359375 44.015625 C 133.078125 44.113281 132.789062 44.164062 132.496094 44.167969 C 131.996094 44.195312 131.515625 44.113281 131.054688 43.921875 C 130.59375 43.730469 130.199219 43.453125 129.863281 43.082031 C 129.207031 42.339844 128.894531 41.472656 128.929688 40.480469 C 128.894531 39.484375 129.207031 38.613281 129.871094 37.871094 C 130.167969 37.542969 130.523438 37.292969 130.929688 37.117188 Z M 130.929688 37.117188 " fill-opacity="1" fill-rule="nonzero"/><path fill="rgb(89.019775%, 26.269531%, 34.509277%)" d="M 148.335938 35.820312 C 147.90625 35.367188 147.402344 35.027344 146.820312 34.796875 C 146.171875 34.5625 145.503906 34.453125 144.816406 34.464844 C 144.03125 34.453125 143.304688 34.65625 142.644531 35.082031 C 142.386719 35.246094 142.148438 35.425781 141.921875 35.625 L 141.921875 30.199219 C 141.921875 30.085938 141.863281 30.023438 141.746094 30.019531 L 139.574219 30.019531 C 139.453125 30.019531 139.394531 30.082031 139.398438 30.199219 L 139.398438 46.199219 C 139.394531 46.316406 139.453125 46.378906 139.574219 46.378906 L 141.746094 46.378906 C 141.863281 46.375 141.921875 46.316406 141.921875 46.199219 L 141.921875 39.667969 C 141.902344 39.289062 141.964844 38.917969 142.101562 38.566406 C 142.242188 38.210938 142.445312 37.898438 142.714844 37.628906 C 142.984375 37.359375 143.292969 37.15625 143.648438 37.015625 C 144.003906 36.878906 144.371094 36.816406 144.75 36.832031 C 145.476562 36.800781 146.089844 37.050781 146.59375 37.578125 C 147.097656 38.167969 147.328125 38.855469 147.28125 39.628906 L 147.28125 46.160156 C 147.28125 46.277344 147.339844 46.335938 147.457031 46.339844 L 149.628906 46.339844 C 149.746094 46.335938 149.800781 46.277344 149.796875 46.160156 L 149.796875 39.628906 C 149.828125 38.921875 149.714844 38.238281 149.460938 37.574219 C 149.207031 36.914062 148.832031 36.328125 148.335938 35.820312 Z M 148.335938 35.820312 " fill-opacity="1" fill-rule="nonzero"/><g clip-path="url(#id3)"><path fill="rgb(89.019775%, 26.269531%, 34.509277%)" d="M 103.144531 51.921875 L 95.539062 40.210938 C 98.429688 39.488281 99.34375 37.371094 99.34375 35.316406 C 99.371094 34.589844 99.246094 33.890625 98.96875 33.21875 C 98.6875 32.546875 98.285156 31.960938 97.75 31.46875 C 97.195312 30.972656 96.570312 30.601562 95.871094 30.351562 C 95.171875 30.101562 94.449219 29.992188 93.707031 30.027344 L 86.101562 30.027344 C 85.988281 30.03125 85.929688 30.085938 85.929688 30.199219 L 85.929688 46.191406 C 85.929688 46.308594 85.984375 46.367188 86.101562 46.367188 L 88.4375 46.367188 C 88.554688 46.367188 88.613281 46.308594 88.613281 46.191406 L 88.613281 40.46875 L 92.648438 40.46875 L 92.601562 40.46875 L 100.074219 52.144531 C 100.109375 52.199219 100.160156 52.226562 100.222656 52.226562 L 103 52.226562 C 103.085938 52.246094 103.152344 52.214844 103.191406 52.132812 C 103.230469 52.050781 103.214844 51.980469 103.144531 51.921875 Z M 88.632812 32.644531 L 93.523438 32.644531 C 94.386719 32.597656 95.15625 32.84375 95.832031 33.378906 C 96.417969 33.894531 96.691406 34.542969 96.648438 35.320312 C 96.667969 35.753906 96.578125 36.164062 96.375 36.550781 C 95.832031 37.425781 94.886719 37.851562 93.429688 37.851562 L 88.65625 37.851562 Z M 88.632812 32.644531 " fill-opacity="1" fill-rule="nonzero"/></g><g clip-path="url(#id4)"><path fill="rgb(57.249451%, 63.529968%, 66.668701%)" d="M 150.25 32.789062 C 150.25 32.269531 150.378906 31.785156 150.636719 31.332031 C 150.894531 30.878906 151.25 30.523438 151.703125 30.261719 C 152.152344 30.003906 152.640625 29.875 153.160156 29.875 C 153.679688 29.875 154.164062 30.003906 154.617188 30.261719 C 155.066406 30.523438 155.421875 30.875 155.683594 31.328125 C 155.9375 31.773438 156.066406 32.257812 156.066406 32.773438 C 156.066406 33.289062 155.9375 33.773438 155.683594 34.222656 C 155.523438 34.5 155.324219 34.742188 155.082031 34.953125 C 154.84375 35.164062 154.574219 35.332031 154.28125 35.453125 C 153.984375 35.578125 153.679688 35.648438 153.359375 35.671875 C 153.042969 35.695312 152.730469 35.664062 152.421875 35.582031 C 152.113281 35.5 151.824219 35.371094 151.558594 35.195312 C 151.292969 35.019531 151.058594 34.804688 150.863281 34.554688 C 150.667969 34.300781 150.515625 34.023438 150.410156 33.722656 C 150.304688 33.421875 150.253906 33.109375 150.25 32.789062 Z M 150.726562 32.789062 C 150.726562 33.226562 150.835938 33.632812 151.054688 34.007812 C 151.269531 34.386719 151.566406 34.683594 151.945312 34.902344 C 152.320312 35.121094 152.726562 35.230469 153.160156 35.226562 C 153.601562 35.230469 154.007812 35.121094 154.382812 34.894531 C 154.757812 34.679688 155.054688 34.378906 155.273438 34.003906 C 155.492188 33.625 155.597656 33.21875 155.597656 32.785156 C 155.597656 32.351562 155.492188 31.945312 155.273438 31.566406 C 155.054688 31.1875 154.757812 30.890625 154.378906 30.675781 C 154.003906 30.457031 153.597656 30.347656 153.160156 30.347656 C 152.726562 30.347656 152.324219 30.457031 151.949219 30.675781 C 151.574219 30.890625 151.277344 31.1875 151.058594 31.5625 C 150.832031 31.941406 150.722656 32.347656 150.726562 32.789062 Z M 154.339844 32.097656 C 154.355469 32.300781 154.304688 32.484375 154.195312 32.652344 C 154.085938 32.820312 153.9375 32.9375 153.746094 33.003906 L 154.667969 34.542969 L 153.851562 34.542969 L 153.105469 33.199219 L 152.757812 33.199219 L 152.757812 34.542969 L 152.027344 34.542969 L 152.027344 31.039062 L 153.042969 31.039062 C 153.402344 31.007812 153.734375 31.097656 154.03125 31.304688 C 154.261719 31.519531 154.363281 31.785156 154.339844 32.097656 Z M 152.757812 32.644531 L 153.027344 32.644531 C 153.1875 32.65625 153.332031 32.609375 153.460938 32.507812 C 153.566406 32.402344 153.617188 32.273438 153.605469 32.121094 C 153.625 31.96875 153.578125 31.835938 153.464844 31.730469 C 153.328125 31.640625 153.175781 31.605469 153.015625 31.621094 L 152.757812 31.621094 Z M 152.757812 32.644531 " fill-opacity="1" fill-rule="nonzero"/></g></svg>