<?xml version="1.0" encoding="UTF-8"?>
<svg xmlns="http://www.w3.org/2000/svg" xmlns:xlink="http://www.w3.org/1999/xlink" width="165pt" height="82.499998pt" viewBox="0 0 165 82.499998" version="1.2">
<defs>
<clipPath id="clip1">
  <path d="M 0.496094 0 L 164.503906 0 L 164.503906 82.003906 L 0.496094 82.003906 Z M 0.496094 0 "/>
</clipPath>
</defs>
<g id="surface1">
<g clip-path="url(#clip1)" clip-rule="nonzero">
<path style=" stroke:none;fill-rule:nonzero;fill:rgb(100%,100%,100%);fill-opacity:1;" d="M 0.496094 0 L 164.503906 0 L 164.503906 171.460938 L 0.496094 171.460938 Z M 0.496094 0 "/>
<path style=" stroke:none;fill-rule:nonzero;fill:rgb(100%,100%,100%);fill-opacity:1;" d="M 0.496094 0 L 164.503906 0 L 164.503906 82.003906 L 0.496094 82.003906 Z M 0.496094 0 "/>
<path style=" stroke:none;fill-rule:nonzero;fill:rgb(100%,100%,100%);fill-opacity:1;" d="M 0.496094 0 L 164.503906 0 L 164.503906 82.003906 L 0.496094 82.003906 Z M 0.496094 0 "/>
</g>
<path style=" stroke:none;fill-rule:nonzero;fill:rgb(100%,39.99939%,0%);fill-opacity:1;" d="M 56.589844 36.457031 L 53.898438 36.457031 L 53.898438 32.929688 L 56.589844 32.929688 C 56.589844 28.160156 58.28125 26.660156 63.027344 26.660156 C 63.890625 26.660156 64.820312 26.726562 65.714844 26.757812 L 65.714844 30.644531 C 65.183594 30.578125 64.71875 30.546875 64.222656 30.546875 C 62.960938 30.546875 62.164062 30.710938 62.164062 32.210938 L 62.164062 32.929688 L 65.480469 32.929688 L 65.480469 36.457031 L 62.164062 36.457031 L 62.164062 49.585938 L 56.621094 49.585938 Z M 56.589844 36.457031 "/>
<path style=" stroke:none;fill-rule:nonzero;fill:rgb(100%,39.99939%,0%);fill-opacity:1;" d="M 64.585938 38.089844 C 64.6875 35.902344 65.714844 34.496094 67.242188 33.617188 C 68.734375 32.765625 70.691406 32.472656 72.617188 32.472656 C 76.632812 32.472656 80.515625 33.320312 80.515625 38.058594 L 80.515625 45.339844 C 80.515625 46.742188 80.515625 48.277344 81.179688 49.617188 L 75.605469 49.617188 C 75.40625 49.09375 75.339844 48.605469 75.273438 48.050781 C 73.847656 49.519531 71.722656 50.109375 69.699219 50.109375 C 66.476562 50.109375 63.921875 48.507812 63.921875 45.078125 C 63.921875 39.65625 69.929688 40.082031 73.78125 39.296875 C 74.707031 39.101562 75.238281 38.777344 75.238281 37.761719 C 75.238281 36.523438 73.714844 36.03125 72.550781 36.03125 C 71.023438 36.03125 70.027344 36.71875 69.796875 38.121094 Z M 71.753906 46.710938 C 74.410156 46.710938 75.273438 45.242188 75.140625 41.8125 C 74.34375 42.300781 72.917969 42.402344 71.722656 42.695312 C 70.492188 42.988281 69.433594 43.511719 69.433594 44.816406 C 69.464844 46.15625 70.527344 46.710938 71.753906 46.710938 Z M 71.753906 46.710938 "/>
<path style=" stroke:none;fill-rule:nonzero;fill:rgb(100%,39.99939%,0%);fill-opacity:1;" d="M 92.5625 39.035156 C 92.53125 37.632812 91.269531 36.621094 89.84375 36.621094 C 86.757812 36.621094 86.257812 39.234375 86.257812 41.519531 C 86.257812 43.675781 87.1875 45.894531 89.542969 45.894531 C 91.46875 45.894531 92.429688 44.816406 92.695312 43.054688 L 98.074219 43.054688 C 97.574219 47.527344 94.058594 50.074219 89.578125 50.074219 C 84.5 50.074219 80.714844 46.644531 80.714844 41.550781 C 80.714844 36.261719 84.132812 32.472656 89.578125 32.472656 C 93.792969 32.472656 97.542969 34.660156 97.90625 39.035156 Z M 92.5625 39.035156 "/>
<path style=" stroke:none;fill-rule:nonzero;fill:rgb(100%,39.99939%,0%);fill-opacity:1;" d="M 104.015625 30.871094 L 98.472656 30.871094 L 98.472656 26.691406 L 104.015625 26.691406 Z M 98.472656 32.929688 L 104.015625 32.929688 L 104.015625 49.585938 L 98.472656 49.585938 Z M 98.472656 32.929688 "/>
<path style=" stroke:none;fill-rule:nonzero;fill:rgb(100%,39.99939%,0%);fill-opacity:1;" d="M 105.507812 26.691406 L 111.050781 26.691406 L 111.050781 49.585938 L 105.507812 49.585938 Z M 105.507812 26.691406 "/>
<path style=" stroke:none;fill-rule:nonzero;fill:rgb(100%,39.99939%,0%);fill-opacity:1;" d="M 117.089844 42.597656 C 117.191406 44.882812 118.515625 46.386719 120.875 46.386719 C 122.199219 46.386719 123.527344 45.765625 124.027344 44.554688 L 129.203125 44.554688 C 128.207031 48.410156 124.589844 50.074219 120.808594 50.074219 C 115.296875 50.074219 111.546875 46.808594 111.546875 41.226562 C 111.546875 36.128906 115.695312 32.472656 120.675781 32.472656 C 126.746094 32.472656 129.769531 36.980469 129.503906 42.597656 Z M 123.960938 39.558594 C 123.859375 37.699219 122.53125 36.164062 120.675781 36.164062 C 118.714844 36.164062 117.421875 37.535156 117.089844 39.558594 Z M 123.960938 39.558594 "/>
<path style=" stroke:none;fill-rule:nonzero;fill:rgb(100%,39.99939%,0%);fill-opacity:1;" d="M 129.933594 43.609375 L 136.007812 43.609375 L 136.007812 49.585938 L 129.933594 49.585938 Z M 129.933594 43.609375 "/>
<path style=" stroke:none;fill-rule:nonzero;fill:rgb(100%,39.99939%,0%);fill-opacity:1;" d="M 143.109375 30.871094 L 137.566406 30.871094 L 137.566406 26.691406 L 143.109375 26.691406 Z M 137.566406 32.929688 L 143.109375 32.929688 L 143.109375 49.585938 L 137.566406 49.585938 Z M 137.566406 32.929688 "/>
<path style=" stroke:none;fill-rule:nonzero;fill:rgb(100%,39.99939%,0%);fill-opacity:1;" d="M 154.59375 36.457031 L 151.175781 36.457031 L 151.175781 44.035156 C 151.175781 45.339844 151.972656 45.632812 153.164062 45.632812 C 153.628906 45.632812 154.128906 45.570312 154.59375 45.570312 L 154.59375 49.585938 C 153.597656 49.617188 152.570312 49.75 151.574219 49.75 C 146.859375 49.75 145.632812 48.410156 145.632812 43.871094 L 145.632812 36.457031 L 142.84375 36.457031 L 142.84375 32.929688 L 145.632812 32.929688 L 145.632812 27.902344 L 151.175781 27.902344 L 151.175781 32.929688 L 154.59375 32.929688 Z M 154.59375 36.457031 "/>
<path style=" stroke:none;fill-rule:nonzero;fill:rgb(100%,39.99939%,0%);fill-opacity:1;" d="M 49.1875 43.773438 C 49.1875 42.53125 49.1875 35.867188 49.1875 35.867188 C 49.1875 27.640625 42.417969 20.976562 34.054688 20.976562 L 25.058594 20.976562 C 16.695312 20.976562 9.925781 27.640625 9.925781 35.867188 L 9.925781 44.71875 C 9.925781 52.949219 16.695312 59.613281 25.058594 59.613281 L 54.5625 59.613281 C 54.5625 59.613281 49.1875 58.042969 49.1875 43.773438 Z M 23.929688 52.949219 C 21.410156 52.949219 19.285156 51.742188 17.921875 49.847656 C 17.09375 48.671875 16.628906 47.300781 16.628906 45.730469 L 16.628906 34.792969 C 16.628906 32.308594 17.855469 30.21875 19.78125 28.878906 C 20.976562 28.0625 22.371094 27.605469 23.929688 27.605469 L 35.082031 27.605469 C 37.605469 27.605469 39.761719 28.816406 41.089844 30.710938 C 41.917969 31.882812 42.382812 33.222656 42.382812 34.792969 C 42.382812 34.792969 42.382812 43.054688 42.382812 44.621094 C 42.382812 47.691406 42.550781 50.46875 42.882812 52.980469 Z M 23.929688 52.949219 "/>
<path style=" stroke:none;fill-rule:nonzero;fill:rgb(100%,39.99939%,0%);fill-opacity:1;" d="M 38.402344 42.464844 C 32.890625 45.011719 26.484375 45.011719 20.945312 42.464844 C 21.476562 41.324219 22.039062 40.210938 22.570312 39.070312 C 27.050781 41.160156 32.261719 41.160156 36.742188 39.070312 C 37.304688 40.210938 37.835938 41.355469 38.402344 42.464844 Z M 38.402344 42.464844 "/>
<path style="fill-rule:nonzero;fill:rgb(42.749023%,43.139648%,43.919373%);fill-opacity:1;stroke-width:0.1;stroke-linecap:butt;stroke-linejoin:miter;stroke:rgb(42.749023%,43.139648%,43.919373%);stroke-opacity:1;stroke-miterlimit:4;" d="M 143.999678 114.501142 L 153.203798 114.501142 C 156.499391 114.501142 159.300645 115.996275 159.300645 119.405178 C 159.300645 121.797391 157.994178 123.6992 155.404783 124.201565 L 155.404783 124.297253 C 157.994178 124.59628 158.794536 126.294751 158.900466 128.495587 C 158.994626 129.799343 158.994626 132.394893 159.794984 133.303934 L 157.699928 133.303934 C 157.205589 132.598232 157.205589 131.198787 157.205589 130.397396 C 157.0055 127.801845 156.80541 124.895307 153.203798 125.002956 L 146.000574 125.002956 L 146.000574 133.303934 L 143.999678 133.303934 Z M 145.894644 123.400174 L 153.003708 123.400174 C 155.298854 123.400174 157.299749 122.000729 157.299749 119.799894 C 157.299749 117.503369 155.804962 116.103925 153.003708 116.103925 L 145.894644 116.103925 Z M 145.894644 123.400174 " transform="matrix(0.331883,0,0,0.32658,8.697291,16.27413)"/>
<path style="fill-rule:nonzero;fill:rgb(42.749023%,43.139648%,43.919373%);fill-opacity:1;stroke-width:0.1;stroke-linecap:butt;stroke-linejoin:miter;stroke:rgb(42.749023%,43.139648%,43.919373%);stroke-opacity:1;stroke-miterlimit:4;" d="M 162.902257 114.501142 L 164.797223 114.501142 L 164.797223 133.196285 L 162.902257 133.196285 Z M 162.902257 114.501142 " transform="matrix(0.331883,0,0,0.32658,8.697291,16.27413)"/>
<path style="fill-rule:nonzero;fill:rgb(42.749023%,43.139648%,43.919373%);fill-opacity:1;stroke-width:0.1;stroke-linecap:butt;stroke-linejoin:miter;stroke:rgb(42.749023%,43.139648%,43.919373%);stroke-opacity:1;stroke-miterlimit:4;" d="M 169.905392 127.000454 C 169.799462 130.899761 172.800806 132.000178 176.496578 132.000178 C 178.603403 132.000178 181.804836 130.899761 181.804836 128.19656 C 181.804836 126.103374 179.497921 125.194333 177.697115 124.799618 L 173.200985 123.794889 C 170.79991 123.196836 168.704855 122.204067 168.704855 119.297529 C 168.704855 117.503369 169.999552 113.998778 175.60206 113.998778 C 179.603851 113.998778 183.005374 115.996275 183.005374 119.799894 L 181.004478 119.799894 C 180.898548 116.905316 178.403314 115.505872 175.49613 115.505872 C 172.894966 115.505872 170.505661 116.402951 170.505661 119.20184 C 170.505661 120.996 171.894518 121.701703 173.495234 122.096418 L 178.403314 123.196836 C 181.204568 123.902538 183.605642 125.098645 183.605642 128.100872 C 183.605642 129.404628 183.005374 133.495311 175.896309 133.495311 C 171.200089 133.495311 167.704407 131.497814 167.904496 126.904765 Z M 169.905392 127.000454 " transform="matrix(0.331883,0,0,0.32658,8.697291,16.27413)"/>
<path style="fill-rule:nonzero;fill:rgb(42.749023%,43.139648%,43.919373%);fill-opacity:1;stroke-width:0.1;stroke-linecap:butt;stroke-linejoin:miter;stroke:rgb(42.749023%,43.139648%,43.919373%);stroke-opacity:1;stroke-miterlimit:4;" d="M 186.701146 114.501142 L 195.599247 114.501142 C 199.200859 114.501142 201.601934 116.49864 201.601934 119.895582 C 201.601934 123.304485 199.200859 125.301983 195.599247 125.301983 L 188.596112 125.301983 L 188.596112 133.303934 L 186.701146 133.303934 Z M 188.596112 123.603512 L 195.199067 123.603512 C 197.800232 123.603512 199.695198 122.299756 199.695198 119.799894 C 199.695198 117.204343 197.894392 115.996275 195.199067 115.996275 L 188.596112 115.996275 Z M 188.596112 123.603512 " transform="matrix(0.331883,0,0,0.32658,8.697291,16.27413)"/>
<path style="fill-rule:nonzero;fill:rgb(42.749023%,43.139648%,43.919373%);fill-opacity:1;stroke-width:0.1;stroke-linecap:butt;stroke-linejoin:miter;stroke:rgb(42.749023%,43.139648%,43.919373%);stroke-opacity:1;stroke-miterlimit:4;" d="M 208.204889 114.501142 L 210.299945 114.501142 L 218.197598 133.196285 L 216.102542 133.196285 L 213.701467 127.395169 L 204.603277 127.395169 L 202.202202 133.196285 L 200.095377 133.196285 Z M 205.097616 125.804347 L 212.995269 125.804347 L 209.099407 116.199613 Z M 205.097616 125.804347 " transform="matrix(0.331883,0,0,0.32658,8.697291,16.27413)"/>
<path style="fill-rule:nonzero;fill:rgb(42.749023%,43.139648%,43.919373%);fill-opacity:1;stroke-width:0.1;stroke-linecap:butt;stroke-linejoin:miter;stroke:rgb(42.749023%,43.139648%,43.919373%);stroke-opacity:1;stroke-miterlimit:4;" d="M 219.998404 114.501142 L 229.202524 114.501142 C 232.498117 114.501142 235.299371 115.996275 235.299371 119.405178 C 235.299371 121.797391 234.004674 123.6992 231.403509 124.201565 L 231.403509 124.297253 C 234.004674 124.59628 234.805032 126.294751 234.899192 128.495587 C 235.005122 129.799343 235.005122 132.394893 235.80548 133.303934 L 233.698654 133.303934 C 233.204315 132.598232 233.204315 131.198787 233.204315 130.397396 C 233.004226 127.801845 232.804136 124.895307 229.202524 125.002956 L 221.90514 125.002956 L 221.90514 133.303934 L 219.998404 133.303934 Z M 221.90514 123.400174 L 229.002434 123.400174 C 231.29758 123.400174 233.298475 122.000729 233.298475 119.799894 C 233.298475 117.503369 231.803688 116.103925 229.002434 116.103925 L 221.90514 116.103925 Z M 221.90514 123.400174 " transform="matrix(0.331883,0,0,0.32658,8.697291,16.27413)"/>
<path style="fill-rule:nonzero;fill:rgb(42.749023%,43.139648%,43.919373%);fill-opacity:1;stroke-width:0.1;stroke-linecap:butt;stroke-linejoin:miter;stroke:rgb(42.749023%,43.139648%,43.919373%);stroke-opacity:1;stroke-miterlimit:4;" d="M 238.700894 114.501142 L 241.502147 114.501142 L 248.399353 130.899761 L 255.296558 114.501142 L 258.097812 114.501142 L 258.097812 133.196285 L 256.202846 133.196285 L 256.202846 117.001005 L 256.096916 117.001005 L 249.199711 133.196285 L 247.398905 133.196285 L 240.5017 117.001005 L 240.39577 117.001005 L 240.39577 133.196285 L 238.500804 133.196285 Z M 238.700894 114.501142 " transform="matrix(0.331883,0,0,0.32658,8.697291,16.27413)"/>
<path style="fill-rule:nonzero;fill:rgb(42.749023%,43.139648%,43.919373%);fill-opacity:1;stroke-width:0.1;stroke-linecap:butt;stroke-linejoin:miter;stroke:rgb(42.749023%,43.139648%,43.919373%);stroke-opacity:1;stroke-miterlimit:4;" d="M 262.299693 114.501142 L 264.194659 114.501142 L 264.194659 133.196285 L 262.299693 133.196285 Z M 262.299693 114.501142 " transform="matrix(0.331883,0,0,0.32658,8.697291,16.27413)"/>
<path style="fill-rule:nonzero;fill:rgb(42.749023%,43.139648%,43.919373%);fill-opacity:1;stroke-width:0.1;stroke-linecap:butt;stroke-linejoin:miter;stroke:rgb(42.749023%,43.139648%,43.919373%);stroke-opacity:1;stroke-miterlimit:4;" d="M 274.199137 114.501142 L 276.294192 114.501142 L 284.203615 133.196285 L 282.09679 133.196285 L 279.695715 127.395169 L 270.597525 127.395169 L 268.19645 133.196285 L 266.101394 133.196285 Z M 271.197793 125.804347 L 279.095446 125.804347 L 275.199585 116.199613 Z M 271.197793 125.804347 " transform="matrix(0.331883,0,0,0.32658,8.697291,16.27413)"/>
<path style="fill-rule:nonzero;fill:rgb(42.749023%,43.139648%,43.919373%);fill-opacity:1;stroke-width:0.1;stroke-linecap:butt;stroke-linejoin:miter;stroke:rgb(42.749023%,43.139648%,43.919373%);stroke-opacity:1;stroke-miterlimit:4;" d="M 286.098581 114.501142 L 295.302701 114.501142 C 298.598294 114.501142 301.399548 115.996275 301.399548 119.405178 C 301.399548 121.797391 300.104851 123.6992 297.503687 124.201565 L 297.503687 124.297253 C 300.104851 124.59628 300.905209 126.294751 300.999369 128.495587 C 301.105299 129.799343 301.105299 132.394893 301.905657 133.303934 L 299.798832 133.303934 C 299.304493 132.598232 299.304493 131.198787 299.304493 130.397396 C 299.104403 127.801845 298.904314 124.895307 295.302701 125.002956 L 288.005317 125.002956 L 288.005317 133.303934 L 286.098581 133.303934 Z M 288.005317 123.400174 L 295.102612 123.400174 C 297.397757 123.400174 299.398653 122.000729 299.398653 119.799894 C 299.398653 117.503369 297.903866 116.103925 295.102612 116.103925 L 288.005317 116.103925 Z M 288.005317 123.400174 " transform="matrix(0.331883,0,0,0.32658,8.697291,16.27413)"/>
<path style="fill-rule:nonzero;fill:rgb(42.749023%,43.139648%,43.919373%);fill-opacity:1;stroke-width:0.1;stroke-linecap:butt;stroke-linejoin:miter;stroke:rgb(42.749023%,43.139648%,43.919373%);stroke-opacity:1;stroke-miterlimit:4;" d="M 304.801071 114.501142 L 318.701411 114.501142 L 318.701411 115.996275 L 306.801967 115.996275 L 306.801967 122.80212 L 317.995212 122.80212 L 317.995212 124.297253 L 306.801967 124.297253 L 306.801967 131.701152 L 318.9015 131.701152 L 318.9015 133.196285 L 304.895231 133.196285 Z M 304.801071 114.501142 " transform="matrix(0.331883,0,0,0.32658,8.697291,16.27413)"/>
<path style="fill-rule:nonzero;fill:rgb(42.749023%,43.139648%,43.919373%);fill-opacity:1;stroke-width:0.1;stroke-linecap:butt;stroke-linejoin:miter;stroke:rgb(42.749023%,43.139648%,43.919373%);stroke-opacity:1;stroke-miterlimit:4;" d="M 329.294388 114.501142 L 343.194728 114.501142 L 343.194728 115.996275 L 331.295284 115.996275 L 331.295284 122.80212 L 342.5003 122.80212 L 342.5003 124.297253 L 331.295284 124.297253 L 331.295284 131.701152 L 343.394818 131.701152 L 343.394818 133.196285 L 329.400318 133.196285 Z M 332.095642 109.29808 L 334.296627 109.29808 L 337.297971 112.994048 L 335.897344 112.994048 Z M 332.095642 109.29808 " transform="matrix(0.331883,0,0,0.32658,8.697291,16.27413)"/>
<path style="fill-rule:nonzero;fill:rgb(42.749023%,43.139648%,43.919373%);fill-opacity:1;stroke-width:0.1;stroke-linecap:butt;stroke-linejoin:miter;stroke:rgb(42.749023%,43.139648%,43.919373%);stroke-opacity:1;stroke-miterlimit:4;" d="M 353.705315 114.501142 L 366.405118 114.501142 L 366.405118 115.996275 L 355.600281 115.996275 L 355.600281 122.80212 L 365.204581 122.80212 L 365.204581 124.297253 L 355.600281 124.297253 L 355.600281 133.196285 L 353.705315 133.196285 Z M 353.705315 114.501142 " transform="matrix(0.331883,0,0,0.32658,8.697291,16.27413)"/>
<path style="fill-rule:nonzero;fill:rgb(42.749023%,43.139648%,43.919373%);fill-opacity:1;stroke-width:0.1;stroke-linecap:butt;stroke-linejoin:miter;stroke:rgb(42.749023%,43.139648%,43.919373%);stroke-opacity:1;stroke-miterlimit:4;" d="M 373.196393 114.501142 L 375.303219 114.501142 L 383.200872 133.196285 L 381.105816 133.196285 L 378.704741 127.395169 L 369.594781 127.395169 L 367.205476 133.196285 L 365.098651 133.196285 Z M 370.10089 125.804347 L 377.998543 125.804347 L 374.102681 116.199613 Z M 370.10089 125.804347 " transform="matrix(0.331883,0,0,0.32658,8.697291,16.27413)"/>
<path style="fill-rule:nonzero;fill:rgb(42.749023%,43.139648%,43.919373%);fill-opacity:1;stroke-width:0.1;stroke-linecap:butt;stroke-linejoin:miter;stroke:rgb(42.749023%,43.139648%,43.919373%);stroke-opacity:1;stroke-miterlimit:4;" d="M 399.702376 120.09892 C 398.996178 117.204343 396.500943 115.60156 393.499599 115.60156 C 388.203111 115.60156 385.896196 119.704205 385.896196 123.794889 C 385.896196 127.897534 388.097181 132.000178 393.499599 132.000178 C 397.195371 132.000178 399.596446 129.296978 399.902466 125.995724 L 401.797432 125.995724 C 401.303093 130.600734 398.10166 133.495311 393.499599 133.495311 C 387.202663 133.495311 384.00123 128.902263 384.00123 123.6992 C 384.00123 118.603787 387.096733 113.903089 393.499599 113.903089 C 397.301301 113.903089 401.103003 115.996275 401.597342 120.003232 Z M 399.702376 120.09892 " transform="matrix(0.331883,0,0,0.32658,8.697291,16.27413)"/>
<path style="fill-rule:nonzero;fill:rgb(42.749023%,43.139648%,43.919373%);fill-opacity:1;stroke-width:0.1;stroke-linecap:butt;stroke-linejoin:miter;stroke:rgb(42.749023%,43.139648%,43.919373%);stroke-opacity:1;stroke-miterlimit:4;" d="M 404.904705 114.501142 L 406.799671 114.501142 L 406.799671 133.196285 L 404.904705 133.196285 Z M 404.904705 114.501142 " transform="matrix(0.331883,0,0,0.32658,8.697291,16.27413)"/>
<path style="fill-rule:nonzero;fill:rgb(42.749023%,43.139648%,43.919373%);fill-opacity:1;stroke-width:0.1;stroke-linecap:butt;stroke-linejoin:miter;stroke:rgb(42.749023%,43.139648%,43.919373%);stroke-opacity:1;stroke-miterlimit:4;" d="M 411.001552 114.501142 L 412.896518 114.501142 L 412.896518 131.701152 L 424.101533 131.701152 L 424.101533 133.196285 L 411.001552 133.196285 Z M 411.001552 114.501142 " transform="matrix(0.331883,0,0,0.32658,8.697291,16.27413)"/>
<path style="fill-rule:nonzero;fill:rgb(42.749023%,43.139648%,43.919373%);fill-opacity:1;stroke-width:0.1;stroke-linecap:butt;stroke-linejoin:miter;stroke:rgb(42.749023%,43.139648%,43.919373%);stroke-opacity:1;stroke-miterlimit:4;" d="M 426.102429 114.501142 L 440.002769 114.501142 L 440.002769 115.996275 L 427.997395 115.996275 L 427.997395 122.80212 L 439.202411 122.80212 L 439.202411 124.297253 L 427.997395 124.297253 L 427.997395 131.701152 L 440.096929 131.701152 L 440.096929 133.196285 L 426.102429 133.196285 Z M 426.102429 114.501142 " transform="matrix(0.331883,0,0,0.32658,8.697291,16.27413)"/>
</g>
</svg>
