<svg xmlns="http://www.w3.org/2000/svg" xmlns:xlink="http://www.w3.org/1999/xlink" width="220" zoomAndPan="magnify" viewBox="0 0 165 82.499998" height="110" preserveAspectRatio="xMidYMid meet" version="1.0"><defs><clipPath id="id1"><path d="M 0.496094 0 L 164.503906 0 L 164.503906 82.003906 L 0.496094 82.003906 Z M 0.496094 0 " clip-rule="nonzero"/></clipPath></defs><g clip-path="url(#id1)"><path fill="rgb(100%, 100%, 100%)" d="M 0.496094 0 L 164.503906 0 L 164.503906 89.457031 L 0.496094 89.457031 Z M 0.496094 0 " fill-opacity="1" fill-rule="nonzero"/><path fill="rgb(100%, 100%, 100%)" d="M 0.496094 0 L 164.503906 0 L 164.503906 82.003906 L 0.496094 82.003906 Z M 0.496094 0 " fill-opacity="1" fill-rule="nonzero"/><path fill="rgb(100%, 100%, 100%)" d="M 0.496094 0 L 164.503906 0 L 164.503906 82.003906 L 0.496094 82.003906 Z M 0.496094 0 " fill-opacity="1" fill-rule="nonzero"/><path fill="rgb(100%, 100%, 100%)" d="M 0.496094 0 L 164.503906 0 L 164.503906 82.003906 L 0.496094 82.003906 Z M 0.496094 0 " fill-opacity="1" fill-rule="nonzero"/></g><path fill="rgb(12.939453%, 39.608765%, 89.7995%)" d="M 30.328125 30.386719 L 25.011719 30.386719 C 24.800781 30.386719 24.621094 30.460938 24.472656 30.605469 C 24.324219 30.753906 24.246094 30.933594 24.246094 31.144531 L 24.246094 37.640625 L 20.070312 32.171875 C 19.640625 31.609375 19.105469 31.167969 18.472656 30.855469 C 17.835938 30.539062 17.164062 30.382812 16.453125 30.386719 L 12.324219 30.386719 C 12 30.386719 11.6875 30.449219 11.386719 30.574219 C 11.085938 30.699219 10.820312 30.878906 10.589844 31.105469 C 10.359375 31.335938 10.183594 31.601562 10.054688 31.902344 C 9.929688 32.203125 9.863281 32.515625 9.863281 32.839844 L 9.863281 49.109375 C 9.863281 49.441406 9.925781 49.753906 10.050781 50.058594 C 10.175781 50.363281 10.355469 50.628906 10.585938 50.863281 C 10.820312 51.09375 11.085938 51.273438 11.390625 51.398438 C 11.695312 51.527344 12.011719 51.589844 12.339844 51.589844 L 17.65625 51.589844 C 17.867188 51.589844 18.046875 51.515625 18.199219 51.367188 C 18.347656 51.214844 18.421875 51.035156 18.421875 50.824219 L 18.421875 44.246094 L 22.574219 49.773438 C 23.003906 50.34375 23.539062 50.789062 24.175781 51.109375 C 24.816406 51.429688 25.496094 51.589844 26.210938 51.589844 L 30.328125 51.589844 C 30.65625 51.589844 30.972656 51.527344 31.277344 51.398438 C 31.578125 51.273438 31.847656 51.09375 32.078125 50.863281 C 32.3125 50.628906 32.492188 50.363281 32.617188 50.058594 C 32.742188 49.753906 32.804688 49.441406 32.804688 49.109375 L 32.804688 32.839844 C 32.800781 32.511719 32.738281 32.199219 32.609375 31.898438 C 32.484375 31.597656 32.304688 31.332031 32.070312 31.101562 C 31.839844 30.871094 31.574219 30.695312 31.269531 30.570312 C 30.96875 30.445312 30.652344 30.386719 30.328125 30.386719 Z M 16.96875 50.058594 L 12.308594 50.058594 C 12.039062 50.058594 11.804688 49.964844 11.617188 49.773438 C 11.425781 49.582031 11.328125 49.351562 11.328125 49.078125 L 11.328125 34.984375 L 16.96875 42.398438 Z M 30.429688 50.058594 L 26.191406 50.058594 C 25.71875 50.058594 25.265625 49.953125 24.839844 49.742188 C 24.414062 49.535156 24.058594 49.242188 23.769531 48.867188 L 11.683594 33.066406 C 11.496094 32.828125 11.46875 32.570312 11.605469 32.296875 C 11.738281 32.023438 11.957031 31.886719 12.261719 31.886719 L 16.464844 31.886719 C 16.941406 31.886719 17.390625 31.988281 17.816406 32.195312 C 18.242188 32.402344 18.601562 32.691406 18.890625 33.066406 L 31 48.851562 C 31.203125 49.089844 31.234375 49.355469 31.101562 49.636719 C 30.96875 49.921875 30.746094 50.0625 30.429688 50.058594 Z M 31.324219 46.929688 L 25.699219 39.527344 L 25.699219 31.886719 L 30.359375 31.886719 C 30.625 31.890625 30.855469 31.988281 31.042969 32.179688 C 31.230469 32.371094 31.324219 32.597656 31.324219 32.867188 Z M 31.324219 46.929688 " fill-opacity="1" fill-rule="nonzero"/><path fill="rgb(12.939453%, 39.608765%, 89.7995%)" d="M 61.179688 49.769531 L 57.792969 49.769531 L 49.363281 40.125 L 49.363281 49.769531 L 44.992188 49.769531 L 44.992188 32.171875 L 48.316406 32.171875 L 56.8125 42.078125 L 56.8125 32.171875 L 61.179688 32.171875 Z M 61.179688 49.769531 " fill-opacity="1" fill-rule="nonzero"/><path fill="rgb(12.939453%, 39.608765%, 89.7995%)" d="M 74.820312 44.648438 L 74.796875 44.726562 L 65.898438 44.726562 C 65.976562 45.03125 66.105469 45.316406 66.28125 45.578125 C 66.460938 45.839844 66.679688 46.0625 66.9375 46.25 C 67.195312 46.433594 67.476562 46.566406 67.78125 46.652344 C 68.089844 46.738281 68.398438 46.765625 68.714844 46.742188 C 69.089844 46.769531 69.449219 46.703125 69.789062 46.542969 C 70.128906 46.386719 70.410156 46.152344 70.628906 45.847656 L 74.765625 45.847656 C 74.171875 48.433594 71.765625 50.0625 68.664062 50.0625 C 64.550781 50.0625 61.8125 47.324219 61.8125 43.496094 C 61.8125 39.667969 64.492188 36.953125 68.480469 36.953125 C 72.132812 36.953125 74.894531 39.460938 74.894531 43.214844 C 74.90625 43.695312 74.882812 44.171875 74.820312 44.648438 Z M 65.84375 42.269531 L 70.964844 42.269531 C 70.933594 41.96875 70.851562 41.683594 70.710938 41.414062 C 70.566406 41.144531 70.382812 40.914062 70.148438 40.71875 C 69.917969 40.523438 69.65625 40.378906 69.371094 40.285156 C 69.082031 40.191406 68.785156 40.15625 68.480469 40.175781 C 68.171875 40.164062 67.871094 40.203125 67.578125 40.296875 C 67.28125 40.394531 67.015625 40.535156 66.769531 40.730469 C 66.527344 40.921875 66.328125 41.152344 66.167969 41.414062 C 66.007812 41.679688 65.902344 41.964844 65.84375 42.269531 Z M 65.84375 42.269531 " fill-opacity="1" fill-rule="nonzero"/><path fill="rgb(12.939453%, 39.608765%, 89.7995%)" d="M 89.199219 49.769531 L 85.007812 49.769531 L 85.007812 49.070312 C 83.957031 49.730469 82.8125 50.050781 81.570312 50.027344 C 78.183594 50.027344 75.339844 47.207031 75.339844 43.484375 C 75.339844 39.765625 78.183594 36.945312 81.570312 36.945312 C 82.8125 36.921875 83.957031 37.242188 85.007812 37.902344 L 85.007812 37.226562 L 89.199219 37.226562 Z M 85.007812 45.421875 L 85.007812 41.5625 C 84.691406 41.171875 84.300781 40.875 83.839844 40.664062 C 83.382812 40.457031 82.902344 40.359375 82.398438 40.375 C 82.007812 40.410156 81.640625 40.515625 81.292969 40.6875 C 80.941406 40.863281 80.636719 41.09375 80.375 41.382812 C 80.109375 41.671875 79.910156 41.996094 79.769531 42.359375 C 79.628906 42.722656 79.558594 43.101562 79.558594 43.492188 C 79.558594 43.878906 79.628906 44.257812 79.769531 44.621094 C 79.910156 44.984375 80.109375 45.3125 80.375 45.597656 C 80.636719 45.886719 80.941406 46.117188 81.292969 46.292969 C 81.640625 46.464844 82.007812 46.570312 82.398438 46.605469 C 82.902344 46.625 83.382812 46.53125 83.84375 46.324219 C 84.300781 46.113281 84.691406 45.8125 85.007812 45.421875 Z M 85.007812 45.421875 " fill-opacity="1" fill-rule="nonzero"/><path fill="rgb(12.939453%, 39.608765%, 89.7995%)" d="M 98.679688 41.003906 C 96.632812 41.082031 95.34375 41.621094 94.359375 42.605469 L 94.359375 49.757812 L 90.167969 49.757812 L 90.167969 37.238281 L 94.371094 37.238281 L 94.371094 38.582031 C 94.96875 38.058594 95.640625 37.664062 96.386719 37.398438 C 97.128906 37.128906 97.898438 37.007812 98.691406 37.03125 Z M 98.679688 41.003906 " fill-opacity="1" fill-rule="nonzero"/><path fill="rgb(12.939453%, 39.608765%, 89.7995%)" d="M 112.378906 36.035156 L 112.378906 32.171875 L 99.289062 32.171875 L 99.289062 49.769531 L 103.664062 49.769531 L 103.664062 43.5625 L 110.21875 43.5625 L 110.21875 43.484375 C 110.207031 42.164062 110.519531 40.921875 111.15625 39.761719 L 103.640625 39.761719 L 103.640625 36.035156 Z M 112.378906 36.035156 " fill-opacity="1" fill-rule="nonzero"/><path fill="rgb(12.939453%, 39.608765%, 89.7995%)" d="M 133.492188 41.003906 C 131.449219 41.082031 130.15625 41.621094 129.175781 42.605469 L 129.175781 49.757812 L 124.988281 49.757812 L 124.988281 37.238281 L 129.175781 37.238281 L 129.175781 38.582031 C 129.773438 38.058594 130.441406 37.664062 131.1875 37.394531 C 131.933594 37.128906 132.703125 37.007812 133.492188 37.03125 Z M 133.492188 41.003906 " fill-opacity="1" fill-rule="nonzero"/><path fill="rgb(12.939453%, 39.608765%, 89.7995%)" d="M 155.007812 42.605469 L 155.007812 49.757812 L 150.792969 49.757812 L 150.792969 43.28125 C 150.792969 41.492188 149.9375 40.640625 148.558594 40.640625 C 148.175781 40.65625 147.816406 40.75 147.476562 40.933594 C 147.140625 41.113281 146.863281 41.363281 146.644531 41.675781 C 146.667969 41.984375 146.695312 42.296875 146.695312 42.605469 L 146.695312 49.757812 L 142.507812 49.757812 L 142.507812 43.28125 C 142.507812 41.492188 141.613281 40.640625 140.269531 40.640625 C 139.621094 40.640625 139 40.949219 138.382812 41.75 L 138.382812 49.769531 L 134.167969 49.769531 L 134.167969 37.25 L 138.359375 37.25 L 138.359375 37.988281 C 139.246094 37.183594 140.289062 36.804688 141.488281 36.851562 C 142.222656 36.824219 142.929688 36.960938 143.605469 37.25 C 144.28125 37.542969 144.859375 37.964844 145.347656 38.519531 C 145.945312 37.949219 146.628906 37.523438 147.402344 37.230469 C 148.171875 36.941406 148.972656 36.808594 149.796875 36.839844 C 152.78125 36.839844 155.007812 39.039062 155.007812 42.605469 Z M 155.007812 42.605469 " fill-opacity="1" fill-rule="nonzero"/><path fill="rgb(12.939453%, 39.608765%, 89.7995%)" d="M 124.46875 43.484375 C 124.46875 47.3125 121.625 50.15625 117.667969 50.15625 C 113.710938 50.15625 110.871094 47.3125 110.871094 43.484375 C 110.871094 39.660156 113.714844 36.945312 117.667969 36.945312 C 121.621094 36.945312 124.46875 39.707031 124.46875 43.484375 Z M 120.515625 43.484375 C 120.53125 43.101562 120.472656 42.726562 120.335938 42.367188 C 120.195312 42.007812 119.996094 41.6875 119.726562 41.410156 C 119.460938 41.132812 119.148438 40.917969 118.792969 40.765625 C 118.441406 40.613281 118.070312 40.539062 117.683594 40.539062 C 117.296875 40.539062 116.929688 40.613281 116.574219 40.765625 C 116.21875 40.917969 115.90625 41.132812 115.640625 41.410156 C 115.371094 41.6875 115.171875 42.007812 115.035156 42.367188 C 114.898438 42.726562 114.835938 43.101562 114.851562 43.484375 C 114.851562 45.167969 115.992188 46.511719 117.695312 46.511719 C 119.398438 46.511719 120.515625 45.191406 120.515625 43.507812 Z M 120.515625 43.484375 " fill-opacity="1" fill-rule="nonzero"/></svg>