<?xml version="1.0" encoding="UTF-8"?>
<svg xmlns="http://www.w3.org/2000/svg" xmlns:xlink="http://www.w3.org/1999/xlink" width="165pt" height="82.499998pt" viewBox="0 0 165 82.499998" version="1.2">
<defs>
<clipPath id="clip1">
  <path d="M 0.496094 0 L 164.503906 0 L 164.503906 82.003906 L 0.496094 82.003906 Z M 0.496094 0 "/>
</clipPath>
</defs>
<g id="surface1">
<g clip-path="url(#clip1)" clip-rule="nonzero">
<path style=" stroke:none;fill-rule:nonzero;fill:rgb(100%,100%,100%);fill-opacity:1;" d="M 0.496094 0 L 164.503906 0 L 164.503906 89.457031 L 0.496094 89.457031 Z M 0.496094 0 "/>
<path style=" stroke:none;fill-rule:nonzero;fill:rgb(100%,100%,100%);fill-opacity:1;" d="M 0.496094 0 L 164.503906 0 L 164.503906 82.003906 L 0.496094 82.003906 Z M 0.496094 0 "/>
<path style=" stroke:none;fill-rule:nonzero;fill:rgb(100%,100%,100%);fill-opacity:1;" d="M 0.496094 0 L 164.503906 0 L 164.503906 82.003906 L 0.496094 82.003906 Z M 0.496094 0 "/>
</g>
<path style=" stroke:none;fill-rule:nonzero;fill:rgb(30.589294%,15.689087%,9.01947%);fill-opacity:1;" d="M 40.832031 50.261719 C 38.882812 50.261719 37.09375 50.042969 35.523438 48.464844 L 37.554688 46.421875 C 38.582031 47.457031 39.910156 47.59375 40.886719 47.59375 C 41.96875 47.59375 43.082031 47.238281 43.082031 46.285156 C 43.082031 45.660156 42.753906 45.222656 41.753906 45.140625 L 39.800781 44.953125 C 37.554688 44.734375 36.171875 43.753906 36.171875 41.441406 C 36.171875 38.855469 38.449219 37.4375 40.996094 37.4375 C 42.945312 37.4375 44.570312 37.765625 45.761719 38.910156 L 43.839844 40.867188 C 43.109375 40.214844 42.023438 40.023438 40.941406 40.023438 C 39.695312 40.023438 39.179688 40.597656 39.179688 41.222656 C 39.179688 41.683594 39.367188 42.203125 40.480469 42.3125 L 42.429688 42.5 C 44.894531 42.746094 46.140625 44.054688 46.140625 46.175781 C 46.140625 48.953125 43.785156 50.261719 40.832031 50.261719 Z M 40.832031 50.261719 "/>
<path style=" stroke:none;fill-rule:nonzero;fill:rgb(30.589294%,15.689087%,9.01947%);fill-opacity:1;" d="M 51.558594 50.125 C 49.011719 50.125 47.957031 48.328125 47.957031 46.53125 L 47.957031 40.324219 L 46.628906 40.324219 L 46.628906 37.957031 L 47.957031 37.957031 L 47.957031 34.253906 L 51.074219 34.253906 L 51.074219 37.957031 L 53.265625 37.957031 L 53.265625 40.324219 L 51.074219 40.324219 L 51.074219 46.339844 C 51.074219 47.046875 51.398438 47.484375 52.15625 47.484375 L 53.292969 47.484375 L 53.292969 50.125 Z M 51.558594 50.125 "/>
<path style=" stroke:none;fill-rule:nonzero;fill:rgb(30.589294%,15.689087%,9.01947%);fill-opacity:1;" d="M 54.648438 35.453125 L 54.648438 32.894531 L 57.84375 32.894531 L 57.84375 35.453125 Z M 54.703125 50.125 L 54.703125 37.601562 L 57.820312 37.601562 L 57.820312 50.125 Z M 54.703125 50.125 "/>
<path style=" stroke:none;fill-rule:nonzero;fill:rgb(30.589294%,15.689087%,9.01947%);fill-opacity:1;" d="M 64.835938 50.261719 C 62.34375 50.261719 59.253906 48.925781 59.253906 43.835938 C 59.253906 38.773438 62.34375 37.4375 64.835938 37.4375 C 66.570312 37.4375 67.84375 37.957031 68.953125 39.125 L 66.839844 41.25 C 66.191406 40.542969 65.648438 40.269531 64.835938 40.269531 C 64.105469 40.269531 63.507812 40.542969 63.074219 41.085938 C 62.585938 41.683594 62.371094 42.527344 62.371094 43.863281 C 62.371094 45.195312 62.585938 46.039062 63.074219 46.667969 C 63.535156 47.210938 64.105469 47.484375 64.835938 47.484375 C 65.648438 47.484375 66.191406 47.183594 66.839844 46.503906 L 68.953125 48.597656 C 67.84375 49.714844 66.570312 50.261719 64.835938 50.261719 Z M 64.835938 50.261719 "/>
<path style=" stroke:none;fill-rule:nonzero;fill:rgb(30.589294%,15.689087%,9.01947%);fill-opacity:1;" d="M 77.542969 50.125 L 74.480469 44.898438 L 73.152344 46.394531 L 73.152344 50.125 L 70.039062 50.125 L 70.039062 33 L 73.152344 33 L 73.152344 42.71875 L 77.296875 37.601562 L 81.0625 37.601562 L 76.621094 42.664062 L 81.414062 50.152344 L 77.542969 50.152344 Z M 77.542969 50.125 "/>
<path style=" stroke:none;fill-rule:nonzero;fill:rgb(30.589294%,15.689087%,9.01947%);fill-opacity:1;" d="M 83.988281 44.816406 C 83.988281 46.421875 84.964844 47.59375 86.726562 47.59375 C 88.082031 47.59375 88.757812 47.210938 89.542969 46.421875 L 91.441406 48.273438 C 90.167969 49.550781 88.949219 50.234375 86.699219 50.234375 C 83.746094 50.234375 80.929688 48.898438 80.929688 43.808594 C 80.929688 39.726562 83.121094 37.410156 86.375 37.410156 C 89.839844 37.410156 91.820312 39.96875 91.820312 43.398438 L 91.820312 44.789062 L 83.988281 44.789062 Z M 88.460938 41.332031 C 88.132812 40.597656 87.429688 40.023438 86.375 40.023438 C 85.316406 40.023438 84.613281 40.570312 84.289062 41.332031 C 84.097656 41.792969 84.015625 42.121094 83.988281 42.664062 L 88.730469 42.664062 C 88.703125 42.121094 88.648438 41.792969 88.460938 41.332031 Z M 88.460938 41.332031 "/>
<path style=" stroke:none;fill-rule:nonzero;fill:rgb(30.589294%,15.689087%,9.01947%);fill-opacity:1;" d="M 100.054688 41.003906 C 99.566406 40.515625 99.160156 40.269531 98.402344 40.269531 C 97.453125 40.269531 96.398438 41.003906 96.398438 42.582031 L 96.398438 50.125 L 93.28125 50.125 L 93.28125 37.601562 L 96.316406 37.601562 L 96.316406 38.800781 C 96.914062 38.066406 98.105469 37.464844 99.460938 37.464844 C 100.679688 37.464844 101.546875 37.765625 102.414062 38.636719 Z M 100.054688 41.003906 "/>
<path style=" stroke:none;fill-rule:evenodd;fill:rgb(30.589294%,15.689087%,9.01947%);fill-opacity:1;" d="M 25.929688 51.511719 C 25.742188 51.59375 25.496094 51.566406 25.253906 51.59375 C 25.035156 51.59375 24.738281 51.59375 24.605469 51.484375 C 24.523438 51.429688 24.523438 51.292969 24.523438 51.210938 C 24.523438 51.128906 24.550781 50.996094 24.550781 50.914062 C 24.578125 50.804688 24.605469 50.640625 24.550781 50.558594 C 24.496094 50.476562 24.304688 50.503906 24.195312 50.449219 C 24.089844 50.394531 24.0625 50.234375 24.035156 50.070312 C 24.035156 50.015625 23.980469 49.960938 23.980469 49.933594 C 23.953125 49.6875 24.035156 49.335938 24.089844 49.089844 C 24.144531 48.816406 24.222656 48.570312 24.277344 48.300781 C 24.359375 47.917969 24.359375 47.484375 24.332031 47.074219 C 24.332031 46.855469 24.277344 46.695312 24.332031 46.53125 C 24.359375 46.367188 24.441406 46.230469 24.46875 46.066406 C 24.46875 46.011719 24.46875 45.957031 24.46875 45.90625 C 24.46875 45.851562 24.496094 45.824219 24.496094 45.769531 C 24.496094 45.660156 24.46875 45.523438 24.46875 45.386719 C 24.441406 45.035156 24.46875 44.515625 24.496094 44.21875 C 24.496094 44.109375 24.550781 44 24.46875 43.945312 C 24.089844 43.945312 23.765625 44 23.410156 44.054688 C 22.492188 44.164062 21.296875 44.191406 20.402344 44 C 20.324219 43.972656 20.242188 43.972656 20.160156 43.972656 C 19.511719 43.835938 18.941406 43.535156 18.480469 43.183594 C 18.398438 43.128906 18.316406 43.074219 18.238281 42.992188 C 18.15625 42.9375 18.074219 42.855469 17.992188 42.800781 C 17.640625 42.636719 17.152344 42.828125 16.992188 43.074219 C 16.9375 43.15625 16.882812 43.292969 16.828125 43.398438 C 16.773438 43.507812 16.71875 43.617188 16.691406 43.726562 C 16.449219 44.269531 16.179688 44.816406 15.933594 45.359375 C 15.796875 45.6875 15.636719 46.039062 15.527344 46.394531 C 15.3125 47.15625 15.5 48.164062 15.691406 48.898438 C 15.71875 48.953125 15.746094 49.035156 15.773438 49.117188 C 15.824219 49.28125 15.933594 49.523438 16.070312 49.632812 C 16.152344 49.6875 16.257812 49.742188 16.339844 49.796875 C 16.449219 49.878906 16.503906 50.042969 16.585938 50.207031 C 16.613281 50.261719 16.664062 50.339844 16.691406 50.421875 C 16.773438 50.585938 16.828125 50.722656 16.636719 50.832031 C 16.503906 50.914062 16.285156 50.914062 16.097656 50.941406 C 16.015625 50.96875 16.042969 51.078125 15.988281 51.128906 C 15.960938 51.15625 15.824219 51.210938 15.773438 51.238281 C 15.527344 51.320312 15.09375 51.320312 14.90625 51.238281 C 14.796875 51.210938 14.6875 51.128906 14.660156 51.050781 C 14.605469 50.886719 14.742188 50.695312 14.632812 50.585938 C 14.578125 50.53125 14.472656 50.53125 14.390625 50.503906 C 14.253906 50.449219 14.144531 50.3125 14.066406 50.179688 C 13.929688 49.796875 14.011719 49.226562 13.984375 48.761719 C 13.984375 48.625 13.957031 48.492188 13.957031 48.328125 C 13.957031 48.054688 13.875 47.78125 13.847656 47.511719 C 13.820312 47.375 13.792969 47.265625 13.765625 47.15625 C 13.710938 46.964844 13.683594 46.75 13.632812 46.558594 C 13.578125 46.339844 13.578125 46.121094 13.632812 45.957031 C 13.660156 45.90625 13.710938 45.851562 13.738281 45.796875 C 13.792969 45.6875 13.792969 45.578125 13.792969 45.46875 C 13.765625 45.414062 13.632812 45.46875 13.605469 45.414062 C 13.523438 44.816406 13.441406 44.242188 13.386719 43.617188 C 13.359375 43.398438 13.359375 43.210938 13.359375 42.992188 C 13.332031 42.582031 13.359375 42.148438 13.304688 41.738281 C 13.277344 41.550781 13.25 41.359375 13.226562 41.167969 C 13.144531 40.625 13.007812 39.941406 13.117188 39.371094 C 13.199219 39.019531 13.304688 38.71875 13.523438 38.445312 C 13.660156 38.253906 13.820312 38.09375 13.984375 37.902344 C 14.144531 37.738281 14.335938 37.574219 14.523438 37.4375 C 14.660156 37.355469 14.796875 37.25 14.929688 37.167969 C 15.230469 37.03125 15.636719 36.894531 16.070312 36.867188 C 16.503906 36.839844 16.992188 36.839844 17.398438 36.921875 C 17.804688 37.003906 18.210938 37.058594 18.617188 37.140625 C 18.996094 37.222656 19.375 37.328125 19.753906 37.410156 C 19.808594 37.410156 19.835938 37.464844 19.890625 37.464844 C 19.996094 37.492188 20.132812 37.492188 20.269531 37.546875 C 20.621094 37.628906 21.054688 37.683594 21.488281 37.683594 C 21.949219 37.683594 22.355469 37.683594 22.734375 37.574219 C 22.789062 37.546875 22.84375 37.519531 22.898438 37.519531 C 22.949219 37.492188 23.03125 37.492188 23.085938 37.492188 C 23.113281 37.492188 23.167969 37.4375 23.195312 37.410156 C 23.410156 37.304688 23.601562 37.195312 23.789062 37.058594 C 23.953125 36.949219 24.0625 36.867188 24.277344 36.785156 C 24.359375 36.757812 24.46875 36.703125 24.550781 36.675781 C 24.738281 36.621094 24.957031 36.566406 25.089844 36.457031 C 25.335938 36.324219 25.496094 36.105469 25.6875 35.914062 C 25.875 35.75 26.09375 35.5625 26.308594 35.398438 C 26.742188 35.042969 27.175781 34.742188 27.582031 34.417969 C 27.800781 34.253906 28.015625 34.089844 28.261719 33.953125 C 28.722656 33.683594 29.210938 33.382812 29.886719 33.328125 C 30.15625 33.300781 30.429688 33.300781 30.699219 33.328125 C 30.78125 33.328125 30.863281 33.382812 30.941406 33.355469 C 31.023438 33.328125 31.078125 33.21875 31.105469 33.136719 C 31.214844 32.949219 31.269531 32.839844 31.375 32.621094 C 31.429688 32.484375 31.402344 32.347656 31.539062 32.347656 C 31.675781 32.347656 31.648438 32.703125 31.648438 32.839844 C 31.648438 33 31.621094 33.21875 31.648438 33.328125 C 31.675781 33.410156 31.78125 33.519531 31.890625 33.519531 C 31.972656 33.519531 32.027344 33.464844 32.082031 33.410156 C 32.164062 33.355469 32.214844 33.355469 32.269531 33.300781 C 32.378906 33.21875 32.515625 33.082031 32.621094 32.976562 C 32.703125 32.894531 32.867188 32.648438 33.003906 32.675781 C 33.273438 32.703125 33.003906 33.109375 32.949219 33.21875 C 32.8125 33.519531 32.675781 33.765625 32.515625 34.035156 C 32.460938 34.144531 32.296875 34.308594 32.296875 34.445312 C 32.296875 34.527344 32.378906 34.582031 32.40625 34.691406 C 32.433594 34.742188 32.433594 34.769531 32.460938 34.824219 C 32.542969 35.042969 32.621094 35.34375 32.703125 35.589844 C 32.757812 35.804688 32.8125 36.023438 32.894531 36.214844 C 32.976562 36.40625 33.082031 36.59375 33.164062 36.8125 C 33.191406 36.867188 33.191406 36.921875 33.21875 36.976562 C 33.382812 37.410156 33.542969 37.902344 33.761719 38.335938 C 33.84375 38.5 33.949219 38.71875 33.949219 38.964844 C 33.949219 39.234375 33.816406 39.371094 33.679688 39.589844 C 33.625 39.699219 33.515625 39.863281 33.410156 39.890625 C 33.328125 39.914062 33.246094 39.890625 33.164062 39.890625 C 33.054688 39.914062 32.976562 39.96875 32.894531 39.96875 C 32.648438 39.996094 32.40625 39.808594 32.351562 39.617188 C 32.324219 39.5625 32.351562 39.480469 32.324219 39.398438 C 32.269531 39.097656 32.109375 38.964844 31.917969 38.746094 C 31.78125 38.609375 31.675781 38.527344 31.511719 38.445312 C 31.269531 38.308594 31.023438 38.253906 30.753906 38.121094 C 30.671875 38.066406 30.535156 38.011719 30.457031 38.039062 C 30.320312 38.066406 30.183594 38.28125 30.074219 38.417969 C 29.425781 39.289062 28.828125 40.1875 28.207031 41.03125 C 27.773438 41.605469 27.339844 42.175781 26.988281 42.800781 C 26.90625 42.964844 26.851562 43.15625 26.769531 43.347656 C 26.714844 43.535156 26.664062 43.726562 26.609375 43.945312 C 26.363281 44.652344 26.285156 45.523438 26.066406 46.257812 C 26.039062 46.339844 26.039062 46.421875 26.011719 46.503906 C 25.902344 46.882812 25.796875 47.320312 25.6875 47.726562 C 25.605469 48.027344 25.578125 48.4375 25.550781 48.816406 C 25.550781 49.199219 25.523438 49.714844 25.660156 49.933594 C 25.742188 50.070312 25.984375 50.097656 26.066406 50.234375 C 26.121094 50.3125 26.175781 50.503906 26.257812 50.613281 C 26.308594 50.695312 26.445312 50.859375 26.417969 50.996094 C 26.417969 51.078125 26.335938 51.15625 26.257812 51.183594 C 26.175781 51.210938 26.066406 51.210938 25.984375 51.238281 C 25.984375 51.347656 26.011719 51.457031 25.929688 51.511719 Z M 25.929688 51.511719 "/>
<path style=" stroke:none;fill-rule:nonzero;fill:rgb(94.898987%,41.178894%,13.328552%);fill-opacity:1;" d="M 116.390625 37.4375 C 114.847656 37.4375 113.710938 37.929688 112.652344 39.019531 C 111.867188 37.929688 110.730469 37.4375 109.347656 37.4375 C 108.210938 37.4375 107.046875 37.902344 106.230469 38.746094 L 106.230469 37.601562 L 103.199219 37.601562 L 103.199219 50.125 L 106.3125 50.125 L 106.3125 42.554688 C 106.3125 40.839844 107.425781 40.269531 108.398438 40.269531 C 109.375 40.269531 110.457031 40.839844 110.457031 42.554688 L 110.457031 50.125 L 113.574219 50.125 L 113.574219 42.476562 C 113.574219 40.839844 114.710938 40.269531 115.660156 40.269531 C 116.636719 40.269531 117.71875 40.839844 117.71875 42.554688 L 117.71875 50.125 L 120.835938 50.125 L 120.835938 42.121094 C 120.835938 40.761719 120.484375 39.5625 119.480469 38.554688 C 118.75 37.847656 117.636719 37.4375 116.390625 37.4375 Z M 116.390625 37.4375 "/>
<path style=" stroke:none;fill-rule:nonzero;fill:rgb(94.898987%,41.178894%,13.328552%);fill-opacity:1;" d="M 129.910156 45.167969 C 129.910156 46.882812 128.800781 47.457031 127.824219 47.457031 C 126.847656 47.457031 125.765625 46.882812 125.765625 45.167969 L 125.765625 37.574219 L 122.648438 37.574219 L 122.648438 45.605469 C 122.648438 46.964844 122.921875 48.164062 123.921875 49.171875 C 124.628906 49.878906 125.628906 50.285156 126.875 50.285156 C 128.015625 50.285156 129.179688 49.851562 129.992188 48.980469 L 129.992188 50.125 L 133.027344 50.125 L 133.027344 37.601562 L 129.910156 37.601562 Z M 129.910156 45.167969 "/>
<path style=" stroke:none;fill-rule:nonzero;fill:rgb(94.898987%,41.178894%,13.328552%);fill-opacity:1;" d="M 138.121094 46.339844 L 138.121094 33 L 135.003906 33 L 135.003906 46.53125 C 135.003906 48.300781 136.089844 50.125 138.632812 50.125 L 140.394531 50.125 L 140.394531 47.484375 L 139.203125 47.484375 C 138.417969 47.484375 138.121094 47.101562 138.121094 46.339844 Z M 138.121094 46.339844 "/>
<path style=" stroke:none;fill-rule:nonzero;fill:rgb(94.898987%,41.178894%,13.328552%);fill-opacity:1;" d="M 151.828125 43.425781 C 151.828125 39.996094 149.878906 37.4375 146.382812 37.4375 C 143.160156 37.4375 140.9375 39.753906 140.9375 43.835938 C 140.9375 48.898438 143.753906 50.261719 146.707031 50.261719 C 148.957031 50.261719 150.175781 49.550781 151.449219 48.300781 L 149.554688 46.449219 C 148.765625 47.238281 148.089844 47.621094 146.734375 47.621094 C 144.972656 47.621094 144 46.449219 144 44.84375 L 151.800781 44.84375 L 151.800781 43.425781 Z M 144.027344 42.691406 C 144.054688 42.148438 144.132812 41.792969 144.324219 41.359375 C 144.648438 40.625 145.351562 40.050781 146.410156 40.050781 C 147.464844 40.050781 148.144531 40.597656 148.496094 41.359375 C 148.6875 41.820312 148.765625 42.148438 148.792969 42.691406 Z M 144.027344 42.691406 "/>
</g>
</svg>
