<svg xmlns="http://www.w3.org/2000/svg" xmlns:xlink="http://www.w3.org/1999/xlink" width="220" zoomAndPan="magnify" viewBox="0 0 165 82.499998" height="110" preserveAspectRatio="xMidYMid meet" version="1.0"><defs><clipPath id="id1"><path d="M 0.496094 0 L 164.503906 0 L 164.503906 82.003906 L 0.496094 82.003906 Z M 0.496094 0 " clip-rule="nonzero"/></clipPath><clipPath id="id2"><path d="M 45 29 L 156.300781 29 L 156.300781 53 L 45 53 Z M 45 29 " clip-rule="nonzero"/></clipPath><clipPath id="id3"><path d="M 8.699219 25.4375 L 36 25.4375 L 36 56.746094 L 8.699219 56.746094 Z M 8.699219 25.4375 " clip-rule="nonzero"/></clipPath></defs><g clip-path="url(#id1)"><path fill="rgb(100%, 100%, 100%)" d="M 0.496094 0 L 164.503906 0 L 164.503906 82.003906 L 0.496094 82.003906 Z M 0.496094 0 " fill-opacity="1" fill-rule="nonzero"/><path fill="rgb(100%, 100%, 100%)" d="M 0.496094 0 L 164.503906 0 L 164.503906 82.003906 L 0.496094 82.003906 Z M 0.496094 0 " fill-opacity="1" fill-rule="nonzero"/><path fill="rgb(100%, 100%, 100%)" d="M 0.496094 0 L 164.503906 0 L 164.503906 82.003906 L 0.496094 82.003906 Z M 0.496094 0 " fill-opacity="1" fill-rule="nonzero"/></g><g clip-path="url(#id2)"><path fill="rgb(10.5896%, 14.118958%, 24.708557%)" d="M 51.617188 47.347656 C 50.539062 47.351562 49.484375 47.1875 48.457031 46.851562 C 47.464844 46.527344 46.585938 46.011719 45.816406 45.304688 L 47.199219 42.953125 C 47.902344 43.441406 48.648438 43.855469 49.4375 44.191406 C 50.105469 44.480469 50.800781 44.625 51.527344 44.625 C 52.019531 44.625 52.417969 44.53125 52.691406 44.34375 C 52.96875 44.191406 53.09375 43.914062 53.09375 43.570312 C 53.09375 43.261719 52.9375 42.953125 52.570312 42.765625 C 51.992188 42.488281 51.386719 42.28125 50.757812 42.148438 L 48.609375 41.4375 C 48.027344 41.191406 47.566406 40.941406 47.199219 40.664062 C 46.84375 40.429688 46.578125 40.121094 46.398438 39.734375 C 46.230469 39.339844 46.148438 38.929688 46.152344 38.5 C 46.144531 37.890625 46.265625 37.308594 46.519531 36.753906 C 46.773438 36.203125 47.132812 35.730469 47.597656 35.34375 C 48.027344 34.96875 48.578125 34.691406 49.191406 34.476562 C 49.808594 34.257812 50.484375 34.167969 51.1875 34.167969 C 52.140625 34.167969 53.03125 34.289062 53.859375 34.539062 C 54.6875 34.816406 55.488281 35.28125 56.253906 35.960938 L 54.75 38.28125 C 54.15625 37.851562 53.519531 37.492188 52.847656 37.199219 C 52.316406 36.96875 51.765625 36.855469 51.1875 36.859375 C 50.789062 36.859375 50.421875 36.921875 50.144531 37.105469 C 49.839844 37.261719 49.714844 37.539062 49.714844 37.910156 C 49.714844 38.28125 49.867188 38.527344 50.175781 38.714844 C 50.484375 38.902344 51.097656 39.085938 51.925781 39.300781 C 52.695312 39.496094 53.453125 39.734375 54.199219 40.015625 C 54.730469 40.226562 55.230469 40.492188 55.703125 40.820312 C 56.082031 41.097656 56.367188 41.453125 56.5625 41.882812 C 56.761719 42.3125 56.839844 42.761719 56.808594 43.230469 C 56.808594 44.5 56.347656 45.492188 55.394531 46.234375 C 54.472656 46.976562 53.246094 47.347656 51.617188 47.347656 Z M 66.816406 46.449219 C 66.296875 46.664062 65.683594 46.882812 65.007812 47.066406 C 64.332031 47.253906 63.65625 47.378906 62.949219 47.378906 C 62.488281 47.378906 62.039062 47.320312 61.597656 47.191406 C 61.175781 47.066406 60.796875 46.863281 60.460938 46.574219 C 60.15625 46.324219 59.910156 45.953125 59.726562 45.550781 C 59.539062 45.117188 59.417969 44.59375 59.417969 43.972656 L 59.417969 37.320312 L 57.820312 37.320312 L 57.820312 34.414062 L 59.449219 34.414062 L 59.449219 30.359375 L 63.257812 30.359375 L 63.257812 34.382812 L 65.835938 34.382812 L 65.835938 37.320312 L 63.257812 37.320312 L 63.257812 42.644531 C 63.257812 43.046875 63.347656 43.355469 63.5625 43.570312 C 63.777344 43.726562 64.054688 43.820312 64.363281 43.820312 C 64.667969 43.820312 64.976562 43.789062 65.253906 43.664062 C 65.558594 43.570312 65.835938 43.480469 66.050781 43.355469 L 66.789062 46.449219 Z M 74.003906 47.347656 C 73.015625 47.363281 72.0625 47.1875 71.148438 46.820312 C 70.347656 46.5 69.648438 46.03125 69.046875 45.410156 C 68.449219 44.792969 68.003906 44.074219 67.707031 43.261719 C 67.40625 42.453125 67.253906 41.621094 67.253906 40.757812 C 67.253906 39.894531 67.40625 39.058594 67.707031 38.25 C 68.003906 37.4375 68.449219 36.722656 69.046875 36.101562 C 69.648438 35.480469 70.347656 35.011719 71.148438 34.691406 C 71.976562 34.351562 72.929688 34.167969 74.003906 34.167969 C 74.9375 34.121094 75.839844 34.277344 76.707031 34.628906 C 77.574219 34.976562 78.332031 35.496094 78.976562 36.175781 C 79.558594 36.765625 79.988281 37.476562 80.296875 38.25 C 80.613281 39.0625 80.769531 39.902344 80.769531 40.773438 C 80.769531 41.640625 80.613281 42.484375 80.296875 43.292969 C 80 44.097656 79.554688 44.804688 78.960938 45.417969 C 78.371094 46.03125 77.679688 46.5 76.890625 46.820312 C 75.960938 47.191406 75 47.367188 74.003906 47.347656 Z M 71.238281 40.789062 C 71.238281 41.777344 71.484375 42.582031 72.007812 43.167969 C 72.558594 43.789062 73.234375 44.097656 74.03125 44.097656 C 74.847656 44.113281 75.511719 43.804688 76.027344 43.167969 C 76.285156 42.855469 76.480469 42.503906 76.613281 42.117188 C 76.765625 41.714844 76.828125 41.25 76.828125 40.789062 C 76.828125 39.765625 76.550781 38.960938 76.027344 38.375 C 75.507812 37.753906 74.832031 37.445312 74.03125 37.445312 C 73.226562 37.445312 72.558594 37.753906 72.039062 38.375 C 71.792969 38.683594 71.578125 38.992188 71.421875 39.425781 C 71.285156 39.867188 71.222656 40.324219 71.238281 40.789062 Z M 90.675781 37.722656 C 89.753906 37.722656 88.894531 37.878906 88.125 38.1875 C 87.429688 38.425781 86.886719 38.859375 86.5 39.488281 L 86.5 47.128906 L 82.660156 47.128906 L 82.660156 34.414062 L 86.191406 34.414062 L 86.191406 36.949219 C 86.621094 36.085938 87.175781 35.40625 87.882812 34.941406 C 88.554688 34.445312 89.261719 34.199219 90.03125 34.167969 L 90.429688 34.167969 L 90.675781 34.199219 Z M 92.363281 49.015625 C 92.898438 49.203125 93.457031 49.308594 94.023438 49.328125 C 94.484375 49.328125 94.851562 49.171875 95.128906 48.863281 C 95.371094 48.554688 95.585938 47.933594 95.804688 47.128906 L 91.011719 34.414062 L 94.972656 34.414062 L 97.890625 43.789062 L 100.441406 34.414062 L 104.03125 34.414062 L 99.210938 49.171875 C 99.03125 49.777344 98.746094 50.324219 98.359375 50.820312 C 97.96875 51.320312 97.507812 51.726562 96.964844 52.046875 C 96.425781 52.371094 95.847656 52.582031 95.226562 52.683594 C 94.609375 52.785156 93.992188 52.769531 93.378906 52.636719 C 93.070312 52.574219 92.703125 52.484375 92.363281 52.328125 Z M 113.121094 47.347656 C 112.167969 47.347656 111.308594 47.160156 110.601562 46.726562 C 109.871094 46.324219 109.296875 45.753906 108.882812 45.027344 L 108.882812 47.128906 L 105.535156 47.128906 L 105.535156 29.433594 L 109.40625 29.433594 L 109.40625 36.488281 C 109.824219 35.746094 110.402344 35.167969 111.140625 34.75 C 111.878906 34.335938 112.671875 34.140625 113.519531 34.167969 C 114.316406 34.167969 115.054688 34.320312 115.730469 34.691406 C 116.40625 35.003906 116.957031 35.496094 117.480469 36.085938 C 118.234375 37.140625 118.710938 38.316406 118.90625 39.601562 C 119.101562 40.890625 118.996094 42.152344 118.585938 43.386719 C 118.292969 44.164062 117.875 44.867188 117.328125 45.488281 C 116.789062 46.085938 116.152344 46.542969 115.421875 46.867188 C 114.6875 47.191406 113.921875 47.351562 113.121094 47.347656 Z M 112.046875 44.097656 C 112.351562 44.097656 112.648438 44.050781 112.9375 43.960938 C 113.226562 43.867188 113.496094 43.730469 113.742188 43.554688 C 113.992188 43.375 114.207031 43.164062 114.386719 42.917969 C 114.570312 42.675781 114.710938 42.40625 114.808594 42.117188 C 115.035156 41.496094 115.09375 40.855469 114.992188 40.199219 C 114.886719 39.546875 114.632812 38.957031 114.226562 38.4375 C 113.984375 38.117188 113.6875 37.871094 113.332031 37.695312 C 112.972656 37.523438 112.597656 37.4375 112.199219 37.445312 C 111.617188 37.445312 111.0625 37.664062 110.542969 38.066406 C 110.03125 38.511719 109.640625 39.046875 109.375 39.671875 L 109.375 42.335938 C 109.621094 42.859375 109.988281 43.28125 110.476562 43.59375 C 110.964844 43.90625 111.496094 44.0625 112.074219 44.066406 Z M 120.886719 29.433594 L 124.726562 29.433594 L 124.726562 42.582031 C 124.726562 43.570312 125.125 44.035156 125.953125 44.035156 C 126.398438 44.039062 126.820312 43.933594 127.214844 43.726562 L 127.734375 46.605469 C 126.648438 47.082031 125.511719 47.332031 124.328125 47.347656 C 123.222656 47.347656 122.363281 47.035156 121.777344 46.480469 C 121.164062 45.863281 120.859375 45.058594 120.859375 43.941406 L 120.859375 29.433594 Z M 134.980469 47.347656 C 133.996094 47.363281 133.042969 47.1875 132.125 46.820312 C 131.320312 46.503906 130.617188 46.035156 130.011719 45.414062 C 129.40625 44.796875 128.957031 44.078125 128.65625 43.261719 C 128.4375 42.664062 128.300781 42.050781 128.246094 41.417969 C 128.195312 40.78125 128.222656 40.152344 128.335938 39.527344 C 128.449219 38.902344 128.644531 38.300781 128.917969 37.730469 C 129.1875 37.15625 129.53125 36.628906 129.945312 36.148438 C 130.558594 35.527344 131.234375 35.0625 132.09375 34.691406 C 132.925781 34.351562 133.875 34.167969 134.949219 34.167969 C 135.886719 34.121094 136.789062 34.277344 137.65625 34.628906 C 138.523438 34.976562 139.28125 35.496094 139.925781 36.175781 C 140.539062 36.765625 140.9375 37.476562 141.246094 38.25 C 141.472656 38.847656 141.613281 39.460938 141.671875 40.097656 C 141.730469 40.730469 141.703125 41.363281 141.589844 41.988281 C 141.476562 42.617188 141.28125 43.21875 141.003906 43.789062 C 140.726562 44.363281 140.375 44.890625 139.957031 45.367188 C 139.347656 46.011719 138.632812 46.5 137.804688 46.820312 C 136.890625 47.1875 135.9375 47.363281 134.949219 47.347656 Z M 132.1875 40.789062 C 132.1875 41.777344 132.433594 42.582031 132.953125 43.167969 C 133.507812 43.789062 134.183594 44.097656 134.980469 44.097656 C 135.792969 44.109375 136.460938 43.800781 136.976562 43.167969 C 137.234375 42.855469 137.429688 42.503906 137.558594 42.117188 C 137.714844 41.714844 137.777344 41.25 137.777344 40.789062 C 137.777344 39.765625 137.5 38.960938 136.976562 38.375 C 136.457031 37.753906 135.78125 37.445312 134.980469 37.445312 C 134.171875 37.445312 133.507812 37.753906 132.984375 38.375 C 132.738281 38.683594 132.523438 38.992188 132.371094 39.425781 C 132.21875 39.859375 132.1875 40.292969 132.1875 40.789062 Z M 152.113281 47.128906 L 148.828125 41.996094 L 147.476562 43.417969 L 147.476562 47.128906 L 143.640625 47.128906 L 143.640625 29.433594 L 147.476562 29.433594 L 147.476562 39.671875 L 151.746094 34.414062 L 155.832031 34.414062 L 151.285156 39.890625 L 156.199219 47.128906 Z M 152.113281 47.128906 " fill-opacity="1" fill-rule="evenodd"/></g><path fill="rgb(100%, 100%, 100%)" d="M 12.324219 28.980469 L 31.703125 28.980469 L 31.703125 48.476562 L 12.324219 48.476562 Z M 12.324219 28.980469 " fill-opacity="1" fill-rule="nonzero"/><path fill="rgb(0%, 70.199585%, 69.018555%)" d="M 24.152344 39.871094 L 18.054688 39.871094 L 18.054688 42.757812 L 24.007812 42.757812 C 24.359375 42.757812 24.679688 42.613281 24.945312 42.382812 C 25.179688 42.148438 25.324219 41.804688 25.324219 41.371094 C 25.332031 40.988281 25.226562 40.640625 25.003906 40.332031 C 24.765625 40.042969 24.503906 39.871094 24.152344 39.871094 Z M 24.359375 36.375 C 24.621094 36.203125 24.738281 35.828125 24.738281 35.335938 C 24.738281 34.90625 24.621094 34.585938 24.414062 34.382812 C 24.195312 34.195312 23.941406 34.097656 23.652344 34.097656 L 18.054688 34.097656 L 18.054688 36.695312 L 23.535156 36.695312 C 23.832031 36.695312 24.121094 36.550781 24.359375 36.375 Z M 24.359375 36.375 " fill-opacity="1" fill-rule="evenodd"/><g clip-path="url(#id3)"><path fill="rgb(0%, 70.199585%, 69.018555%)" d="M 34.054688 25.4375 L 10.171875 25.4375 C 9.410156 25.4375 8.800781 26.046875 8.800781 26.777344 L 8.800781 50.765625 C 8.800781 51.496094 9.410156 51.953125 10.140625 51.953125 L 13.667969 51.953125 L 13.667969 56.746094 L 18.050781 51.984375 L 34.054688 51.984375 C 34.785156 51.984375 35.238281 51.527344 35.238281 50.765625 L 35.238281 26.808594 C 35.238281 26.078125 34.785156 25.464844 34.023438 25.464844 Z M 30.039062 44.875 C 29.734375 45.425781 29.277344 45.882812 28.730469 46.21875 C 28.152344 46.582031 27.511719 46.917969 26.78125 47.074219 C 26.050781 47.253906 25.261719 47.40625 24.4375 47.40625 L 13.667969 47.40625 L 13.667969 30.320312 L 25.898438 30.320312 C 26.507812 30.320312 27.027344 30.441406 27.511719 30.714844 C 27.980469 30.964844 28.382812 31.289062 28.730469 31.691406 C 29.433594 32.550781 29.777344 33.539062 29.765625 34.652344 C 29.765625 35.445312 29.550781 36.207031 29.15625 36.941406 C 28.734375 37.699219 28.125 38.25 27.328125 38.589844 C 28.304688 38.863281 29.0625 39.351562 29.640625 40.054688 C 30.191406 40.785156 30.464844 41.730469 30.464844 42.921875 C 30.464844 43.683594 30.3125 44.324219 30.007812 44.875 Z M 30.039062 44.875 " fill-opacity="1" fill-rule="evenodd"/></g></svg>