<svg version="1.1" xmlns="http://www.w3.org/2000/svg" xmlns:xlink="http://www.w3.org/1999/xlink" x="0px" y="0px" viewBox="0 0 512 512" style="enable-background:new 0 0 180 180;" xml:space="preserve" width="40px" height="40px"><path d="M256,109.3c47.8,0,53.4.2,72.3,1,17.4.8,26.9,3.7,33.2,6.2a54.47,54.47,0,0,1,20.6,13.4,55.69,55.69,0,0,1,13.4,20.6c2.5,6.3,5.4,15.8,6.2,33.2.9,18.9,1,24.5,1,72.3s-.2,53.4-1,72.3c-.8,17.4-3.7,26.9-6.2,33.2a54.47,54.47,0,0,1-13.4,20.6,55.69,55.69,0,0,1-20.6,13.4c-6.3,2.5-15.8,5.4-33.2,6.2-18.9.9-24.5,1-72.3,1s-53.4-.2-72.3-1c-17.4-.8-26.9-3.7-33.2-6.2a54.47,54.47,0,0,1-20.6-13.4,55.69,55.69,0,0,1-13.4-20.6c-2.5-6.3-5.4-15.8-6.2-33.2-.9-18.9-1-24.5-1-72.3s.2-53.4,1-72.3c.8-17.4,3.7-26.9,6.2-33.2a54.47,54.47,0,0,1,13.4-20.6,55.69,55.69,0,0,1,20.6-13.4c6.3-2.5,15.8-5.4,33.2-6.2,18.9-.8,24.5-1,72.3-1m0-32.2c-48.6,0-54.7.2-73.8,1.1s-32.1,3.9-43.4,8.3a88.77,88.77,0,0,0-31.7,20.6,86.62,86.62,0,0,0-20.6,31.7c-4.4,11.4-7.4,24.4-8.3,43.4s-1.1,25.2-1.1,73.8.2,54.7,1.1,73.8,3.9,32.1,8.3,43.4a88.77,88.77,0,0,0,20.6,31.7,86.62,86.62,0,0,0,31.7,20.6c11.4,4.4,24.4,7.4,43.4,8.3s25.2,1.1,73.8,1.1,54.7-.2,73.8-1.1,32.1-3.9,43.4-8.3a88.77,88.77,0,0,0,31.7-20.6,86.62,86.62,0,0,0,20.6-31.7c4.4-11.4,7.4-24.4,8.3-43.4s1.1-25.2,1.1-73.8-.2-54.7-1.1-73.8-3.9-32.1-8.3-43.4a88.77,88.77,0,0,0-20.6-31.7,86.62,86.62,0,0,0-31.7-20.6c-11.4-4.4-24.4-7.4-43.4-8.3s-25.2-1.1-73.8-1.1Z"/><path d="M256,164.1A91.9,91.9,0,1,0,347.9,256,91.91,91.91,0,0,0,256,164.1Zm0,151.5A59.6,59.6,0,1,1,315.6,256,59.62,59.62,0,0,1,256,315.6Z"/><circle cx="351.5" cy="160.5" r="21.5"/></svg>