<?xml version="1.0" encoding="utf-8"?>
<!-- Generator: Adobe Illustrator 24.1.0, SVG Export Plug-In . SVG Version: 6.00 Build 0)  -->
<svg version="1.1" id="Livello_1" xmlns="http://www.w3.org/2000/svg" xmlns:xlink="http://www.w3.org/1999/xlink" x="0px" y="0px"
	 viewBox="0 0 180 180" style="enable-background:new 0 0 180 180;" xml:space="preserve" width="40px" height="40px">
<style type="text/css">
	.st0{fill:#FFFFFF;}
</style>
<path class="st0" d="M-990.43-67.18c-36.64,0-73.28,0-109.98,0c0-36.81,0-73.64,0-110.56c36.62,0,73.3,0,109.98,0
	C-990.43-140.94-990.43-104.07-990.43-67.18z M-1046.75-161.89c-21.27,0.03-38.35,17.12-38.34,38.38
	c0,20.88,17.44,38.15,38.41,38.06c21.04-0.1,38.09-17.32,38.03-38.42C-1008.71-144.79-1025.87-161.92-1046.75-161.89z"/>
<path class="st0" d="M-1016.79-123.56c-0.02,16.29-13.61,29.87-29.99,29.95c-16.28,0.08-30.14-13.63-30.14-29.8
	c0-16.72,13.61-30.42,30.15-30.35C-1030.28-153.7-1016.78-140.09-1016.79-123.56z M-1049.86-130.95c0,2.18,0.15,4.37-0.04,6.54
	c-0.21,2.49,0.65,4.3,2.45,5.99c3.32,3.1,6.48,6.37,9.66,9.62c1.54,1.57,3.16,2.57,5.17,0.9c1.68-1.4,1.44-3.3-0.63-5.39
	c-2.93-2.96-6-5.8-8.81-8.86c-0.85-0.93-1.45-2.43-1.5-3.69c-0.18-4.54-0.05-9.1-0.08-13.65c-0.02-2.04-1.16-3.28-3.15-3.29
	c-2.01,0-3.07,1.24-3.07,3.3C-1049.85-136.64-1049.86-133.8-1049.86-130.95z"/>
<g>
	<path d="M90,43.86c-25.44,0-46.14,20.7-46.14,46.14s20.7,46.14,46.14,46.14s46.14-20.7,46.14-46.14S115.44,43.86,90,43.86z
		 M125.26,93.44h3.45c-1.64,18.6-16.43,33.49-35.02,35.24v-3.67c0-1.85-1.5-3.35-3.35-3.35s-3.35,1.5-3.35,3.35v3.72
		c-18.94-1.45-34.02-16.37-35.68-35.3h4.11c1.85,0,3.35-1.51,3.35-3.36s-1.5-3.35-3.35-3.35h-4.12
		c1.58-19.02,16.67-34.02,35.7-35.48v3.9c0,1.85,1.5,3.35,3.35,3.35s3.35-1.5,3.35-3.35v-3.84c18.68,1.76,33.48,16.72,35.04,35.42
		h-3.46c-1.85,0-3.35,1.5-3.35,3.35S123.41,93.44,125.26,93.44z"/>
	<path d="M110.17,105.72L93.7,89.26V70.55c0-1.88-1.53-3.41-3.41-3.41c-1.88,0-3.41,1.53-3.41,3.41v20.1c0,0.63,0.19,1.22,0.49,1.73
		c0.15,0.26,0.32,0.51,0.54,0.73l17.44,17.44c1.33,1.33,3.5,1.33,4.82,0S111.5,107.05,110.17,105.72z"/>
</g>
</svg>
