<?xml version="1.0" encoding="utf-8"?>
<!-- Generator: Adobe Illustrator 24.1.0, SVG Export Plug-In . SVG Version: 6.00 Build 0)  -->
<svg version="1.1" id="Livello_1" xmlns="http://www.w3.org/2000/svg" xmlns:xlink="http://www.w3.org/1999/xlink" x="0px" y="0px"
	 viewBox="0 0 180 180" style="enable-background:new 0 0 180 180;" xml:space="preserve" width="120px" height="120px">
<g>
	<path d="M125.73,107.11c0.06,1.73,0.14,3.46,0.16,5.19c0.01,1.18-0.02,1.16-1.13,0.83c-2.22-0.65-4.43-1.32-6.67-1.87
		c-3.53-0.87-7.07-1.73-10.63-2.46c-3.01-0.61-6.05-1.08-9.08-1.52c-2.67-0.39-5.35-0.72-8.03-0.98c-2.94-0.28-5.89-0.52-8.83-0.61
		c-4.25-0.14-8.5-0.2-12.75-0.16c-3.01,0.03-6.02,0.24-9.02,0.46c-3.15,0.23-6.29,0.58-9.44,0.87c-1.11,0.1-1.16,0.12-1.62-0.9
		c-1.22-2.72-2.45-5.43-3.57-8.19c-1.17-2.89-2.06-5.88-2.66-8.94c-0.42-2.16-0.71-4.35-0.96-6.54c-0.25-2.25-0.39-4.52-0.53-6.78
		c-0.07-1.07-0.19-0.94,0.9-1.38c3.43-1.4,6.9-2.74,10.31-4.21c4.71-2.03,9.29-4.34,13.78-6.82c5.75-3.17,11.31-6.64,16.69-10.4
		c6.27-4.38,12.19-9.18,17.83-14.34c1.83-1.67,3.57-3.43,5.36-5.14c0.42-0.4,0.5-0.38,0.77,0.14c2.05,4.03,3.98,8.11,5.63,12.32
		c1.4,3.58,2.78,7.17,4.03,10.8c1.08,3.14,2.03,6.33,2.92,9.53c0.9,3.23,1.71,6.48,2.44,9.76c0.66,2.96,1.22,5.96,1.72,8.95
		c0.52,3.15,0.98,6.31,1.34,9.47c0.35,3.06,0.55,6.15,0.8,9.22c0.1,1.23,0.16,2.47,0.23,3.71
		C125.71,107.11,125.72,107.11,125.73,107.11z"/>
	<path d="M72.52,109.07c4.67,0.01,8.7,0.33,12.7,0.95c0.47,0.07,0.93,0.22,1.4,0.3c0.44,0.08,0.63,0.33,0.7,0.75
		c0.21,1.29,0.26,2.6-0.05,3.87c-0.62,2.5-1.34,4.98-1.96,7.48c-0.29,1.2-0.59,2.43-0.61,3.65c-0.05,2.68,0.01,5.37,0.14,8.04
		c0.1,1.97,0.83,3.8,1.5,5.64c0.61,1.67,1.23,3.32,1.78,5.01c0.67,2.07-0.08,3.78-1.56,5.22c-1.45,1.41-3.27,2.17-5.2,2.63
		c-0.93,0.22-1.87,0.37-2.82,0.5c-2.35,0.3-4.32-0.53-6.07-2.05c-2.22-1.93-3.85-4.3-5.21-6.87c-1.82-3.43-3.14-7.05-4.11-10.8
		c-0.66-2.57-1.27-5.15-1.77-7.75c-0.5-2.61-1.8-4.75-3.52-6.67c-1.25-1.4-2.59-2.72-3.87-4.09c-0.38-0.41-0.74-0.86-1.04-1.33
		c-0.36-0.57-0.24-1.03,0.3-1.44c0.73-0.56,1.59-0.82,2.46-1.03C61.41,109.67,67.25,109.1,72.52,109.07z"/>
	<path d="M33.67,109.84c-5.37-0.39-9.84-2.6-12.6-7.55c-0.77-1.38-1.16-3-1.58-4.54c-0.43-1.59-0.75-3.22-1.01-4.85
		c-0.26-1.65-0.01-3.28,0.48-4.86c1.18-3.79,3.55-6.64,6.98-8.6c1.43-0.82,3.02-1.26,4.6-1.71c1.58-0.45,3.15-0.92,4.71-1.4
		c0.66-0.2,0.96-0.08,1.03,0.61c0.16,1.47,0.25,2.94,0.38,4.41c0.29,3.32,0.81,6.6,1.56,9.84c1.22,5.27,3.16,10.28,5.41,15.18
		c0.15,0.32,0.27,0.66,0.41,0.99c0.12,0.28,0.06,0.44-0.27,0.51c-2.92,0.62-5.83,1.26-8.74,1.87
		C34.64,109.81,34.23,109.79,33.67,109.84z"/>
	<path d="M134.67,112c0,0.86-0.01,1.73,0,2.59c0.01,0.79-0.35,1.38-1.01,1.78c-1.07,0.65-2.23,0.91-3.47,0.63
		c-0.66-0.15-1.1-0.55-1.17-1.24c-0.13-1.18-0.23-2.37-0.31-3.56c-0.19-2.98-0.32-5.96-0.55-8.93c-0.2-2.59-0.45-5.17-0.78-7.74
		c-0.39-3.06-0.83-6.12-1.35-9.16c-0.56-3.27-1.2-6.54-1.87-9.79c-0.45-2.2-0.99-4.39-1.55-6.57c-0.77-2.99-1.53-5.98-2.41-8.93
		c-0.93-3.14-1.92-6.27-3.01-9.36c-1.24-3.53-2.54-7.04-3.97-10.49c-1.53-3.69-3.24-7.3-4.87-10.95c-0.19-0.44-0.35-0.89-0.53-1.33
		c-0.17-0.4-0.06-0.74,0.23-1.02c0.17-0.16,0.37-0.31,0.57-0.43c0.8-0.46,1.68-0.61,2.58-0.67c0.91-0.06,1.67,0.31,2.09,1.12
		c0.67,1.28,1.3,2.58,1.85,3.92c2.17,5.29,4.42,10.56,6.42,15.92c1.79,4.77,3.4,9.61,4.89,14.48c1.26,4.11,2.34,8.29,3.29,12.49
		c0.91,3.99,1.65,8.03,2.27,12.08c0.68,4.37,1.21,8.77,1.68,13.17c0.43,3.99,0.69,7.99,1.02,11.99
		C134.7,111.99,134.69,112,134.67,112z"/>
	<path d="M142.23,73.11c0,5.77-1.78,11.12-4.81,15.54l5.85,2.93c3.45-5.32,5.46-11.66,5.46-18.47c0-12.78-7.06-23.91-17.48-29.72
		l-3.1,5.72C136.56,53.82,142.23,62.8,142.23,73.11z"/>
	<path d="M154.73,73.11c0,7.77-2.23,15.02-6.06,21.16l6.51,3.25c4.31-7.13,6.79-15.48,6.79-24.42c0-17.81-9.86-33.31-24.41-41.36
		l-3.45,6.37C146.41,44.94,154.73,58.05,154.73,73.11z"/>
</g>
</svg>
