<?xml version="1.0" encoding="utf-8"?>
<!-- Generator: Adobe Illustrator 24.0.3, SVG Export Plug-In . SVG Version: 6.00 Build 0)  -->
<svg version="1.1" id="Livello_1" xmlns="http://www.w3.org/2000/svg" xmlns:xlink="http://www.w3.org/1999/xlink" x="0px" y="0px"
	 viewBox="0 0 180 180" style="enable-background:new 0 0 180 180;" xml:space="preserve" width="120px" heigth="120px">
<g>
	<path d="M39.9,79.9c-6.5-2.2-12.7-4.3-18.8-6.4c-1.8-0.6-3.8-1.1-3.8-3.5c0-2.4,1.8-3,3.7-3.6c22.1-7.5,44.2-15.1,66.4-22.6
		c1.6-0.6,3.8-0.5,5.4,0c22.2,7.4,44.3,15,66.4,22.6c1.9,0.6,3.6,0.9,3.6,3.6c0.1,1.9-2.2,3-3.7,3.5c-21.9,7.6-43.9,15.2-66,22.6
		c-1.8,0.6-4.2,0.6-6,0c-12.7-4.2-25.4-8.5-38-13c-2.2-0.8-3.5-0.4-4.5,1.6c-1.9,3.9-3.4,7.5-4.1,11.4c-0.4,2-0.1,3.8,1.9,5.4
		c3.8,2.9,3.8,8.3,0.3,11.6c-1.3,1.3-1.6,2.3-1.3,4.1c1.3,8.1,2.3,16.2,3.6,24.2c0.4,2.4-0.6,4-2.6,4.2c-3.4,0.4-7,0.4-10.4,0.1
		c-2.4-0.3-3.2-2.2-2.8-4.7c1.3-8,2.5-16,3.5-24c0.2-1.2-0.4-2.8-1.2-3.7c-3.5-3.8-3.3-8.9,0.6-12.3c0.8-0.7,1.8-1.7,1.8-2.6
		C33.9,91.7,36.1,85.8,39.9,79.9z"/>
	<path d="M129.6,88.5c0.5,8.2,1.1,16,1.2,23.8c0.1,3.5-2.7,5.8-5.5,7.6c-6.1,4-13,5.9-20,6.9c-14.2,2-28.2,1.8-41.9-2.8
		c-1.6-0.5-3.1-1.2-4.7-1.9c-8.2-3.9-10-7-9.3-16c0.2-2.9,0.9-14.4,1.1-17.6c1.2,0.3,24.6,8.4,35.4,11.8c2.5,0.8,5.7,0.8,8.2,0
		C104.8,97,128.1,88.9,129.6,88.5z"/>
</g>
</svg>
