<?xml version="1.0" encoding="utf-8"?>
<!-- Generator: Adobe Illustrator 24.0.3, SVG Export Plug-In . SVG Version: 6.00 Build 0)  -->
<svg version="1.1" id="Livello_1" xmlns="http://www.w3.org/2000/svg" xmlns:xlink="http://www.w3.org/1999/xlink" x="0px" y="0px"
	 viewBox="0 0 180 180" style="enable-background:new 0 0 180 180;" xml:space="preserve" width="40px" height="40px">
<style type="text/css">
	.st0{fill-rule:evenodd;clip-rule:evenodd;}
</style>
<g>
	<g>
		<g>
			<path class="st0" d="M76.6,44.8l-3.4,13.8l-3.5-13.8h-5.5l6.3,20.7v13.9h5.2V65l6.3-20.2H76.6z M95.6,58.7
				c-0.4-5.8-6.8-5.4-6.8-5.4c-6.7,0.1-6.8,5.6-6.8,5.6V74c0,6,6.8,6.2,6.8,6.2c7.2,0,6.8-6.5,6.8-6.5V58.7z M88.5,75.7
				c0,0-1.8,0.1-1.8-1.7V59.5c0,0-0.1-1.8,2.1-2.1c0,0,2,0.3,2,2v14.4C90.7,73.7,91.5,75.7,88.5,75.7z M108.6,53.7v19.8
				c-3.9,4.6-4.2,0.7-4.2,0.7V53.7h-4.7L99.5,76c0,3.3,2.4,3.9,2.4,3.9c3.9,0.9,6.7-3,6.7-3v3h4.8V53.7H108.6z"/>
		</g>
	</g>
	<g>
		<g>
			<path class="st0" d="M117.1,84.3H62.6c-10.2,0.1-11.1,10.6-11.1,10.6v29.9c1.8,10.6,11.8,10.5,11.8,10.5h54.2
				c11-1.1,11-11.3,11-11.3V95.6C128,84.1,117.1,84.3,117.1,84.3z M67.6,126.8h-5.1V97.3H57V92h16.2v5.4h-5.6V126.8z M86.7,126.7
				h-4.8v-2.5c-7.6,7.6-8.6-0.4-8.6-0.4v-22.9h4.8v20.4c1.6,3.3,3.7-1,3.7-1v-19.4h5V126.7z M100.5,127.3c0,0-2,0.4-4.6-2.6l0.1,2.1
				h-4.7V92h4.6v11c0,0,1.8-2.4,5-2.2c0,0,3.7,0.3,3.8,4.6v17.2C104.7,122.5,104.9,127.2,100.5,127.3z M115.4,127.7
				c0,0-6,0.4-6.8-6.8v-14.5c0,0,0.6-6,7.1-5.9c0,0,6.8,0,6.8,5.6v8.6h-8.9v6.7c0,0-0.4,1.7,2.1,1.6c0,0,2-0.1,2-2v-3.5h4.8l0.1,3.4
				C122.6,120.9,123.4,127.9,115.4,127.7z M96.2,106v15.7c3.1,3.1,3.9-0.3,3.9-0.3v-14.8C99.2,103.1,96.2,106,96.2,106z
				 M117.8,110.6l-0.1-3.1c0-2.2-2.2-2-2.2-2c-2.4,0-2,1.8-2,1.8v3.3H117.8z"/>
		</g>
	</g>
</g>
</svg>
