<?xml version="1.0" encoding="utf-8"?>
<!-- Generator: Adobe Illustrator 24.1.0, SVG Export Plug-In . SVG Version: 6.00 Build 0)  -->
<svg version="1.1" id="Livello_1" xmlns="http://www.w3.org/2000/svg" xmlns:xlink="http://www.w3.org/1999/xlink" x="0px" y="0px"
	 viewBox="0 0 180 180" style="enable-background:new 0 0 180 180;" xml:space="preserve" width="120px" height="120px">
<g>
	<path d="M128.64,114.52c-0.22-0.05-0.53-0.21-0.68-0.37v-0.87c0-1.65-1.35-3-3-3H55.15c-1.65,0-3,1.35-3,3v0.63
		c0,0.02-0.01,0.04-0.01,0.07c-0.02,0.21-0.49,0.47-0.79,0.54c-5.34,1.32-6.49,5.1-6.39,9.79c0,0.2,0.01,0.4,0.02,0.6
		c0,0.03,0,0.06,0,0.08c0.18,4.29,0.24,4.52,4.58,4.53h80.87c4.34-0.01,4.4-0.24,4.58-4.53c0-0.03,0-0.05,0-0.08
		c0.01-0.2,0.02-0.4,0.02-0.6C135.13,119.63,133.98,115.85,128.64,114.52z"/>
	<path d="M52.63,100.97C52.63,100.97,52.63,100.97,52.63,100.97c0,0.03-0.01,0.06-0.01,0.09c0.04,0.28,0.24,0.57,0.51,0.84
		c0,0,0,0,0,0c0.13,0.16,0.27,0.3,0.43,0.43c0.02,0.02,0.05,0.04,0.07,0.06c0.1,0.08,0.2,0.15,0.31,0.21
		c0.09,0.05,0.18,0.1,0.28,0.15c0.06,0.03,0.12,0.05,0.18,0.08c0.14,0.06,0.29,0.1,0.44,0.14c0.03,0.01,0.07,0.01,0.1,0.02
		c0.18,0.03,0.36,0.06,0.54,0.06h68.36c0.19,0,0.37-0.02,0.54-0.06c0.03-0.01,0.07-0.01,0.1-0.02c0.15-0.03,0.3-0.08,0.44-0.14
		c0.06-0.02,0.12-0.05,0.18-0.08c0.09-0.05,0.19-0.1,0.28-0.15c0.11-0.06,0.21-0.14,0.31-0.21c0.02-0.02,0.05-0.04,0.07-0.06
		c0.16-0.13,0.3-0.28,0.43-0.43c0,0,0,0,0,0c0.27-0.27,0.48-0.57,0.51-0.84c0-0.03,0-0.06-0.01-0.09c0,0,0,0,0,0
		c0.05-0.14,0.09-0.29,0.12-0.44c0.03-0.16,0.05-0.33,0.05-0.51c0-0.21-0.02-0.41-0.06-0.61c-0.28-1.38-1.51-2.42-2.97-2.42h-0.81
		c-0.16-0.75-0.3-1.47-0.4-2.19c-1.61-11.49-9.13-21.46-19.36-26.2c-0.03-0.01-0.06-0.03-0.09-0.04c-2.12-0.97-4.36-1.73-6.68-2.22
		c-0.45-0.1-0.92-0.22-1.37-0.37c-1.73-0.78-2.05-2.33-1.69-3.44c2.31-1.48,4.88-1.48,5.25-2.82c0.83-3-0.28-5.95-3.16-7.83
		c-2.9-1.9-9.13-1.85-12,0.06c-0.35,0.23-0.62,0.49-0.82,0.76c-2.07,1.86-2.81,4.41-2.09,7.01c0.37,1.34,2.94,1.34,5.25,2.82
		c0.33,1.01,0.1,2.38-1.23,3.21c-0.59,0.27-1.22,0.48-1.82,0.6c-2.32,0.49-4.56,1.24-6.68,2.22c-0.03,0.01-0.06,0.03-0.09,0.04
		C65.83,73.33,58.31,83.3,56.7,94.8c-0.1,0.72-0.24,1.44-0.4,2.19h-0.81c-1.46,0-2.68,1.04-2.97,2.42c-0.04,0.2-0.06,0.4-0.06,0.61
		c0,0.17,0.02,0.34,0.05,0.51C52.54,100.68,52.58,100.82,52.63,100.97z"/>
</g>
</svg>
