<?xml version="1.0" encoding="utf-8"?>
<!-- Generator: Adobe Illustrator 24.0.3, SVG Export Plug-In . SVG Version: 6.00 Build 0)  -->
<svg version="1.1" id="Livello_1" xmlns="http://www.w3.org/2000/svg" xmlns:xlink="http://www.w3.org/1999/xlink" x="0px" y="0px"
	 viewBox="0 0 180 180" style="enable-background:new 0 0 180 180;" xml:space="preserve" width="40px" height="40px">
<g>
	<path d="M69.2,62.2L69.2,62.2c-1.9,0-3.5-1.6-3.5-3.5V48.4c0-1.9,1.6-3.5,3.5-3.5h0c1.9,0,3.5,1.6,3.5,3.5v10.3
		C72.7,60.6,71.1,62.2,69.2,62.2z"/>
	<path d="M110.8,62.2L110.8,62.2c-1.9,0-3.5-1.6-3.5-3.5V48.4c0-1.9,1.6-3.5,3.5-3.5l0,0c1.9,0,3.5,1.6,3.5,3.5v10.3
		C114.3,60.6,112.7,62.2,110.8,62.2z"/>
	<path d="M125.1,51.8h-7.3v6.9c0,3.8-3.1,7-7,7c-3.8,0-7-3.1-7-7v-6.9H76.2v6.9c0,3.8-3.1,7-7,7c-3.8,0-7-3.1-7-7v-6.9h-7.3
		c-5.5,0-10,4.5-10,10v63.4c0,5.5,4.5,10,10,10h70.3c5.5,0,10-4.5,10-10V61.8C135.1,56.3,130.6,51.8,125.1,51.8z M128.2,123.2
		c0,2.8-2.2,5-5,5H56.8c-2.8,0-5-2.3-5-5V76.2h76.4V123.2z"/>
</g>
</svg>
