<?xml version="1.0" encoding="utf-8"?>
<!-- Generator: Adobe Illustrator 24.0.3, SVG Export Plug-In . SVG Version: 6.00 Build 0)  -->
<svg version="1.1" id="Livello_1" xmlns="http://www.w3.org/2000/svg" xmlns:xlink="http://www.w3.org/1999/xlink" x="0px" y="0px"
	 viewBox="0 0 180 180" style="enable-background:new 0 0 180 180;" xml:space="preserve" width="100px" height="100px">
<path d="M35.2,108.6c0,6.3,5,11.4,11.2,11.4h87.2c6.2,0,11.2-5.1,11.2-11.4H35.2z M115.3,85.7c-0.7,0-1.6,0-1.6,0V66.4h1.6
	c5.2,0,9.5,4.3,9.5,9.6C124.8,81.3,120.6,85.7,115.3,85.7 M113.7,95.4c0-0.5,0-2.5,0-3.4h1.6c8.7,0,15.7-7.2,15.7-16
	s-7.1-16-15.8-16l-52.4,0v35.4c0,4.4,3.5,7.9,7.8,7.9h35.2C110.2,103.4,113.7,99.8,113.7,95.4"/>
</svg>
