<?xml version="1.0" encoding="utf-8"?>
<!-- Generator: Adobe Illustrator 24.1.0, SVG Export Plug-In . SVG Version: 6.00 Build 0)  -->
<svg version="1.1" id="Livello_1" xmlns="http://www.w3.org/2000/svg" xmlns:xlink="http://www.w3.org/1999/xlink" x="0px" y="0px"
	 viewBox="0 0 180 180" style="enable-background:new 0 0 180 180;" xml:space="preserve" width="120px" heigth="120px">
<g>
	<path d="M92.41,44.69c2.3,1.14,3.74,3.01,4.98,5.24c13.48,24.26,41.66,74.72,42.21,75.72c0.79,1.97,0.79,3.27,0.32,4.64
		c-1.27,3.94-5.06,5.37-9.51,5.35c-27.04-0.14-54.09-0.13-81.13-0.01c-4.18,0.02-7.21-1.2-9.02-5.02c-0.43-1.31-0.85-2.67,0-4.47
		c14.7-25.9,29.38-51.81,44.18-77.65c0.88-1.53,2.39-3.19,4-3.81C89.73,44.28,91.05,44.19,92.41,44.69z M130.55,130.57
		c4.04,0,5.07-1.72,3.11-5.25L92.65,51.9c-0.48-0.85-1.18-2-2.11-2c-0.99,0-1.84,1.2-2.36,2.1l-41.51,72.87
		c-2.52,4.3-1.9,5.7,3.18,5.7L130.55,130.57z"/>
	<path d="M97.71,76.46c0,0-1.16,16.66-1.83,25.39c-0.24,3.11-2.36,5.08-5.08,5.02c-2.65-0.06-4.63-2.02-4.88-4.96
		c-0.7-8.23-2.03-24.69-2.03-24.69c-0.35-4.72,2.44-7,7.17-6.95C95.03,70.3,97.94,73.08,97.71,76.46z"/>
	<path d="M97.84,116.83c-0.08,3.73-3.46,6.96-7.13,6.8c-3.65-0.15-6.75-3.4-6.69-6.99c0.07-3.74,3.43-6.94,7.12-6.79
		C94.81,110,97.91,113.24,97.84,116.83z"/>
</g>
</svg>
