<?xml version="1.0" encoding="utf-8"?>
<!-- Generator: Adobe Illustrator 24.0.3, SVG Export Plug-In . SVG Version: 6.00 Build 0)  -->
<svg version="1.1" id="Livello_1" xmlns="http://www.w3.org/2000/svg" xmlns:xlink="http://www.w3.org/1999/xlink" x="0px" y="0px" viewBox="0 0 180 180" style="enable-background:new 0 0 180 180;" xml:space="preserve" width="40px" height="40px">
<g>
	<path d="M47.5,134.3c-2.3,0-2.8-0.5-2.6-2.7c0.3-3.5,0.6-7,1.1-10.5c0.5-3.7,2.7-6.1,6.3-7.1c7-1.9,13.3-5.3,18.8-10
		c2-1.7,2.3-1.6,4.4,0c9.3,6.7,19.7,6.7,28.9,0c2.2-1.6,2.4-1.6,4.5,0.1c4,3.2,8.1,6.1,12.9,7.9c2.1,0.8,4.2,1.4,6.3,2.1
		c3,0.9,5.1,2.8,5.5,5.9c0.6,4.1,0.9,8.3,1.3,12.5c0.1,1.1-0.6,1.6-1.6,1.7C133.1,134.3,47.5,134.3,47.5,134.3z"/>
	<path d="M112,71.3c-0.2,9.4-2.3,17.3-7.9,24c-3.2,3.8-7.1,6.5-12.1,7.5c-2.6,0.5-5.2,0-7.6-1.1c-7.6-3.5-12.2-9.6-14.7-17.3
		c-2.7-8.4-2.7-16.7,0.6-24.9c3-7.3,8.2-12.3,16.2-13.5c10.9-1.6,19.6,3.8,23.3,14.3c0.6,1.6,1,3.3,1.3,4.9
		C111.7,67.5,112,69.4,112,71.3z"/>
</g>
</svg>
