<svg xmlns="http://www.w3.org/2000/svg" xmlns:xlink="http://www.w3.org/1999/xlink" width="220" zoomAndPan="magnify" viewBox="0 0 165 82.499998" height="110" preserveAspectRatio="xMidYMid meet" version="1.0"><defs><clipPath id="id1"><path d="M 0.496094 0 L 164.503906 0 L 164.503906 82.003906 L 0.496094 82.003906 Z M 0.496094 0 " clip-rule="nonzero"/></clipPath><clipPath id="id2"><path d="M 8.699219 19.265625 L 156.300781 19.265625 L 156.300781 62.503906 L 8.699219 62.503906 Z M 8.699219 19.265625 " clip-rule="nonzero"/></clipPath></defs><g clip-path="url(#id1)"><path fill="rgb(100%, 100%, 100%)" d="M 0.496094 0 L 164.503906 0 L 164.503906 89.457031 L 0.496094 89.457031 Z M 0.496094 0 " fill-opacity="1" fill-rule="nonzero"/><path fill="rgb(100%, 100%, 100%)" d="M 0.496094 0 L 164.503906 0 L 164.503906 82.003906 L 0.496094 82.003906 Z M 0.496094 0 " fill-opacity="1" fill-rule="nonzero"/><path fill="rgb(100%, 100%, 100%)" d="M 0.496094 0 L 164.503906 0 L 164.503906 82.003906 L 0.496094 82.003906 Z M 0.496094 0 " fill-opacity="1" fill-rule="nonzero"/><path fill="rgb(100%, 100%, 100%)" d="M 0.496094 0 L 164.503906 0 L 164.503906 82.003906 L 0.496094 82.003906 Z M 0.496094 0 " fill-opacity="1" fill-rule="nonzero"/></g><g clip-path="url(#id2)"><path fill="rgb(100%, 30.979919%, 25.099182%)" d="M 42.480469 19.265625 L 28.324219 19.265625 L 32.699219 32.789062 L 46.855469 32.789062 L 35.402344 40.855469 L 39.777344 54.457031 C 47.152344 49.132812 49.5625 41.066406 46.855469 32.789062 Z M 9.789062 32.789062 L 23.949219 32.789062 L 28.324219 19.265625 L 14.164062 19.265625 L 9.789062 32.789062 C 7.085938 41.066406 9.496094 49.128906 16.867188 54.457031 L 21.246094 40.855469 Z M 16.867188 54.457031 L 28.324219 62.503906 L 39.777344 54.457031 L 28.324219 46.289062 Z M 123.71875 32.457031 C 120.363281 32.457031 118.226562 33.964844 117.226562 36.417969 L 116.972656 36.417969 L 116.972656 25.28125 L 111.945312 25.28125 L 111.945312 54.390625 L 117.085938 54.390625 L 117.085938 41.75 C 117.085938 38.625 119.042969 36.824219 121.800781 36.824219 C 124.496094 36.824219 126.089844 38.523438 126.089844 41.453125 L 126.089844 54.390625 L 131.226562 54.390625 L 131.226562 40.597656 C 131.226562 35.375 128.246094 32.457031 123.71875 32.457031 Z M 145.128906 25.230469 C 138.175781 25.230469 133.988281 30.628906 133.976562 40.011719 C 133.960938 49.394531 138.144531 54.890625 145.128906 54.890625 C 152.113281 54.890625 156.285156 49.445312 156.285156 40.011719 C 156.273438 30.644531 152.078125 25.230469 145.121094 25.230469 Z M 139.277344 40.011719 C 139.292969 33.167969 141.539062 29.566406 145.128906 29.566406 C 147.585938 29.566406 149.40625 31.238281 150.328125 34.46875 L 139.371094 42.363281 C 139.296875 41.625 139.265625 40.84375 139.265625 40.011719 Z M 145.128906 50.5 C 142.59375 50.5 140.722656 48.722656 139.84375 45.265625 L 150.859375 37.328125 C 150.953125 38.21875 150.996094 39.117188 150.996094 40.011719 C 150.988281 46.925781 148.738281 50.5 145.121094 50.5 Z M 88.816406 45.292969 C 88.816406 48.585938 86.449219 50.21875 84.175781 50.21875 C 81.703125 50.21875 80.058594 48.488281 80.058594 45.742188 L 80.058594 32.765625 L 74.921875 32.765625 L 74.921875 46.539062 C 74.921875 51.734375 77.898438 54.679688 82.1875 54.679688 C 85.453125 54.679688 87.753906 52.972656 88.746094 50.550781 L 88.972656 50.550781 L 88.972656 54.394531 L 93.957031 54.394531 L 93.957031 32.765625 L 88.816406 32.765625 Z M 63.300781 32.4375 C 58.71875 32.4375 55.199219 34.464844 54.0625 38.40625 L 58.855469 39.082031 C 59.367188 37.605469 60.816406 36.339844 63.328125 36.339844 C 65.710938 36.339844 67.019531 37.550781 67.019531 39.675781 L 67.019531 39.757812 C 67.019531 41.222656 65.46875 41.292969 61.625 41.703125 C 57.398438 42.152344 53.367188 43.40625 53.367188 48.289062 C 53.367188 52.539062 56.5 54.792969 60.660156 54.792969 C 64.082031 54.792969 66.125 53.203125 67.0625 51.386719 L 67.234375 51.386719 L 67.234375 54.355469 L 72.175781 54.355469 L 72.175781 39.871094 C 72.160156 34.15625 67.460938 32.4375 63.300781 32.4375 Z M 67.035156 46.597656 C 67.035156 49.007812 65.074219 51.046875 61.980469 51.046875 C 59.839844 51.046875 58.304688 50.078125 58.304688 48.203125 C 58.304688 46.246094 60.023438 45.429688 62.320312 45.105469 C 63.667969 44.925781 66.367188 44.582031 67.035156 44.050781 Z M 104.921875 27.371094 L 99.789062 27.371094 L 99.789062 32.765625 L 96.667969 32.765625 L 96.667969 36.816406 L 99.789062 36.816406 L 99.789062 48.800781 C 99.761719 52.867188 102.742188 54.867188 106.605469 54.753906 C 107.488281 54.738281 108.367188 54.609375 109.21875 54.375 L 109.21875 50.335938 C 108.828125 50.390625 107.917969 50.507812 107.257812 50.519531 C 105.964844 50.550781 104.929688 50.070312 104.929688 48.015625 L 104.929688 36.828125 L 109.230469 36.828125 L 109.230469 32.765625 L 104.929688 32.765625 Z M 104.921875 27.371094 " fill-opacity="1" fill-rule="nonzero"/></g></svg>