<svg xmlns="http://www.w3.org/2000/svg" xmlns:xlink="http://www.w3.org/1999/xlink" width="220" zoomAndPan="magnify" viewBox="0 0 165 82.499998" height="110" preserveAspectRatio="xMidYMid meet" version="1.0"><defs><clipPath id="id1"><path d="M 0.496094 0 L 164.503906 0 L 164.503906 82.003906 L 0.496094 82.003906 Z M 0.496094 0 " clip-rule="nonzero"/></clipPath><clipPath id="id2"><path d="M 22.863281 8.199219 L 142 8.199219 L 142 73.800781 L 22.863281 73.800781 Z M 22.863281 8.199219 " clip-rule="nonzero"/></clipPath></defs><g clip-path="url(#id1)"><path fill="rgb(100%, 100%, 100%)" d="M 0.496094 0 L 164.503906 0 L 164.503906 89.457031 L 0.496094 89.457031 Z M 0.496094 0 " fill-opacity="1" fill-rule="nonzero"/><path fill="rgb(100%, 100%, 100%)" d="M 0.496094 0 L 164.503906 0 L 164.503906 82.003906 L 0.496094 82.003906 Z M 0.496094 0 " fill-opacity="1" fill-rule="nonzero"/><path fill="rgb(100%, 100%, 100%)" d="M 0.496094 0 L 164.503906 0 L 164.503906 82.003906 L 0.496094 82.003906 Z M 0.496094 0 " fill-opacity="1" fill-rule="nonzero"/><path fill="rgb(100%, 100%, 100%)" d="M 0.496094 0 L 164.503906 0 L 164.503906 82.003906 L 0.496094 82.003906 Z M 0.496094 0 " fill-opacity="1" fill-rule="nonzero"/></g><g clip-path="url(#id2)"><path fill="rgb(42.749023%, 42.749023%, 94.898987%)" d="M 81.820312 58.46875 C 82.839844 58.46875 83.691406 58.636719 84.375 58.976562 C 85.226562 59.320312 85.738281 59.832031 86.078125 60.339844 C 86.417969 60.9375 86.675781 61.449219 86.675781 62.046875 L 86.589844 62.300781 L 86.25 62.386719 L 85.566406 62.386719 L 85.398438 62.046875 C 85.3125 61.363281 84.972656 60.765625 84.289062 60.339844 C 83.539062 59.855469 82.714844 59.628906 81.820312 59.660156 C 80.933594 59.601562 80.109375 59.800781 79.347656 60.257812 C 78.75 60.683594 78.496094 61.277344 78.496094 62.128906 C 78.496094 62.640625 78.496094 63.066406 78.835938 63.410156 C 79.09375 63.75 79.519531 64.089844 80.113281 64.261719 C 80.625 64.601562 81.476562 64.855469 82.585938 65.28125 C 83.691406 65.625 84.542969 65.964844 85.140625 66.304688 C 85.824219 66.5625 86.25 66.988281 86.589844 67.414062 C 86.929688 67.925781 87.101562 68.519531 87.101562 69.289062 C 87.113281 69.839844 87 70.363281 86.761719 70.859375 C 86.519531 71.355469 86.179688 71.769531 85.738281 72.097656 C 84.597656 72.84375 83.347656 73.183594 81.988281 73.121094 C 81.015625 73.152344 80.078125 72.980469 79.175781 72.609375 C 78.457031 72.320312 77.859375 71.863281 77.386719 71.246094 C 76.960938 70.734375 76.707031 70.140625 76.707031 69.542969 C 76.707031 69.371094 76.707031 69.289062 76.875 69.203125 L 77.132812 69.03125 L 77.644531 69.03125 C 77.8125 69.03125 77.984375 69.203125 77.984375 69.457031 C 78.109375 70.1875 78.476562 70.753906 79.09375 71.160156 C 79.773438 71.671875 80.796875 71.929688 81.988281 71.929688 C 83.265625 71.929688 84.203125 71.671875 84.886719 71.246094 C 85.480469 70.734375 85.738281 70.054688 85.738281 69.289062 C 85.738281 68.691406 85.652344 68.265625 85.3125 68.007812 C 85.054688 67.667969 84.542969 67.328125 84.035156 67.15625 C 83.140625 66.777344 82.230469 66.433594 81.308594 66.136719 C 80.453125 65.871094 79.628906 65.53125 78.835938 65.113281 C 78.304688 64.828125 77.878906 64.429688 77.558594 63.917969 C 77.304688 63.492188 77.132812 62.8125 77.132812 62.128906 C 77.132812 61.449219 77.304688 60.765625 77.730469 60.257812 C 78.070312 59.660156 78.582031 59.234375 79.347656 58.894531 C 80.027344 58.550781 80.882812 58.46875 81.902344 58.46875 Z M 99.964844 58.46875 C 101.242188 58.46875 102.179688 58.636719 103.03125 59.0625 C 103.730469 59.4375 104.292969 59.957031 104.71875 60.625 C 105.144531 61.292969 105.375 62.019531 105.417969 62.8125 L 105.417969 62.984375 L 105.332031 63.152344 L 104.992188 63.238281 L 104.652344 63.238281 C 104.394531 63.238281 104.3125 63.066406 104.226562 62.8125 C 103.96875 61.703125 103.542969 60.851562 102.863281 60.339844 C 102.179688 59.914062 101.160156 59.660156 100.050781 59.660156 C 98.773438 59.660156 97.835938 60 97.070312 60.765625 C 96.386719 61.449219 95.960938 62.554688 95.960938 64.089844 L 95.960938 67.5 C 95.960938 69.03125 96.386719 70.054688 97.070312 70.90625 C 97.925781 71.644531 98.921875 71.984375 100.050781 71.929688 C 101.242188 71.929688 102.179688 71.671875 102.863281 71.246094 C 103.542969 70.734375 103.96875 69.882812 104.226562 68.691406 C 104.226562 68.433594 104.480469 68.351562 104.738281 68.351562 L 105.164062 68.351562 L 105.417969 68.433594 C 105.503906 68.519531 105.589844 68.605469 105.503906 68.777344 C 105.503906 69.457031 105.246094 70.140625 104.90625 70.820312 C 104.480469 71.503906 103.882812 72.011719 103.117188 72.523438 C 102.265625 72.949219 101.328125 73.121094 100.050781 73.121094 C 98.347656 73.121094 96.984375 72.695312 96.046875 71.671875 C 95.097656 70.476562 94.640625 69.113281 94.683594 67.582031 L 94.683594 64.003906 C 94.683594 62.300781 95.195312 60.9375 96.046875 59.914062 C 96.898438 58.894531 98.261719 58.46875 100.050781 58.46875 Z M 29.847656 58.636719 L 29.933594 58.636719 C 30.1875 58.636719 30.359375 58.808594 30.445312 59.0625 L 35.554688 72.355469 L 35.640625 72.523438 L 35.640625 72.609375 L 35.554688 72.867188 L 35.214844 72.949219 L 34.789062 72.949219 L 34.535156 72.867188 L 34.363281 72.609375 L 33.085938 69.371094 L 25.929688 69.371094 L 24.566406 72.609375 L 24.566406 72.695312 L 24.394531 72.867188 L 24.054688 72.949219 L 23.714844 72.949219 L 23.457031 72.867188 C 23.378906 72.765625 23.351562 72.652344 23.371094 72.523438 L 23.371094 72.355469 L 28.570312 59.0625 L 28.570312 58.976562 C 28.738281 58.722656 28.910156 58.636719 29.167969 58.636719 Z M 41.945312 58.636719 L 42.203125 58.722656 L 42.371094 58.976562 L 46.886719 71.417969 L 51.316406 58.976562 L 51.316406 58.894531 L 51.488281 58.722656 L 51.742188 58.636719 L 52.253906 58.636719 L 52.511719 58.722656 L 52.59375 59.0625 L 52.59375 59.234375 L 47.824219 72.441406 L 47.824219 72.523438 C 47.652344 72.78125 47.398438 72.949219 47.144531 72.949219 L 46.460938 72.949219 C 46.207031 72.949219 45.949219 72.78125 45.863281 72.441406 L 41.09375 59.320312 L 41.09375 58.976562 L 41.179688 58.722656 L 41.519531 58.636719 Z M 64.523438 58.636719 L 64.609375 58.636719 C 64.863281 58.636719 65.035156 58.808594 65.121094 59.0625 L 70.230469 72.355469 L 70.316406 72.523438 L 70.316406 72.609375 L 70.230469 72.867188 L 69.890625 72.949219 L 69.464844 72.949219 L 69.210938 72.867188 L 69.039062 72.609375 L 67.847656 69.371094 L 60.605469 69.371094 L 59.324219 72.609375 L 59.324219 72.695312 L 59.15625 72.867188 L 58.816406 72.949219 L 58.390625 72.949219 L 58.132812 72.867188 C 58.054688 72.765625 58.023438 72.652344 58.046875 72.523438 L 58.046875 72.355469 L 63.246094 59.0625 L 63.246094 58.976562 C 63.414062 58.722656 63.585938 58.636719 63.839844 58.636719 Z M 118.539062 58.636719 C 118.878906 58.636719 119.050781 58.808594 119.136719 59.0625 L 124.246094 72.355469 L 124.246094 72.867188 L 123.90625 72.949219 L 123.480469 72.949219 L 123.222656 72.867188 L 123.054688 72.609375 L 121.777344 69.371094 L 114.535156 69.371094 L 113.257812 72.609375 L 113.257812 72.695312 L 113.085938 72.867188 L 112.832031 72.949219 L 112.40625 72.949219 L 112.148438 72.867188 C 112.035156 72.78125 111.976562 72.667969 111.976562 72.523438 L 111.976562 72.355469 L 117.261719 59.0625 L 117.261719 58.976562 C 117.347656 58.722656 117.601562 58.636719 117.855469 58.636719 Z M 132.765625 58.636719 C 132.9375 58.636719 133.023438 58.722656 133.191406 58.894531 L 140.691406 70.394531 L 140.691406 59.0625 C 140.691406 58.894531 140.691406 58.808594 140.859375 58.808594 L 141.117188 58.636719 L 141.542969 58.636719 L 141.882812 58.722656 L 141.96875 59.148438 L 141.96875 72.523438 L 141.882812 72.78125 L 141.542969 72.949219 L 141.03125 72.949219 C 140.878906 72.917969 140.765625 72.832031 140.691406 72.695312 L 133.109375 61.195312 L 133.109375 72.523438 L 133.023438 72.867188 L 132.679688 72.949219 L 132.253906 72.949219 L 132 72.867188 C 131.886719 72.78125 131.828125 72.667969 131.828125 72.523438 L 131.828125 59.0625 C 131.828125 58.894531 131.828125 58.808594 132 58.808594 L 132.253906 58.636719 Z M 29.507812 60.085938 L 26.355469 68.179688 L 32.660156 68.179688 Z M 64.183594 60.085938 L 61.03125 68.179688 L 67.335938 68.179688 Z M 118.199219 60.085938 L 115.046875 68.179688 L 121.265625 68.179688 Z M 49.273438 9.308594 C 49.738281 9.582031 50.171875 9.898438 50.574219 10.253906 C 50.980469 10.613281 51.34375 11.007812 51.671875 11.4375 C 51.996094 11.867188 52.277344 12.324219 52.515625 12.808594 C 52.753906 13.292969 52.941406 13.796875 53.078125 14.316406 C 53.214844 14.839844 53.304688 15.367188 53.335938 15.90625 C 53.371094 16.445312 53.355469 16.980469 53.28125 17.515625 C 53.210938 18.050781 53.089844 18.574219 52.917969 19.085938 C 52.746094 19.597656 52.523438 20.085938 52.253906 20.554688 L 38.28125 45.003906 C 38.007812 45.46875 37.691406 45.90625 37.332031 46.308594 C 36.972656 46.710938 36.578125 47.074219 36.148438 47.398438 C 35.71875 47.726562 35.261719 48.007812 34.777344 48.242188 C 34.289062 48.476562 33.789062 48.664062 33.265625 48.800781 C 32.742188 48.9375 32.214844 49.023438 31.675781 49.058594 C 31.136719 49.089844 30.601562 49.074219 30.066406 49 C 29.53125 48.929688 29.007812 48.804688 28.496094 48.632812 C 27.988281 48.457031 27.496094 48.238281 27.03125 47.964844 C 26.5625 47.695312 26.125 47.382812 25.71875 47.027344 C 25.3125 46.671875 24.945312 46.28125 24.617188 45.855469 C 24.289062 45.429688 24.003906 44.972656 23.761719 44.488281 C 23.523438 44.007812 23.332031 43.503906 23.191406 42.984375 C 23.046875 42.464844 22.957031 41.933594 22.917969 41.394531 C 22.882812 40.859375 22.894531 40.320312 22.960938 39.785156 C 23.027344 39.25 23.148438 38.726562 23.316406 38.214844 C 23.484375 37.703125 23.703125 37.210938 23.96875 36.742188 L 38.027344 12.289062 C 38.300781 11.820312 38.617188 11.378906 38.976562 10.972656 C 39.335938 10.5625 39.734375 10.191406 40.164062 9.863281 C 40.597656 9.53125 41.058594 9.25 41.550781 9.007812 C 42.039062 8.769531 42.546875 8.582031 43.074219 8.445312 C 43.597656 8.304688 44.132812 8.21875 44.675781 8.1875 C 45.222656 8.152344 45.761719 8.175781 46.300781 8.25 C 46.839844 8.324219 47.367188 8.449219 47.882812 8.628906 C 48.398438 8.804688 48.886719 9.03125 49.359375 9.308594 Z M 75.085938 12.121094 L 75.257812 12.289062 L 89.316406 36.742188 C 89.539062 37.203125 89.71875 37.679688 89.855469 38.175781 C 89.988281 38.671875 90.078125 39.171875 90.117188 39.683594 C 90.160156 40.195312 90.152344 40.707031 90.097656 41.214844 C 90.042969 41.726562 89.945312 42.226562 89.796875 42.71875 C 89.648438 43.207031 89.460938 43.679688 89.222656 44.136719 C 88.988281 44.59375 88.714844 45.023438 88.398438 45.425781 C 88.082031 45.832031 87.734375 46.203125 87.351562 46.542969 C 86.964844 46.882812 86.554688 47.183594 86.113281 47.445312 C 85.671875 47.707031 85.210938 47.929688 84.730469 48.105469 C 84.25 48.28125 83.757812 48.414062 83.25 48.496094 C 82.746094 48.582031 82.234375 48.621094 81.722656 48.609375 C 81.210938 48.601562 80.703125 48.542969 80.203125 48.441406 C 79.699219 48.335938 79.210938 48.1875 78.738281 47.992188 C 78.261719 47.796875 77.8125 47.558594 77.378906 47.28125 C 76.949219 47 76.550781 46.683594 76.179688 46.332031 C 75.808594 45.976562 75.472656 45.59375 75.171875 45.175781 L 75.003906 45.003906 L 60.945312 20.554688 C 60.722656 20.09375 60.542969 19.613281 60.40625 19.121094 C 60.273438 18.625 60.183594 18.121094 60.144531 17.613281 C 60.101562 17.101562 60.109375 16.589844 60.164062 16.082031 C 60.214844 15.570312 60.316406 15.070312 60.464844 14.578125 C 60.609375 14.085938 60.800781 13.613281 61.035156 13.160156 C 61.273438 12.703125 61.546875 12.273438 61.863281 11.867188 C 62.175781 11.464844 62.527344 11.09375 62.910156 10.753906 C 63.296875 10.414062 63.707031 10.113281 64.148438 9.851562 C 64.589844 9.585938 65.050781 9.367188 65.53125 9.191406 C 66.011719 9.015625 66.503906 8.882812 67.011719 8.796875 C 67.515625 8.714844 68.023438 8.675781 68.539062 8.683594 C 69.050781 8.695312 69.558594 8.75 70.058594 8.855469 C 70.5625 8.960938 71.050781 9.109375 71.523438 9.304688 C 71.996094 9.5 72.449219 9.738281 72.878906 10.015625 C 73.308594 10.292969 73.710938 10.609375 74.082031 10.964844 C 74.453125 11.320312 74.789062 11.703125 75.085938 12.121094 Z M 123.394531 9.308594 C 123.859375 9.582031 124.292969 9.898438 124.699219 10.253906 C 125.101562 10.613281 125.464844 11.007812 125.792969 11.4375 C 126.121094 11.867188 126.402344 12.324219 126.636719 12.808594 C 126.875 13.292969 127.0625 13.796875 127.199219 14.316406 C 127.339844 14.839844 127.425781 15.367188 127.460938 15.90625 C 127.492188 16.445312 127.476562 16.980469 127.40625 17.515625 C 127.335938 18.050781 127.210938 18.574219 127.039062 19.085938 C 126.867188 19.597656 126.644531 20.085938 126.375 20.554688 L 112.320312 45.003906 C 112.046875 45.46875 111.730469 45.90625 111.371094 46.308594 C 111.011719 46.710938 110.617188 47.074219 110.1875 47.398438 C 109.757812 47.726562 109.296875 48.007812 108.8125 48.242188 C 108.328125 48.476562 107.824219 48.664062 107.300781 48.800781 C 106.78125 48.9375 106.25 49.023438 105.710938 49.058594 C 105.171875 49.089844 104.636719 49.074219 104.101562 49 C 103.566406 48.929688 103.042969 48.804688 102.535156 48.632812 C 102.023438 48.457031 101.535156 48.238281 101.066406 47.96875 C 100.601562 47.695312 100.164062 47.382812 99.757812 47.027344 C 99.351562 46.675781 98.984375 46.28125 98.652344 45.855469 C 98.324219 45.429688 98.039062 44.972656 97.800781 44.488281 C 97.558594 44.007812 97.367188 43.503906 97.226562 42.984375 C 97.085938 42.464844 96.996094 41.933594 96.957031 41.394531 C 96.917969 40.859375 96.933594 40.320312 97 39.785156 C 97.066406 39.25 97.183594 38.726562 97.351562 38.214844 C 97.523438 37.703125 97.742188 37.210938 98.007812 36.742188 L 112.0625 12.289062 C 112.335938 11.820312 112.652344 11.378906 113.011719 10.972656 C 113.375 10.5625 113.769531 10.191406 114.203125 9.863281 C 114.636719 9.53125 115.097656 9.25 115.585938 9.007812 C 116.074219 8.769531 116.582031 8.582031 117.109375 8.445312 C 117.636719 8.304688 118.171875 8.21875 118.714844 8.1875 C 119.257812 8.152344 119.800781 8.175781 120.339844 8.25 C 120.878906 8.324219 121.40625 8.449219 121.917969 8.628906 C 122.433594 8.804688 122.925781 9.03125 123.394531 9.308594 Z M 133.789062 32.824219 C 134.320312 32.824219 134.847656 32.875 135.367188 32.976562 C 135.890625 33.082031 136.394531 33.234375 136.886719 33.4375 C 137.378906 33.640625 137.84375 33.890625 138.285156 34.1875 C 138.726562 34.480469 139.136719 34.816406 139.511719 35.191406 C 139.886719 35.570312 140.222656 35.976562 140.519531 36.417969 C 140.8125 36.863281 141.0625 37.328125 141.265625 37.820312 C 141.46875 38.308594 141.625 38.816406 141.726562 39.335938 C 141.832031 39.859375 141.882812 40.386719 141.882812 40.917969 C 141.882812 41.449219 141.832031 41.972656 141.726562 42.496094 C 141.625 43.015625 141.46875 43.523438 141.265625 44.011719 C 141.0625 44.503906 140.8125 44.972656 140.519531 45.414062 C 140.222656 45.855469 139.886719 46.265625 139.511719 46.640625 C 139.136719 47.015625 138.726562 47.351562 138.285156 47.644531 C 137.84375 47.941406 137.378906 48.191406 136.886719 48.394531 C 136.394531 48.597656 135.890625 48.75 135.367188 48.855469 C 134.847656 48.957031 134.320312 49.011719 133.789062 49.011719 C 133.257812 49.011719 132.730469 48.957031 132.210938 48.855469 C 131.6875 48.75 131.183594 48.597656 130.691406 48.394531 C 130.199219 48.191406 129.734375 47.941406 129.292969 47.644531 C 128.851562 47.351562 128.441406 47.015625 128.066406 46.640625 C 127.691406 46.265625 127.355469 45.855469 127.058594 45.414062 C 126.765625 44.972656 126.515625 44.503906 126.3125 44.011719 C 126.109375 43.523438 125.953125 43.015625 125.851562 42.496094 C 125.746094 41.972656 125.695312 41.449219 125.695312 40.917969 C 125.695312 40.386719 125.746094 39.859375 125.851562 39.335938 C 125.953125 38.816406 126.109375 38.308594 126.3125 37.820312 C 126.515625 37.328125 126.765625 36.863281 127.058594 36.417969 C 127.355469 35.976562 127.691406 35.570312 128.066406 35.191406 C 128.441406 34.816406 128.851562 34.480469 129.292969 34.1875 C 129.734375 33.890625 130.199219 33.640625 130.691406 33.4375 C 131.183594 33.234375 131.6875 33.082031 132.210938 32.976562 C 132.730469 32.875 133.257812 32.824219 133.789062 32.824219 Z M 133.789062 32.824219 " fill-opacity="1" fill-rule="nonzero"/></g></svg>