<svg xmlns="http://www.w3.org/2000/svg" xmlns:xlink="http://www.w3.org/1999/xlink" width="220" zoomAndPan="magnify" viewBox="0 0 165 82.499998" height="110" preserveAspectRatio="xMidYMid meet" version="1.0"><defs><clipPath id="id1"><path d="M 0.496094 0 L 164.503906 0 L 164.503906 82.003906 L 0.496094 82.003906 Z M 0.496094 0 " clip-rule="nonzero"/></clipPath><clipPath id="id2"><path d="M 152 35 L 161.730469 35 L 161.730469 48 L 152 48 Z M 152 35 " clip-rule="nonzero"/></clipPath><clipPath id="id3"><path d="M 2.945312 25.039062 L 25 25.039062 L 25 57.09375 L 2.945312 57.09375 Z M 2.945312 25.039062 " clip-rule="nonzero"/></clipPath></defs><g clip-path="url(#id1)"><path fill="rgb(100%, 100%, 100%)" d="M 0.496094 0 L 164.503906 0 L 164.503906 82.003906 L 0.496094 82.003906 Z M 0.496094 0 " fill-opacity="1" fill-rule="nonzero"/><path fill="rgb(100%, 100%, 100%)" d="M 0.496094 0 L 164.503906 0 L 164.503906 82.003906 L 0.496094 82.003906 Z M 0.496094 0 " fill-opacity="1" fill-rule="nonzero"/><path fill="rgb(100%, 100%, 100%)" d="M 0.496094 0 L 164.503906 0 L 164.503906 82.003906 L 0.496094 82.003906 Z M 0.496094 0 " fill-opacity="1" fill-rule="nonzero"/></g><path fill="rgb(0%, 0%, 0%)" d="M 56.324219 35.382812 L 59.632812 35.382812 L 59.632812 44.472656 L 65.414062 44.472656 L 65.414062 47.386719 L 56.324219 47.386719 Z M 56.324219 35.382812 " fill-opacity="1" fill-rule="nonzero"/><path fill="rgb(0%, 0%, 0%)" d="M 67.933594 35.382812 L 71.269531 35.382812 L 71.269531 47.386719 L 67.933594 47.386719 Z M 67.933594 35.382812 " fill-opacity="1" fill-rule="nonzero"/><path fill="rgb(0%, 0%, 0%)" d="M 73.832031 35.382812 L 77.53125 35.382812 L 80.242188 42.972656 L 82.957031 35.382812 L 86.589844 35.382812 L 81.746094 47.472656 L 78.675781 47.472656 Z M 73.832031 35.382812 " fill-opacity="1" fill-rule="nonzero"/><path fill="rgb(0%, 0%, 0%)" d="M 89.109375 35.382812 L 98.710938 35.382812 L 98.710938 38.214844 L 92.382812 38.214844 L 92.382812 40.042969 L 98.113281 40.042969 L 98.113281 42.683594 L 92.382812 42.683594 L 92.382812 44.585938 L 98.792969 44.585938 L 98.792969 47.414062 L 89.109375 47.414062 Z M 89.109375 35.382812 " fill-opacity="1" fill-rule="nonzero"/><path fill="rgb(0%, 0%, 0%)" d="M 101.453125 41.421875 L 101.453125 41.386719 C 101.453125 37.886719 104.128906 35.144531 107.746094 35.144531 C 110.183594 35.144531 111.75 36.171875 112.808594 37.648438 L 110.3125 39.585938 C 109.632812 38.730469 108.847656 38.179688 107.6875 38.179688 C 106.015625 38.179688 104.839844 39.605469 104.839844 41.351562 L 104.839844 41.386719 C 104.839844 43.1875 106.015625 44.59375 107.6875 44.59375 C 108.933594 44.59375 109.652344 44.007812 110.378906 43.132812 L 112.867188 44.917969 C 111.753906 46.480469 110.238281 47.628906 107.59375 47.628906 C 106.78125 47.640625 105.972656 47.488281 105.222656 47.179688 C 104.46875 46.871094 103.785156 46.414062 103.214844 45.835938 C 102.640625 45.257812 102.191406 44.566406 101.886719 43.808594 C 101.582031 43.050781 101.4375 42.238281 101.453125 41.421875 Z M 101.453125 41.421875 " fill-opacity="1" fill-rule="nonzero"/><path fill="rgb(0%, 0%, 0%)" d="M 118.101562 42.898438 L 113.566406 35.386719 L 117.335938 35.386719 L 119.792969 39.757812 L 122.261719 35.386719 L 125.960938 35.386719 L 121.429688 42.84375 L 121.429688 47.390625 L 118.101562 47.390625 Z M 118.101562 42.898438 " fill-opacity="1" fill-rule="nonzero"/><path fill="rgb(0%, 0%, 0%)" d="M 126.628906 41.421875 L 126.628906 41.386719 C 126.628906 37.886719 129.308594 35.144531 132.921875 35.144531 C 135.359375 35.144531 136.929688 36.171875 137.988281 37.648438 L 135.5 39.585938 C 134.816406 38.730469 134.03125 38.179688 132.890625 38.179688 C 131.214844 38.179688 130.042969 39.605469 130.042969 41.351562 L 130.042969 41.386719 C 130.042969 43.1875 131.214844 44.59375 132.890625 44.59375 C 134.132812 44.59375 134.859375 44.007812 135.582031 43.132812 L 138.074219 44.917969 C 136.949219 46.480469 135.429688 47.628906 132.785156 47.628906 C 131.972656 47.644531 131.164062 47.492188 130.410156 47.183594 C 129.65625 46.875 128.972656 46.417969 128.398438 45.839844 C 127.824219 45.257812 127.371094 44.570312 127.066406 43.8125 C 126.761719 43.050781 126.613281 42.238281 126.628906 41.421875 Z M 126.628906 41.421875 " fill-opacity="1" fill-rule="nonzero"/><path fill="rgb(0%, 0%, 0%)" d="M 140.824219 35.382812 L 144.128906 35.382812 L 144.128906 44.472656 L 149.910156 44.472656 L 149.910156 47.386719 L 140.820312 47.386719 L 140.820312 35.382812 Z M 140.824219 35.382812 " fill-opacity="1" fill-rule="nonzero"/><g clip-path="url(#id2)"><path fill="rgb(0%, 0%, 0%)" d="M 152.046875 35.382812 L 161.648438 35.382812 L 161.648438 38.214844 L 155.320312 38.214844 L 155.320312 40.042969 L 161.050781 40.042969 L 161.050781 42.683594 L 155.320312 42.683594 L 155.320312 44.585938 L 161.730469 44.585938 L 161.730469 47.414062 L 152.046875 47.414062 Z M 152.046875 35.382812 " fill-opacity="1" fill-rule="nonzero"/></g><path fill="rgb(100%, 0%, 100%)" d="M 30.84375 30.019531 C 29.042969 31.507812 27.621094 33.4375 26.730469 35.605469 C 25.839844 37.769531 25.492188 40.148438 25.722656 42.476562 C 25.953125 44.808594 26.757812 47.070312 28.054688 49.019531 C 29.347656 50.964844 31.121094 52.578125 33.175781 53.679688 C 35.226562 54.785156 37.542969 55.367188 39.871094 55.367188 L 39.878906 55.367188 C 43.578125 55.363281 47.066406 53.953125 49.738281 51.390625 L 44.46875 46.082031 C 43.714844 46.789062 42.804688 47.316406 41.820312 47.617188 C 40.757812 47.941406 39.617188 47.996094 38.527344 47.777344 C 37.4375 47.558594 36.410156 47.066406 35.550781 46.355469 C 34.691406 45.648438 34.015625 44.726562 33.589844 43.695312 C 33.167969 42.660156 33.003906 41.527344 33.113281 40.414062 C 33.226562 39.304688 33.613281 38.226562 34.230469 37.296875 C 34.851562 36.371094 35.695312 35.605469 36.679688 35.082031 C 37.652344 34.5625 38.75 34.289062 39.851562 34.289062 L 39.910156 34.289062 C 40.785156 34.289062 41.640625 34.457031 42.453125 34.792969 C 43.199219 35.101562 43.875 35.53125 44.464844 36.082031 L 49.738281 30.777344 C 48.121094 29.210938 46.136719 28.039062 43.984375 27.382812 C 42.648438 26.976562 41.257812 26.773438 39.863281 26.773438 C 38.933594 26.773438 38 26.863281 37.085938 27.046875 C 34.800781 27.507812 32.640625 28.535156 30.839844 30.023438 Z M 30.84375 30.019531 " fill-opacity="1" fill-rule="nonzero"/><g clip-path="url(#id3)"><path fill="rgb(0%, 0%, 100%)" d="M 24.464844 51.792969 L 13.796875 41.0625 L 24.46875 30.335938 L 19.203125 25.042969 L 2.945312 41.066406 L 18.878906 57.09375 Z M 24.464844 51.792969 " fill-opacity="1" fill-rule="nonzero"/></g></svg>