<?xml version="1.0" encoding="UTF-8"?>
<svg xmlns="http://www.w3.org/2000/svg" xmlns:xlink="http://www.w3.org/1999/xlink" width="165pt" height="82.499998pt" viewBox="0 0 165 82.499998" version="1.2">
<defs>
<clipPath id="clip1">
  <path d="M 0.496094 0 L 164.503906 0 L 164.503906 82.003906 L 0.496094 82.003906 Z M 0.496094 0 "/>
</clipPath>
<clipPath id="clip2">
  <path d="M 6.628906 9.996094 L 158.707031 9.996094 L 158.707031 71.746094 L 6.628906 71.746094 Z M 6.628906 9.996094 "/>
</clipPath>
</defs>
<g id="surface1">
<g clip-path="url(#clip1)" clip-rule="nonzero">
<path style=" stroke:none;fill-rule:nonzero;fill:rgb(100%,100%,100%);fill-opacity:1;" d="M 0.496094 0 L 164.503906 0 L 164.503906 171.460938 L 0.496094 171.460938 Z M 0.496094 0 "/>
<path style=" stroke:none;fill-rule:nonzero;fill:rgb(100%,100%,100%);fill-opacity:1;" d="M 0.496094 0 L 164.503906 0 L 164.503906 82.003906 L 0.496094 82.003906 Z M 0.496094 0 "/>
<path style=" stroke:none;fill-rule:nonzero;fill:rgb(100%,100%,100%);fill-opacity:1;" d="M 0.496094 0 L 164.503906 0 L 164.503906 82.003906 L 0.496094 82.003906 Z M 0.496094 0 "/>
</g>
<g clip-path="url(#clip2)" clip-rule="nonzero">
<path style=" stroke:none;fill-rule:nonzero;fill:rgb(100%,100%,100%);fill-opacity:1;" d="M 6.714844 9.996094 L 158.976562 9.996094 L 158.976562 71.746094 L 6.714844 71.746094 Z M 6.714844 9.996094 "/>
</g>
<path style=" stroke:none;fill-rule:nonzero;fill:rgb(99.21875%,44.309998%,15.289307%);fill-opacity:1;" d="M 15.75 26.351562 L 19.054688 28.242188 L 19.054688 32.023438 L 15.75 33.914062 L 12.4375 32.023438 L 12.4375 28.242188 Z M 15.75 23.808594 L 10.199219 26.984375 L 10.199219 33.332031 L 15.75 36.507812 L 21.289062 33.332031 L 21.289062 26.984375 Z M 15.75 23.808594 "/>
<path style=" stroke:none;fill-rule:nonzero;fill:rgb(98.039246%,20.388794%,27.059937%);fill-opacity:1;" d="M 21.871094 36.890625 L 25.175781 38.78125 L 25.175781 42.558594 L 21.871094 44.449219 L 18.566406 42.558594 L 18.566406 38.78125 Z M 21.871094 34.34375 L 16.328125 37.519531 L 16.328125 43.882812 L 21.871094 47.058594 L 27.414062 43.882812 L 27.414062 37.519531 Z M 21.871094 34.34375 "/>
<path style=" stroke:none;fill-rule:nonzero;fill:rgb(30.589294%,71.369934%,77.648926%);fill-opacity:1;" d="M 28.023438 47.449219 L 31.332031 49.339844 L 31.332031 53.121094 L 28.023438 55.015625 L 24.71875 53.125 L 24.71875 49.339844 Z M 28.023438 44.878906 L 22.480469 48.054688 L 22.480469 54.40625 L 28.023438 57.582031 L 33.570312 54.40625 L 33.570312 48.054688 Z M 28.023438 44.878906 "/>
<path style=" stroke:none;fill-rule:nonzero;fill:rgb(23.529053%,62.348938%,35.289001%);fill-opacity:1;" d="M 15.714844 47.449219 L 19.023438 49.339844 L 19.023438 53.121094 L 15.714844 55.015625 L 12.414062 53.125 L 12.414062 49.339844 Z M 15.714844 44.878906 L 10.175781 48.054688 L 10.175781 54.40625 L 15.714844 57.582031 L 21.261719 54.40625 L 21.261719 48.054688 Z M 15.714844 44.878906 "/>
<path style=" stroke:none;fill-rule:nonzero;fill:rgb(30.589294%,13.729858%,49.01886%);fill-opacity:1;" d="M 34.125 36.890625 L 37.433594 38.78125 L 37.433594 42.558594 L 34.125 44.449219 L 30.820312 42.558594 L 30.820312 38.78125 Z M 34.125 34.34375 L 28.582031 37.519531 L 28.582031 43.882812 L 34.125 47.058594 L 39.675781 43.882812 L 39.675781 37.519531 Z M 34.125 34.34375 "/>
<path style=" stroke:none;fill-rule:nonzero;fill:rgb(29.798889%,28.239441%,27.839661%);fill-opacity:1;" d="M 46.359375 26.605469 L 47.65625 26.605469 L 47.65625 27.511719 C 47.65625 27.679688 47.644531 27.847656 47.628906 28.015625 L 47.65625 28.015625 C 47.867188 27.546875 48.191406 27.171875 48.621094 26.886719 C 49.050781 26.601562 49.527344 26.449219 50.042969 26.429688 C 51.214844 26.429688 51.902344 26.957031 52.15625 27.988281 L 52.179688 27.988281 C 52.410156 27.515625 52.753906 27.140625 53.203125 26.859375 C 53.652344 26.578125 54.140625 26.433594 54.671875 26.429688 C 56.25 26.429688 56.984375 27.308594 56.984375 29.074219 L 56.984375 33.511719 L 55.636719 33.511719 L 55.636719 29.375 C 55.636719 28.394531 55.433594 27.640625 54.390625 27.640625 C 53.398438 27.640625 52.683594 28.46875 52.4375 29.402344 C 52.359375 29.71875 52.328125 30.035156 52.335938 30.359375 L 52.335938 33.503906 L 51.011719 33.503906 L 51.011719 29.375 C 51.011719 28.46875 50.882812 27.640625 49.789062 27.640625 C 48.773438 27.640625 48.0625 28.46875 47.785156 29.453125 C 47.71875 29.75 47.695312 30.054688 47.707031 30.359375 L 47.707031 33.503906 L 46.359375 33.503906 Z M 46.359375 26.605469 "/>
<path style=" stroke:none;fill-rule:nonzero;fill:rgb(29.798889%,28.239441%,27.839661%);fill-opacity:1;" d="M 58.6875 23.855469 L 60.035156 23.855469 L 60.035156 25.21875 L 58.6875 25.21875 Z M 58.6875 26.605469 L 60.035156 26.605469 L 60.035156 33.535156 L 58.6875 33.535156 Z M 58.6875 26.605469 "/>
<path style=" stroke:none;fill-rule:nonzero;fill:rgb(29.798889%,28.239441%,27.839661%);fill-opacity:1;" d="M 65.503906 29.199219 L 65.800781 29.199219 L 65.800781 29.074219 C 65.800781 27.9375 65.140625 27.5625 64.277344 27.5625 C 63.558594 27.59375 62.90625 27.820312 62.324219 28.242188 L 61.765625 27.257812 C 62.542969 26.699219 63.417969 26.421875 64.382812 26.429688 C 66.136719 26.429688 67.152344 27.398438 67.152344 29.125 L 67.152344 33.511719 L 65.90625 33.511719 L 65.90625 32.855469 C 65.90625 32.550781 65.933594 32.300781 65.933594 32.300781 L 65.90625 32.300781 C 65.703125 32.726562 65.398438 33.0625 64.992188 33.3125 C 64.585938 33.558594 64.148438 33.675781 63.671875 33.664062 C 62.476562 33.664062 61.304688 32.9375 61.304688 31.546875 C 61.304688 29.300781 64.332031 29.199219 65.5 29.199219 M 63.949219 32.628906 C 65.09375 32.628906 65.804688 31.445312 65.804688 30.4375 L 65.804688 30.210938 L 65.449219 30.210938 C 64.433594 30.210938 62.628906 30.285156 62.628906 31.519531 C 62.652344 32.074219 63.085938 32.628906 63.949219 32.628906 "/>
<path style=" stroke:none;fill-rule:nonzero;fill:rgb(29.798889%,28.239441%,27.839661%);fill-opacity:1;" d="M 46.40625 36.9375 L 54.011719 36.9375 C 57.824219 36.9375 60.570312 39.484375 60.570312 43.390625 C 60.570312 47.296875 57.824219 49.945312 54.011719 49.945312 L 49.332031 49.945312 L 49.332031 57.582031 L 46.402344 57.582031 Z M 53.527344 47.425781 C 56.042969 47.425781 57.570312 45.886719 57.570312 43.390625 C 57.570312 40.894531 56.042969 39.433594 53.554688 39.433594 L 49.308594 39.433594 L 49.308594 47.421875 Z M 53.527344 47.425781 "/>
<path style=" stroke:none;fill-rule:nonzero;fill:rgb(29.798889%,28.239441%,27.839661%);fill-opacity:1;" d="M 62.960938 36.9375 L 65.835938 36.9375 L 65.835938 53.042969 C 65.835938 54.832031 66.542969 55.164062 67.4375 55.164062 C 67.679688 55.164062 67.945312 55.136719 67.945312 55.136719 L 67.945312 57.65625 C 67.632812 57.691406 67.316406 57.707031 67.003906 57.707031 C 65.375 57.707031 62.984375 57.28125 62.984375 53.546875 L 62.984375 36.9375 Z M 62.960938 36.9375 "/>
<path style=" stroke:none;fill-rule:nonzero;fill:rgb(29.798889%,28.239441%,27.839661%);fill-opacity:1;" d="M 78.140625 48.332031 L 78.800781 48.332031 L 78.800781 48.089844 C 78.800781 45.671875 77.402344 44.839844 75.523438 44.839844 C 73.230469 44.839844 71.351562 46.277344 71.351562 46.277344 L 70.195312 44.199219 C 71.855469 43.003906 73.710938 42.417969 75.761719 42.433594 C 79.550781 42.433594 81.664062 44.472656 81.664062 48.230469 L 81.664062 57.582031 L 79.003906 57.582031 L 79.003906 56.167969 C 79.003906 55.488281 79.054688 55.011719 79.054688 55.011719 L 79.003906 55.011719 C 78.789062 55.457031 78.515625 55.863281 78.183594 56.230469 C 77.851562 56.597656 77.472656 56.910156 77.050781 57.167969 C 76.625 57.429688 76.171875 57.625 75.695312 57.753906 C 75.214844 57.882812 74.722656 57.945312 74.226562 57.933594 C 71.65625 57.933594 69.140625 56.398438 69.140625 53.421875 C 69.140625 48.535156 75.621094 48.339844 78.140625 48.339844 M 74.832031 55.640625 C 77.25 55.640625 78.824219 53.121094 78.824219 50.925781 L 78.824219 50.441406 L 78.09375 50.441406 C 75.929688 50.441406 72.039062 50.59375 72.039062 53.242188 C 72.039062 54.476562 72.980469 55.636719 74.839844 55.636719 "/>
<path style=" stroke:none;fill-rule:nonzero;fill:rgb(29.798889%,28.239441%,27.839661%);fill-opacity:1;" d="M 85.871094 45.257812 L 83.917969 45.257812 L 83.917969 42.988281 L 85.953125 42.988281 L 85.953125 38.730469 L 88.722656 38.730469 L 88.722656 42.988281 L 92.335938 42.988281 L 92.335938 45.257812 L 88.71875 45.257812 L 88.71875 51.835938 C 88.71875 54.785156 90.804688 55.164062 91.894531 55.164062 C 92.125 55.164062 92.355469 55.148438 92.582031 55.113281 L 92.582031 57.632812 C 92.25 57.667969 91.921875 57.683594 91.589844 57.683594 C 89.679688 57.683594 85.867188 57.105469 85.867188 52.164062 Z M 85.871094 45.257812 "/>
<path style=" stroke:none;fill-rule:nonzero;fill:rgb(29.798889%,28.239441%,27.839661%);fill-opacity:1;" d="M 96.015625 45.257812 L 94.160156 45.257812 L 94.160156 42.988281 L 96.015625 42.988281 L 96.015625 42.28125 C 96.015625 37.394531 99.726562 36.789062 101.609375 36.789062 C 101.976562 36.785156 102.339844 36.808594 102.703125 36.863281 L 102.703125 39.28125 C 102.460938 39.246094 102.21875 39.230469 101.972656 39.230469 C 100.878906 39.230469 98.847656 39.585938 98.847656 42.332031 L 98.847656 42.988281 L 102.378906 42.988281 L 102.378906 45.257812 L 98.839844 45.257812 L 98.839844 57.554688 L 96.015625 57.554688 Z M 96.015625 45.257812 "/>
<path style=" stroke:none;fill-rule:nonzero;fill:rgb(29.798889%,28.239441%,27.839661%);fill-opacity:1;" d="M 111.5 42.429688 C 115.949219 42.429688 119.558594 45.679688 119.558594 50.140625 C 119.558594 54.65625 115.949219 57.929688 111.5 57.929688 C 107.054688 57.929688 103.445312 54.65625 103.445312 50.140625 C 103.46875 45.679688 107.054688 42.429688 111.5 42.429688 M 111.5 55.460938 C 114.324219 55.460938 116.628906 53.242188 116.628906 50.136719 C 116.628906 47.03125 114.339844 44.867188 111.5 44.867188 C 108.703125 44.867188 106.375 47.0625 106.375 50.136719 C 106.375 53.210938 108.714844 55.460938 111.5 55.460938 "/>
<path style=" stroke:none;fill-rule:nonzero;fill:rgb(29.798889%,28.239441%,27.839661%);fill-opacity:1;" d="M 122.359375 42.785156 L 125.128906 42.785156 L 125.128906 45.359375 C 125.128906 45.964844 125.078125 46.464844 125.078125 46.464844 L 125.128906 46.464844 C 125.816406 44.289062 127.542969 42.609375 129.859375 42.609375 C 130.105469 42.613281 130.347656 42.628906 130.59375 42.660156 L 130.59375 45.457031 C 130.324219 45.410156 130.050781 45.382812 129.777344 45.382812 C 127.949219 45.382812 126.269531 46.667969 125.582031 48.859375 C 125.335938 49.730469 125.21875 50.617188 125.226562 51.523438 L 125.226562 57.574219 L 122.359375 57.574219 Z M 122.359375 42.785156 "/>
<path style=" stroke:none;fill-rule:nonzero;fill:rgb(29.798889%,28.239441%,27.839661%);fill-opacity:1;" d="M 132.832031 42.785156 L 135.605469 42.785156 L 135.605469 44.753906 C 135.605469 45.332031 135.554688 45.835938 135.554688 45.835938 L 135.605469 45.835938 C 136.316406 44.121094 138.402344 42.433594 140.734375 42.433594 C 143.25 42.433594 144.726562 43.566406 145.210938 45.785156 L 145.261719 45.785156 C 145.503906 45.289062 145.808594 44.832031 146.179688 44.421875 C 146.550781 44.007812 146.96875 43.652344 147.441406 43.355469 C 147.910156 43.058594 148.410156 42.832031 148.945312 42.675781 C 149.480469 42.519531 150.027344 42.4375 150.582031 42.429688 C 153.9375 42.429688 155.515625 44.320312 155.515625 48.101562 L 155.515625 57.578125 L 152.640625 57.578125 L 152.640625 48.722656 C 152.640625 46.65625 152.234375 45.015625 149.996094 45.015625 C 147.914062 45.015625 146.335938 46.78125 145.804688 48.796875 C 145.648438 49.46875 145.582031 50.152344 145.597656 50.839844 L 145.597656 57.59375 L 142.726562 57.59375 L 142.726562 48.722656 C 142.726562 46.785156 142.421875 45.015625 140.132812 45.015625 C 137.933594 45.015625 136.417969 46.804688 135.859375 48.890625 C 135.71875 49.527344 135.660156 50.171875 135.683594 50.824219 L 135.683594 57.582031 L 132.808594 57.582031 L 132.808594 42.785156 Z M 132.832031 42.785156 "/>
<path style=" stroke:none;fill-rule:nonzero;fill:rgb(99.21875%,44.309998%,15.289307%);fill-opacity:1;" d="M 15.75 26.351562 L 19.054688 28.242188 L 19.054688 32.023438 L 15.75 33.914062 L 12.4375 32.023438 L 12.4375 28.242188 Z M 15.75 23.808594 L 10.199219 26.984375 L 10.199219 33.332031 L 15.75 36.507812 L 21.289062 33.332031 L 21.289062 26.984375 Z M 15.75 23.808594 "/>
</g>
</svg>
