<svg xmlns="http://www.w3.org/2000/svg" xmlns:xlink="http://www.w3.org/1999/xlink" width="220" zoomAndPan="magnify" viewBox="0 0 165 82.499998" height="110" preserveAspectRatio="xMidYMid meet" version="1.0"><defs><clipPath id="id1"><path d="M 0.496094 0 L 164.503906 0 L 164.503906 82.003906 L 0.496094 82.003906 Z M 0.496094 0 " clip-rule="nonzero"/></clipPath></defs><g clip-path="url(#id1)"><path fill="rgb(100%, 100%, 100%)" d="M 0.496094 0 L 164.503906 0 L 164.503906 89.457031 L 0.496094 89.457031 Z M 0.496094 0 " fill-opacity="1" fill-rule="nonzero"/><path fill="rgb(100%, 100%, 100%)" d="M 0.496094 0 L 164.503906 0 L 164.503906 82.003906 L 0.496094 82.003906 Z M 0.496094 0 " fill-opacity="1" fill-rule="nonzero"/><path fill="rgb(100%, 100%, 100%)" d="M 0.496094 0 L 164.503906 0 L 164.503906 82.003906 L 0.496094 82.003906 Z M 0.496094 0 " fill-opacity="1" fill-rule="nonzero"/><path fill="rgb(100%, 100%, 100%)" d="M 0.496094 0 L 164.503906 0 L 164.503906 82.003906 L 0.496094 82.003906 Z M 0.496094 0 " fill-opacity="1" fill-rule="nonzero"/></g><path fill="rgb(0%, 40.779114%, 29.019165%)" d="M 20.6875 27.832031 C 19.261719 26.148438 18.035156 24.425781 17.785156 24.074219 C 17.753906 24.03125 17.722656 24.03125 17.695312 24.074219 C 17.445312 24.425781 16.214844 26.148438 14.789062 27.832031 C 2.574219 43.40625 16.71875 53.910156 16.71875 53.910156 L 16.832031 53.992188 C 16.941406 55.617188 17.207031 57.953125 17.207031 57.953125 L 18.273438 57.953125 C 18.273438 57.953125 18.539062 55.628906 18.644531 54 L 18.761719 53.910156 C 18.761719 53.910156 32.90625 43.40625 20.6875 27.832031 Z M 17.738281 53.683594 C 17.738281 53.683594 17.105469 53.140625 16.933594 52.871094 L 16.933594 52.839844 L 17.699219 35.886719 C 17.703125 35.863281 17.714844 35.847656 17.738281 35.847656 C 17.765625 35.847656 17.777344 35.863281 17.78125 35.886719 L 18.546875 52.839844 L 18.546875 52.871094 C 18.375 53.140625 17.738281 53.683594 17.738281 53.683594 Z M 17.738281 53.683594 " fill-opacity="1" fill-rule="nonzero"/><path fill="rgb(0%, 40.779114%, 29.019165%)" d="M 44.15625 50.210938 L 38.28125 35.894531 L 38.265625 35.855469 L 33.6875 35.855469 L 33.6875 36.8125 L 34.421875 36.8125 C 34.652344 36.816406 34.851562 36.898438 35.015625 37.0625 C 35.175781 37.226562 35.257812 37.425781 35.253906 37.65625 L 35.121094 52.078125 C 35.117188 52.304688 35.039062 52.5 34.878906 52.660156 C 34.722656 52.820312 34.527344 52.902344 34.300781 52.90625 L 33.550781 52.914062 L 33.550781 53.867188 L 38.007812 53.867188 L 38.007812 52.914062 L 37.546875 52.90625 C 37.320312 52.898438 37.128906 52.816406 36.96875 52.652344 C 36.8125 52.492188 36.730469 52.296875 36.730469 52.070312 L 36.730469 38.484375 L 43.136719 53.859375 C 43.238281 54.101562 43.421875 54.222656 43.683594 54.222656 C 43.945312 54.222656 44.128906 54.101562 44.230469 53.859375 L 50.488281 38.824219 L 50.582031 52.066406 C 50.582031 52.296875 50.503906 52.492188 50.34375 52.65625 C 50.183594 52.820312 49.988281 52.90625 49.757812 52.910156 L 49.289062 52.914062 L 49.289062 53.867188 L 54.503906 53.867188 L 54.503906 52.914062 L 53.789062 52.910156 C 53.5625 52.90625 53.367188 52.824219 53.207031 52.660156 C 53.046875 52.5 52.964844 52.304688 52.964844 52.078125 L 52.917969 37.65625 C 52.917969 37.429688 53 37.234375 53.160156 37.070312 C 53.320312 36.90625 53.511719 36.824219 53.742188 36.820312 L 54.503906 36.8125 L 54.503906 35.855469 L 50.050781 35.855469 Z M 44.15625 50.210938 " fill-opacity="1" fill-rule="nonzero"/><path fill="rgb(0%, 40.779114%, 29.019165%)" d="M 85.222656 52.6875 C 85.0625 52.523438 84.988281 52.332031 85 52.105469 L 85 45.039062 C 85 43.699219 84.601562 42.640625 83.816406 41.886719 C 83.03125 41.140625 81.957031 40.757812 80.617188 40.757812 C 78.726562 40.757812 77.242188 41.523438 76.207031 43.03125 C 76.183594 43.0625 76.15625 43.074219 76.121094 43.066406 C 76.082031 43.0625 76.0625 43.039062 76.050781 43.003906 L 75.5625 41.117188 L 74.746094 41.117188 L 72.648438 42.320312 L 72.648438 42.980469 L 73.1875 42.980469 C 73.417969 42.96875 73.621094 43.035156 73.796875 43.183594 C 73.960938 43.347656 74.035156 43.550781 74.015625 43.785156 L 74.015625 52.105469 C 74.023438 52.214844 74.003906 52.320312 73.964844 52.417969 C 73.925781 52.519531 73.871094 52.609375 73.792969 52.6875 C 73.71875 52.761719 73.628906 52.820312 73.527344 52.859375 C 73.425781 52.898438 73.324219 52.914062 73.214844 52.910156 L 72.6875 52.910156 L 72.6875 53.867188 L 77.519531 53.867188 L 77.519531 52.910156 L 76.992188 52.910156 C 76.886719 52.914062 76.78125 52.898438 76.679688 52.859375 C 76.578125 52.820312 76.492188 52.761719 76.414062 52.6875 C 76.335938 52.609375 76.28125 52.519531 76.242188 52.417969 C 76.203125 52.320312 76.1875 52.214844 76.191406 52.105469 L 76.191406 46.597656 C 76.195312 45.871094 76.34375 45.179688 76.644531 44.515625 C 76.941406 43.839844 77.390625 43.28125 77.988281 42.84375 C 78.625 42.390625 79.328125 42.175781 80.109375 42.195312 C 81.035156 42.195312 81.726562 42.484375 82.160156 43.0625 C 82.601562 43.644531 82.824219 44.394531 82.824219 45.296875 L 82.824219 52.105469 C 82.828125 52.214844 82.8125 52.320312 82.773438 52.417969 C 82.734375 52.519531 82.679688 52.609375 82.601562 52.6875 C 82.523438 52.761719 82.4375 52.820312 82.335938 52.859375 C 82.234375 52.898438 82.128906 52.914062 82.023438 52.910156 L 81.496094 52.910156 L 81.496094 53.867188 L 86.328125 53.867188 L 86.328125 52.910156 L 85.800781 52.910156 C 85.574219 52.917969 85.382812 52.84375 85.222656 52.6875 Z M 85.222656 52.6875 " fill-opacity="1" fill-rule="nonzero"/><path fill="rgb(0%, 40.779114%, 29.019165%)" d="M 129.472656 36.933594 C 128.070312 36.199219 126.582031 35.839844 125 35.855469 L 118.667969 35.855469 L 118.667969 36.8125 L 119.28125 36.8125 C 119.535156 36.832031 119.753906 36.933594 119.933594 37.113281 C 120.117188 37.292969 120.214844 37.511719 120.234375 37.769531 L 120.234375 51.953125 C 120.230469 52.214844 120.128906 52.433594 119.933594 52.609375 C 119.761719 52.804688 119.542969 52.902344 119.28125 52.910156 L 118.667969 52.910156 L 118.667969 53.867188 L 125 53.867188 C 126.582031 53.882812 128.070312 53.523438 129.472656 52.789062 C 130.847656 52.058594 131.921875 51.019531 132.703125 49.671875 C 133.496094 48.324219 133.898438 46.703125 133.898438 44.859375 C 133.898438 43.019531 133.496094 41.398438 132.703125 40.050781 C 131.921875 38.703125 130.84375 37.664062 129.472656 36.933594 Z M 131.367188 44.859375 C 131.367188 46.546875 131.0625 47.976562 130.46875 49.121094 C 129.871094 50.261719 129.078125 51.121094 128.105469 51.675781 C 127.109375 52.242188 126.039062 52.519531 124.898438 52.511719 L 123.621094 52.511719 C 123.359375 52.503906 123.140625 52.40625 122.964844 52.210938 C 122.769531 52.035156 122.671875 51.816406 122.664062 51.554688 L 122.664062 38.167969 C 122.667969 37.90625 122.769531 37.6875 122.964844 37.511719 C 123.140625 37.320312 123.359375 37.21875 123.621094 37.210938 L 124.898438 37.210938 C 126.039062 37.203125 127.109375 37.480469 128.105469 38.046875 C 129.078125 38.601562 129.871094 39.457031 130.46875 40.601562 C 131.0625 41.746094 131.367188 43.179688 131.367188 44.859375 Z M 131.367188 44.859375 " fill-opacity="1" fill-rule="nonzero"/><path fill="rgb(0%, 40.779114%, 29.019165%)" d="M 148.808594 45.8125 C 148.234375 45.148438 147.113281 44.578125 145.789062 44.273438 C 147.613281 43.367188 148.539062 42.078125 148.539062 40.441406 C 148.550781 39.570312 148.3125 38.773438 147.824219 38.054688 C 147.308594 37.324219 146.640625 36.785156 145.816406 36.433594 C 144.863281 36.027344 143.867188 35.835938 142.828125 35.855469 L 135.726562 35.855469 L 135.726562 36.8125 L 136.289062 36.8125 C 136.542969 36.832031 136.761719 36.933594 136.945312 37.113281 C 137.125 37.292969 137.226562 37.511719 137.242188 37.769531 L 137.242188 51.953125 C 137.238281 52.214844 137.136719 52.433594 136.945312 52.609375 C 136.769531 52.804688 136.550781 52.902344 136.289062 52.910156 L 135.675781 52.910156 L 135.675781 53.867188 L 143.386719 53.867188 C 144.507812 53.878906 145.59375 53.683594 146.640625 53.277344 C 147.589844 52.914062 148.371094 52.332031 148.992188 51.53125 C 149.566406 50.765625 149.859375 49.828125 149.859375 48.742188 C 149.882812 47.632812 149.535156 46.65625 148.808594 45.8125 Z M 139.972656 52.210938 C 139.78125 52.035156 139.679688 51.816406 139.671875 51.554688 L 139.671875 45.183594 L 143.335938 45.183594 C 144.621094 45.183594 145.621094 45.515625 146.300781 46.171875 C 146.984375 46.828125 147.328125 47.695312 147.328125 48.742188 C 147.328125 49.386719 147.175781 49.996094 146.875 50.566406 C 146.558594 51.164062 146.109375 51.632812 145.523438 51.96875 C 144.921875 52.328125 144.1875 52.511719 143.335938 52.511719 L 140.628906 52.511719 C 140.367188 52.503906 140.148438 52.40625 139.972656 52.210938 Z M 139.671875 43.824219 L 139.671875 38.167969 C 139.679688 37.90625 139.777344 37.6875 139.972656 37.511719 C 140.148438 37.320312 140.367188 37.21875 140.628906 37.210938 L 142.371094 37.210938 C 143.621094 37.210938 144.550781 37.523438 145.128906 38.136719 C 145.710938 38.75 146.003906 39.554688 146.003906 40.519531 C 146.003906 41.519531 145.730469 42.328125 145.191406 42.925781 C 144.65625 43.523438 143.835938 43.824219 142.753906 43.824219 Z M 139.671875 43.824219 " fill-opacity="1" fill-rule="nonzero"/><path fill="rgb(0%, 40.779114%, 29.019165%)" d="M 66.835938 41.597656 C 65.777344 41.039062 64.652344 40.757812 63.457031 40.757812 C 62.265625 40.757812 61.136719 41.039062 60.082031 41.597656 C 59.054688 42.164062 58.25 42.953125 57.671875 43.972656 C 57.378906 44.511719 57.15625 45.082031 57.007812 45.675781 C 56.855469 46.273438 56.78125 46.878906 56.78125 47.492188 C 56.78125 48.105469 56.855469 48.710938 57.007812 49.308594 C 57.15625 49.902344 57.378906 50.472656 57.671875 51.011719 C 58.25 52.03125 59.054688 52.824219 60.082031 53.386719 C 61.136719 53.945312 62.265625 54.226562 63.457031 54.226562 C 64.652344 54.226562 65.777344 53.945312 66.835938 53.386719 C 67.863281 52.824219 68.664062 52.03125 69.246094 51.011719 C 69.539062 50.472656 69.761719 49.902344 69.910156 49.308594 C 70.0625 48.710938 70.136719 48.105469 70.136719 47.492188 C 70.136719 46.878906 70.0625 46.273438 69.910156 45.675781 C 69.761719 45.082031 69.539062 44.511719 69.246094 43.972656 C 68.664062 42.953125 67.863281 42.164062 66.835938 41.597656 Z M 67.808594 47.492188 C 67.808594 49.121094 67.410156 50.429688 66.625 51.382812 C 65.839844 52.335938 64.777344 52.816406 63.457031 52.816406 C 62.140625 52.816406 61.074219 52.335938 60.292969 51.382812 C 59.507812 50.429688 59.109375 49.121094 59.109375 47.492188 C 59.109375 45.863281 59.507812 44.554688 60.292969 43.601562 C 61.074219 42.648438 62.140625 42.167969 63.457031 42.167969 C 64.777344 42.167969 65.839844 42.648438 66.625 43.601562 C 67.410156 44.554688 67.808594 45.863281 67.808594 47.492188 Z M 67.808594 47.492188 " fill-opacity="1" fill-rule="nonzero"/><path fill="rgb(0%, 40.779114%, 29.019165%)" d="M 113.351562 41.597656 C 112.296875 41.039062 111.171875 40.757812 109.976562 40.757812 C 108.78125 40.757812 107.65625 41.039062 106.597656 41.597656 C 105.574219 42.164062 104.769531 42.953125 104.1875 43.972656 C 103.894531 44.511719 103.675781 45.082031 103.523438 45.675781 C 103.371094 46.273438 103.296875 46.878906 103.296875 47.492188 C 103.296875 48.105469 103.371094 48.710938 103.523438 49.308594 C 103.675781 49.902344 103.894531 50.472656 104.1875 51.011719 C 104.769531 52.03125 105.574219 52.824219 106.597656 53.386719 C 107.65625 53.945312 108.78125 54.226562 109.976562 54.226562 C 111.171875 54.226562 112.296875 53.945312 113.351562 53.386719 C 114.378906 52.824219 115.183594 52.03125 115.765625 51.011719 C 116.054688 50.472656 116.277344 49.902344 116.429688 49.308594 C 116.578125 48.710938 116.652344 48.105469 116.652344 47.492188 C 116.652344 46.878906 116.578125 46.273438 116.429688 45.675781 C 116.277344 45.082031 116.054688 44.511719 115.765625 43.972656 C 115.183594 42.953125 114.378906 42.164062 113.351562 41.597656 Z M 114.328125 47.492188 C 114.328125 49.121094 113.929688 50.429688 113.140625 51.382812 C 112.359375 52.335938 111.292969 52.816406 109.976562 52.816406 C 108.65625 52.816406 107.59375 52.335938 106.808594 51.382812 C 106.023438 50.429688 105.625 49.121094 105.625 47.492188 C 105.625 45.863281 106.023438 44.554688 106.808594 43.601562 C 107.59375 42.648438 108.65625 42.167969 109.976562 42.167969 C 111.292969 42.167969 112.359375 42.648438 113.140625 43.601562 C 113.929688 44.554688 114.328125 45.863281 114.328125 47.492188 Z M 114.328125 47.492188 " fill-opacity="1" fill-rule="nonzero"/><path fill="rgb(0%, 40.779114%, 29.019165%)" d="M 94.574219 40.757812 C 93.558594 40.746094 92.597656 40.972656 91.691406 41.429688 C 90.847656 41.855469 90.164062 42.464844 89.652344 43.257812 C 89.152344 44.027344 88.90625 44.871094 88.910156 45.789062 C 88.902344 46.585938 89.089844 47.332031 89.476562 48.027344 C 89.851562 48.683594 90.355469 49.226562 90.980469 49.65625 L 89.101562 52.210938 C 88.847656 52.554688 88.820312 52.917969 89.011719 53.296875 C 89.203125 53.675781 89.511719 53.867188 89.9375 53.867188 L 90.476562 53.867188 C 89.96875 54.199219 89.558594 54.625 89.238281 55.140625 C 88.902344 55.683594 88.730469 56.277344 88.726562 56.914062 C 88.726562 58.046875 89.226562 58.980469 90.210938 59.691406 C 91.191406 60.394531 92.5625 60.75 94.285156 60.75 C 95.449219 60.761719 96.578125 60.566406 97.675781 60.175781 C 98.671875 59.835938 99.523438 59.269531 100.226562 58.484375 C 100.890625 57.722656 101.214844 56.835938 101.195312 55.828125 C 101.195312 54.746094 100.800781 53.976562 99.875 53.246094 C 99.078125 52.621094 97.84375 52.289062 96.300781 52.289062 L 91.027344 52.289062 C 91.015625 52.289062 91.003906 52.285156 90.996094 52.273438 C 90.992188 52.261719 90.992188 52.25 91 52.238281 L 92.367188 50.386719 C 92.695312 50.535156 93.03125 50.652344 93.382812 50.726562 C 93.734375 50.792969 94.085938 50.824219 94.441406 50.820312 C 95.488281 50.835938 96.480469 50.613281 97.417969 50.148438 C 98.273438 49.726562 98.960938 49.117188 99.488281 48.320312 C 99.992188 47.554688 100.246094 46.710938 100.242188 45.789062 C 100.242188 44.8125 99.773438 43.03125 98.476562 42.121094 C 98.480469 42.113281 98.488281 42.113281 98.488281 42.113281 L 101.328125 42.429688 L 101.328125 41.128906 L 96.789062 41.128906 C 96.074219 40.882812 95.335938 40.757812 94.574219 40.757812 Z M 96.164062 49.011719 C 95.667969 49.28125 95.140625 49.414062 94.574219 49.414062 C 93.675781 49.421875 92.902344 49.109375 92.257812 48.476562 C 91.605469 47.855469 91.273438 46.953125 91.273438 45.789062 C 91.273438 44.628906 91.605469 43.722656 92.257812 43.101562 C 92.902344 42.472656 93.675781 42.160156 94.574219 42.164062 C 95.140625 42.167969 95.667969 42.300781 96.164062 42.570312 C 96.6875 42.855469 97.101562 43.261719 97.398438 43.78125 C 97.71875 44.316406 97.878906 44.992188 97.878906 45.789062 C 97.878906 46.589844 97.71875 47.265625 97.398438 47.800781 C 97.101562 48.320312 96.6875 48.722656 96.164062 49.011719 Z M 92.582031 53.867188 L 96.15625 53.867188 C 97.148438 53.867188 97.78125 54.058594 98.203125 54.492188 C 98.648438 54.953125 98.859375 55.503906 98.835938 56.144531 C 98.84375 56.605469 98.75 57.042969 98.546875 57.460938 C 98.347656 57.875 98.0625 58.21875 97.691406 58.496094 C 96.929688 59.09375 95.898438 59.398438 94.628906 59.398438 C 93.515625 59.398438 92.605469 59.152344 91.921875 58.667969 C 91.242188 58.1875 90.898438 57.472656 90.898438 56.542969 C 90.894531 55.960938 91.054688 55.429688 91.378906 54.949219 C 91.683594 54.476562 92.085938 54.117188 92.582031 53.867188 Z M 92.582031 53.867188 " fill-opacity="1" fill-rule="nonzero"/><path fill="rgb(0%, 40.779114%, 29.019165%)" d="M 152.546875 53.707031 C 152.285156 53.5625 152.082031 53.355469 151.933594 53.097656 C 151.785156 52.832031 151.710938 52.550781 151.710938 52.246094 C 151.710938 51.945312 151.785156 51.660156 151.933594 51.394531 C 152.082031 51.136719 152.285156 50.929688 152.546875 50.785156 C 152.824219 50.632812 153.117188 50.558594 153.433594 50.558594 C 153.746094 50.558594 154.042969 50.632812 154.316406 50.785156 C 154.578125 50.929688 154.785156 51.136719 154.933594 51.394531 C 155.082031 51.660156 155.15625 51.945312 155.15625 52.246094 C 155.15625 52.550781 155.082031 52.832031 154.933594 53.097656 C 154.785156 53.355469 154.578125 53.5625 154.316406 53.707031 C 154.042969 53.859375 153.746094 53.933594 153.433594 53.933594 C 153.117188 53.933594 152.824219 53.859375 152.546875 53.707031 Z M 154.167969 53.511719 C 154.386719 53.386719 154.554688 53.214844 154.679688 52.996094 C 154.941406 52.496094 154.941406 51.996094 154.679688 51.496094 C 154.554688 51.277344 154.386719 51.105469 154.167969 50.980469 C 153.675781 50.710938 153.1875 50.710938 152.699219 50.980469 C 152.480469 51.105469 152.308594 51.277344 152.1875 51.496094 C 151.925781 51.996094 151.925781 52.496094 152.1875 52.996094 C 152.308594 53.214844 152.480469 53.386719 152.699219 53.511719 C 153.1875 53.78125 153.675781 53.78125 154.167969 53.511719 Z M 152.71875 53.050781 L 152.71875 52.9375 L 152.742188 52.917969 L 152.820312 52.917969 C 152.882812 52.914062 152.914062 52.882812 152.917969 52.820312 L 152.917969 51.597656 C 152.914062 51.535156 152.882812 51.503906 152.820312 51.5 L 152.742188 51.5 L 152.71875 51.480469 L 152.71875 51.367188 L 152.742188 51.347656 L 153.429688 51.347656 C 153.597656 51.339844 153.75 51.382812 153.890625 51.476562 C 154.011719 51.570312 154.070312 51.695312 154.0625 51.847656 C 154.0625 51.972656 154.019531 52.082031 153.929688 52.167969 C 153.839844 52.265625 153.726562 52.320312 153.59375 52.335938 L 153.753906 52.378906 L 154.058594 52.863281 C 154.078125 52.898438 154.105469 52.917969 154.144531 52.917969 L 154.222656 52.917969 L 154.242188 52.9375 L 154.242188 53.050781 L 154.222656 53.070312 L 153.820312 53.070312 L 153.792969 53.050781 L 153.367188 52.34375 L 153.265625 52.34375 L 153.265625 52.820312 C 153.269531 52.882812 153.300781 52.914062 153.363281 52.917969 L 153.441406 52.917969 L 153.464844 52.9375 L 153.464844 53.050781 L 153.441406 53.070312 L 152.742188 53.070312 Z M 153.382812 52.191406 C 153.476562 52.195312 153.5625 52.167969 153.632812 52.101562 C 153.695312 52.03125 153.726562 51.945312 153.71875 51.847656 C 153.722656 51.753906 153.695312 51.667969 153.636719 51.59375 C 153.578125 51.527344 153.503906 51.496094 153.414062 51.5 L 153.363281 51.5 C 153.300781 51.503906 153.269531 51.535156 153.265625 51.597656 L 153.265625 52.191406 Z M 153.382812 52.191406 " fill-opacity="1" fill-rule="nonzero"/></svg>