<svg xmlns="http://www.w3.org/2000/svg" xmlns:xlink="http://www.w3.org/1999/xlink" width="220" zoomAndPan="magnify" viewBox="0 0 165 82.499998" height="110" preserveAspectRatio="xMidYMid meet" version="1.0"><defs><clipPath id="id1"><path d="M 0.496094 0 L 164.503906 0 L 164.503906 82.003906 L 0.496094 82.003906 Z M 0.496094 0 " clip-rule="nonzero"/></clipPath><clipPath id="id2"><path d="M 51 23 L 156.300781 23 L 156.300781 59 L 51 59 Z M 51 23 " clip-rule="nonzero"/></clipPath><clipPath id="id3"><path d="M 8.699219 22.289062 L 46 22.289062 L 46 59.566406 L 8.699219 59.566406 Z M 8.699219 22.289062 " clip-rule="nonzero"/></clipPath></defs><g clip-path="url(#id1)"><path fill="rgb(100%, 100%, 100%)" d="M 0.496094 0 L 164.503906 0 L 164.503906 89.457031 L 0.496094 89.457031 Z M 0.496094 0 " fill-opacity="1" fill-rule="nonzero"/><path fill="rgb(100%, 100%, 100%)" d="M 0.496094 0 L 164.503906 0 L 164.503906 82.003906 L 0.496094 82.003906 Z M 0.496094 0 " fill-opacity="1" fill-rule="nonzero"/><path fill="rgb(100%, 100%, 100%)" d="M 0.496094 0 L 164.503906 0 L 164.503906 82.003906 L 0.496094 82.003906 Z M 0.496094 0 " fill-opacity="1" fill-rule="nonzero"/><path fill="rgb(100%, 100%, 100%)" d="M 0.496094 0 L 164.503906 0 L 164.503906 82.003906 L 0.496094 82.003906 Z M 0.496094 0 " fill-opacity="1" fill-rule="nonzero"/></g><g clip-path="url(#id2)"><path fill="rgb(23.919678%, 23.919678%, 23.919678%)" d="M 103.34375 30.507812 L 103.226562 23.886719 L 105.324219 23.886719 L 105.324219 32.234375 L 102.308594 32.234375 L 100.21875 25.386719 L 100.171875 25.386719 L 100.289062 32.234375 L 98.207031 32.234375 L 98.207031 23.886719 L 101.347656 23.886719 L 103.296875 30.507812 Z M 65.25 24.667969 L 64.09375 32.320312 L 61.804688 32.320312 L 63.375 23.886719 L 67.140625 23.886719 L 68.703125 32.320312 L 66.429688 32.320312 L 65.300781 24.667969 Z M 75.117188 30.335938 L 76.164062 23.886719 L 79.617188 23.886719 L 79.804688 32.320312 L 77.683594 32.320312 L 77.628906 24.738281 L 77.585938 24.738281 L 76.171875 32.320312 L 74.023438 32.320312 L 72.609375 24.738281 L 72.5625 24.738281 L 72.507812 32.320312 L 70.390625 32.320312 L 70.578125 23.886719 L 74.03125 23.886719 L 75.074219 30.335938 Z M 58.242188 29.941406 C 58.328125 30.144531 58.300781 30.40625 58.261719 30.566406 C 58.191406 30.839844 58 31.128906 57.4375 31.128906 C 56.90625 31.128906 56.585938 30.828125 56.585938 30.367188 L 56.582031 29.546875 L 54.3125 29.546875 L 54.3125 30.199219 C 54.3125 32.082031 55.800781 32.648438 57.386719 32.648438 C 58.921875 32.648438 60.179688 32.128906 60.382812 30.722656 C 60.484375 29.992188 60.410156 29.515625 60.375 29.335938 C 60.015625 27.570312 56.804688 27.046875 56.5625 26.054688 C 56.523438 25.882812 56.53125 25.710938 56.554688 25.617188 C 56.613281 25.34375 56.796875 25.050781 57.328125 25.050781 C 57.824219 25.050781 58.113281 25.355469 58.113281 25.8125 L 58.113281 26.332031 L 60.226562 26.332031 L 60.226562 25.742188 C 60.226562 23.90625 58.570312 23.617188 57.371094 23.617188 C 55.867188 23.617188 54.640625 24.117188 54.414062 25.492188 C 54.351562 25.863281 54.34375 26.199219 54.433594 26.628906 C 54.800781 28.351562 57.808594 28.851562 58.242188 29.941406 Z M 85.765625 29.921875 C 85.84375 30.125 85.820312 30.386719 85.78125 30.542969 C 85.714844 30.820312 85.523438 31.097656 84.964844 31.097656 C 84.4375 31.097656 84.121094 30.804688 84.121094 30.347656 L 84.121094 29.535156 L 81.871094 29.535156 L 81.871094 30.179688 C 81.871094 32.042969 83.34375 32.601562 84.917969 32.601562 C 86.433594 32.601562 87.679688 32.089844 87.878906 30.699219 C 87.984375 29.976562 87.90625 29.503906 87.871094 29.324219 C 87.515625 27.578125 84.335938 27.058594 84.101562 26.078125 C 84.058594 25.910156 84.070312 25.738281 84.089844 25.644531 C 84.152344 25.375 84.332031 25.082031 84.855469 25.082031 C 85.347656 25.082031 85.636719 25.382812 85.636719 25.835938 L 85.636719 26.351562 L 87.726562 26.351562 L 87.726562 25.769531 C 87.726562 23.949219 86.085938 23.667969 84.902344 23.667969 C 83.410156 23.667969 82.195312 24.152344 81.972656 25.519531 C 81.910156 25.886719 81.902344 26.222656 81.992188 26.640625 C 82.355469 28.351562 85.332031 28.84375 85.765625 29.921875 Z M 92.871094 31.054688 C 93.457031 31.054688 93.640625 30.65625 93.683594 30.445312 C 93.699219 30.355469 93.703125 30.230469 93.703125 30.125 L 93.703125 23.886719 L 95.847656 23.886719 L 95.847656 29.929688 C 95.851562 30.085938 95.835938 30.402344 95.824219 30.488281 C 95.679688 32.058594 94.425781 32.566406 92.871094 32.566406 C 91.3125 32.566406 90.0625 32.058594 89.917969 30.488281 C 89.910156 30.402344 89.894531 30.085938 89.898438 29.929688 L 89.898438 23.886719 L 92.035156 23.886719 L 92.035156 30.125 C 92.035156 30.230469 92.039062 30.355469 92.058594 30.445312 C 92.101562 30.65625 92.28125 31.054688 92.871094 31.054688 Z M 110.53125 30.96875 C 111.140625 30.96875 111.355469 30.582031 111.394531 30.359375 C 111.410156 30.261719 111.417969 30.144531 111.414062 30.035156 L 111.414062 28.8125 L 110.546875 28.8125 L 110.546875 27.582031 L 113.542969 27.582031 L 113.542969 29.84375 C 113.542969 30 113.539062 30.117188 113.515625 30.398438 C 113.375 31.933594 112.039062 32.484375 110.539062 32.484375 C 109.039062 32.484375 107.699219 31.933594 107.5625 30.398438 C 107.539062 30.117188 107.53125 30 107.53125 29.84375 L 107.53125 26.296875 C 107.53125 26.144531 107.550781 25.878906 107.570312 25.742188 C 107.757812 24.160156 109.039062 23.660156 110.539062 23.660156 C 112.039062 23.660156 113.355469 24.15625 113.511719 25.742188 C 113.535156 26.007812 113.527344 26.296875 113.527344 26.296875 L 113.527344 26.574219 L 111.394531 26.574219 L 111.394531 26.101562 C 111.394531 26.101562 111.394531 25.902344 111.367188 25.785156 C 111.328125 25.597656 111.167969 25.171875 110.523438 25.171875 C 109.90625 25.171875 109.726562 25.578125 109.679688 25.785156 C 109.65625 25.890625 109.644531 26.042969 109.644531 26.179688 L 109.644531 30.035156 C 109.644531 30.144531 109.648438 30.261719 109.664062 30.359375 C 109.703125 30.582031 109.917969 30.96875 110.53125 30.96875 Z M 51.738281 38.460938 L 55.429688 38.460938 L 55.429688 58.207031 L 51.738281 58.207031 Z M 57.898438 42.382812 L 61.539062 42.382812 L 61.539062 44.542969 C 62.0625 43.882812 62.726562 43.351562 63.535156 42.953125 C 64.339844 42.554688 65.257812 42.355469 66.289062 42.355469 C 68.261719 42.355469 69.808594 42.9375 70.917969 44.109375 C 72.03125 45.277344 72.589844 46.902344 72.589844 48.992188 L 72.589844 58.207031 L 68.871094 58.207031 L 68.871094 49.40625 C 68.871094 48.207031 68.570312 47.261719 67.972656 46.5625 C 67.375 45.867188 66.480469 45.519531 65.285156 45.519531 C 64.234375 45.519531 63.351562 45.882812 62.636719 46.601562 C 61.921875 47.328125 61.566406 48.367188 61.566406 49.722656 L 61.566406 58.207031 L 57.898438 58.207031 Z M 73.457031 42.382812 L 76.175781 42.382812 L 76.175781 39.972656 L 79.867188 37.457031 L 79.867188 42.382812 L 83.097656 42.382812 L 83.097656 45.65625 L 79.867188 45.65625 L 79.867188 51.582031 C 79.867188 52.265625 79.902344 52.820312 79.972656 53.242188 C 80.046875 53.667969 80.199219 53.992188 80.421875 54.21875 C 80.648438 54.441406 80.976562 54.589844 81.402344 54.664062 C 81.828125 54.734375 82.390625 54.773438 83.097656 54.773438 L 83.097656 58.207031 L 82.582031 58.207031 C 81.351562 58.207031 80.324219 58.101562 79.5 57.882812 C 78.675781 57.664062 78.019531 57.300781 77.53125 56.789062 C 77.042969 56.273438 76.695312 55.597656 76.484375 54.757812 C 76.277344 53.921875 76.175781 52.867188 76.175781 51.605469 L 76.175781 45.65625 L 73.457031 45.65625 Z M 92.058594 45.574219 C 90.957031 45.574219 90 45.816406 89.195312 46.300781 C 88.390625 46.789062 87.824219 47.429688 87.5 48.226562 L 96.515625 48.226562 C 96.242188 47.355469 95.71875 46.695312 94.941406 46.246094 C 94.160156 45.800781 93.199219 45.574219 92.058594 45.574219 Z M 92.195312 58.234375 C 90.949219 58.234375 89.804688 58.03125 88.773438 57.621094 C 87.746094 57.214844 86.859375 56.652344 86.128906 55.941406 C 85.394531 55.226562 84.824219 54.390625 84.417969 53.421875 C 84.011719 52.460938 83.808594 51.429688 83.808594 50.335938 C 83.808594 49.222656 84.019531 48.179688 84.445312 47.203125 C 84.871094 46.230469 85.453125 45.386719 86.195312 44.675781 C 86.9375 43.960938 87.8125 43.398438 88.816406 42.980469 C 89.820312 42.5625 90.902344 42.355469 92.058594 42.355469 C 93.238281 42.355469 94.328125 42.542969 95.332031 42.925781 C 96.339844 43.304688 97.203125 43.835938 97.925781 44.523438 C 98.648438 45.207031 99.214844 46.015625 99.625 46.945312 C 100.03125 47.875 100.234375 48.890625 100.234375 49.988281 L 100.234375 51.28125 L 87.308594 51.28125 C 87.5625 52.402344 88.113281 53.300781 88.964844 53.988281 C 89.816406 54.671875 90.894531 55.015625 92.195312 55.015625 C 93.230469 55.015625 94.125 54.761719 94.882812 54.257812 C 95.644531 53.753906 96.214844 53.078125 96.59375 52.230469 L 99.609375 53.960938 C 98.921875 55.242188 97.957031 56.273438 96.71875 57.058594 C 95.476562 57.84375 93.972656 58.234375 92.195312 58.234375 Z M 101.863281 42.382812 L 105.503906 42.382812 L 105.503906 44.734375 C 106.246094 43.167969 107.601562 42.382812 109.574219 42.382812 C 110.152344 42.382812 110.675781 42.445312 111.136719 42.570312 C 111.597656 42.699219 112.011719 42.859375 112.371094 43.058594 L 110.988281 46.519531 C 110.714844 46.339844 110.414062 46.191406 110.078125 46.074219 C 109.742188 45.957031 109.3125 45.898438 108.789062 45.898438 C 107.71875 45.898438 106.910156 46.199219 106.359375 46.804688 C 105.804688 47.410156 105.527344 48.394531 105.527344 49.765625 L 105.527344 58.207031 L 101.863281 58.207031 Z M 113.566406 42.382812 L 117.207031 42.382812 L 117.207031 44.542969 C 117.730469 43.882812 118.394531 43.351562 119.199219 42.953125 C 120.003906 42.554688 120.925781 42.355469 121.957031 42.355469 C 123.929688 42.355469 125.476562 42.9375 126.585938 44.109375 C 127.699219 45.277344 128.257812 46.902344 128.257812 48.992188 L 128.257812 58.207031 L 124.539062 58.207031 L 124.539062 49.40625 C 124.539062 48.207031 124.238281 47.261719 123.640625 46.5625 C 123.042969 45.867188 122.148438 45.519531 120.953125 45.519531 C 119.902344 45.519531 119.019531 45.882812 118.304688 46.601562 C 117.589844 47.328125 117.230469 48.367188 117.230469 49.722656 L 117.230469 58.207031 L 113.566406 58.207031 Z M 138.113281 45.574219 C 137.011719 45.574219 136.054688 45.816406 135.25 46.300781 C 134.441406 46.789062 133.875 47.429688 133.550781 48.226562 L 142.566406 48.226562 C 142.296875 47.355469 141.769531 46.695312 140.992188 46.246094 C 140.214844 45.800781 139.253906 45.574219 138.113281 45.574219 Z M 138.25 58.234375 C 137 58.234375 135.859375 58.03125 134.828125 57.621094 C 133.796875 57.214844 132.914062 56.652344 132.179688 55.941406 C 131.449219 55.226562 130.878906 54.390625 130.46875 53.421875 C 130.0625 52.460938 129.859375 51.429688 129.859375 50.335938 C 129.859375 49.222656 130.070312 48.179688 130.496094 47.203125 C 130.921875 46.230469 131.503906 45.386719 132.246094 44.675781 C 132.988281 43.960938 133.863281 43.398438 134.871094 42.980469 C 135.875 42.5625 136.953125 42.355469 138.113281 42.355469 C 139.289062 42.355469 140.378906 42.542969 141.386719 42.925781 C 142.390625 43.304688 143.253906 43.835938 143.980469 44.523438 C 144.703125 45.207031 145.269531 46.015625 145.675781 46.945312 C 146.082031 47.875 146.289062 48.890625 146.289062 49.988281 L 146.289062 51.28125 L 133.363281 51.28125 C 133.617188 52.402344 134.164062 53.300781 135.015625 53.988281 C 135.867188 54.671875 136.945312 55.015625 138.25 55.015625 C 139.28125 55.015625 140.175781 54.761719 140.9375 54.257812 C 141.699219 53.753906 142.265625 53.078125 142.648438 52.230469 L 145.660156 53.960938 C 144.972656 55.242188 144.011719 56.273438 142.769531 57.058594 C 141.527344 57.84375 140.023438 58.234375 138.25 58.234375 Z M 146.664062 42.382812 L 149.378906 42.382812 L 149.378906 39.972656 L 153.074219 37.457031 L 153.074219 42.382812 L 156.304688 42.382812 L 156.304688 45.65625 L 153.074219 45.65625 L 153.074219 51.582031 C 153.074219 52.265625 153.109375 52.820312 153.179688 53.242188 C 153.253906 53.667969 153.40625 53.992188 153.628906 54.21875 C 153.855469 54.441406 154.183594 54.589844 154.605469 54.664062 C 155.035156 54.734375 155.597656 54.773438 156.304688 54.773438 L 156.304688 58.207031 L 155.789062 58.207031 C 154.558594 58.207031 153.53125 58.101562 152.707031 57.882812 C 151.882812 57.664062 151.226562 57.300781 150.738281 56.789062 C 150.25 56.273438 149.898438 55.597656 149.691406 54.757812 C 149.484375 53.921875 149.378906 52.867188 149.378906 51.605469 L 149.378906 45.65625 L 146.664062 45.65625 Z M 146.664062 42.382812 " fill-opacity="1" fill-rule="evenodd"/></g><g clip-path="url(#id3)"><path fill="rgb(47.059631%, 50.979614%, 100%)" d="M 23.085938 22.359375 L 31.585938 22.359375 C 39.53125 22.359375 45.972656 28.777344 45.972656 36.691406 L 45.972656 45.160156 C 45.972656 53.078125 39.53125 59.496094 31.585938 59.496094 L 23.085938 59.496094 C 15.140625 59.496094 8.699219 53.078125 8.699219 45.160156 L 8.699219 36.691406 C 8.699219 28.777344 15.140625 22.359375 23.085938 22.359375 Z M 23.085938 22.359375 " fill-opacity="1" fill-rule="nonzero"/></g><path fill="rgb(30.198669%, 36.079407%, 75.689697%)" d="M 37.238281 40.925781 C 37.238281 40.519531 37.214844 40.121094 37.167969 39.726562 C 37.058594 39.507812 36.9375 39.289062 36.800781 39.070312 C 39.1875 41.179688 40.351562 43.453125 39.664062 45.238281 C 39.054688 46.828125 37.085938 47.726562 34.410156 47.890625 C 31.796875 48.050781 28.507812 47.507812 25.144531 46.222656 C 21.789062 44.941406 18.984375 43.160156 17.144531 41.308594 C 15.253906 39.398438 14.390625 37.414062 15.003906 35.820312 C 15.65625 34.125 17.847656 33.214844 20.792969 33.144531 L 20.867188 33.140625 C 19.574219 34.1875 18.542969 35.546875 17.898438 37.105469 C 18.476562 38.871094 20.992188 40.933594 25.871094 42.984375 C 29.863281 44.660156 34.53125 45.484375 36.613281 44.175781 L 36.722656 44.105469 C 37.058594 43.105469 37.238281 42.039062 37.238281 40.925781 Z M 37.238281 40.925781 " fill-opacity="1" fill-rule="nonzero"/><path fill="rgb(100%, 100%, 100%)" d="M 37.167969 39.726562 C 37.214844 40.121094 37.238281 40.519531 37.238281 40.925781 C 37.238281 42.039062 37.058594 43.105469 36.722656 44.105469 C 34.695312 45.511719 29.933594 44.6875 25.871094 42.984375 C 20.992188 40.933594 18.476562 38.871094 17.898438 37.105469 C 18.542969 35.546875 19.574219 34.1875 20.867188 33.140625 L 20.917969 33.101562 C 22.636719 31.734375 24.816406 30.914062 27.1875 30.914062 C 32.332031 30.914062 36.570312 34.761719 37.167969 39.726562 Z M 27.1875 50.941406 C 21.765625 50.941406 17.347656 46.660156 17.144531 41.308594 C 18.984375 43.160156 21.789062 44.941406 25.144531 46.222656 C 28.507812 47.507812 31.796875 48.050781 34.410156 47.890625 C 32.582031 49.769531 30.023438 50.941406 27.1875 50.941406 Z M 27.1875 50.941406 " fill-opacity="1" fill-rule="nonzero"/></svg>