<svg xmlns="http://www.w3.org/2000/svg" xmlns:xlink="http://www.w3.org/1999/xlink" width="220" zoomAndPan="magnify" viewBox="0 0 165 82.499998" height="110" preserveAspectRatio="xMidYMid meet" version="1.0"><defs><clipPath id="id1"><path d="M 0.496094 0 L 164.503906 0 L 164.503906 82.003906 L 0.496094 82.003906 Z M 0.496094 0 " clip-rule="nonzero"/></clipPath><clipPath id="id2"><path d="M 9.527344 24 L 26 24 L 26 47 L 9.527344 47 Z M 9.527344 24 " clip-rule="nonzero"/></clipPath><clipPath id="id3"><path d="M 133 20 L 155.386719 20 L 155.386719 44 L 133 44 Z M 133 20 " clip-rule="nonzero"/></clipPath></defs><g clip-path="url(#id1)"><path fill="rgb(100%, 100%, 100%)" d="M 0.496094 0 L 164.503906 0 L 164.503906 89.457031 L 0.496094 89.457031 Z M 0.496094 0 " fill-opacity="1" fill-rule="nonzero"/><path fill="rgb(100%, 100%, 100%)" d="M 0.496094 0 L 164.503906 0 L 164.503906 82.003906 L 0.496094 82.003906 Z M 0.496094 0 " fill-opacity="1" fill-rule="nonzero"/><path fill="rgb(100%, 100%, 100%)" d="M 0.496094 0 L 164.503906 0 L 164.503906 82.003906 L 0.496094 82.003906 Z M 0.496094 0 " fill-opacity="1" fill-rule="nonzero"/><path fill="rgb(100%, 100%, 100%)" d="M 0.496094 0 L 164.503906 0 L 164.503906 82.003906 L 0.496094 82.003906 Z M 0.496094 0 " fill-opacity="1" fill-rule="nonzero"/><rect x="-16.5" width="198" fill="rgb(100%, 100%, 100%)" y="-8.25" height="98.999997" fill-opacity="1"/></g><g clip-path="url(#id2)"><path fill="rgb(6.269836%, 9.408569%, 12.548828%)" d="M 18.300781 46.101562 C 16.753906 46.109375 15.214844 45.84375 13.761719 45.316406 C 12.273438 44.753906 10.910156 43.910156 9.738281 42.835938 L 11.878906 40.246094 C 12.789062 41.042969 13.804688 41.710938 14.898438 42.226562 C 15.992188 42.703125 17.171875 42.9375 18.363281 42.914062 C 19.300781 42.964844 20.226562 42.71875 21.015625 42.207031 C 21.324219 42.003906 21.574219 41.726562 21.746094 41.398438 C 21.917969 41.070312 22.003906 40.703125 21.996094 40.335938 L 21.996094 40.246094 C 22 39.910156 21.9375 39.578125 21.808594 39.265625 C 21.640625 38.949219 21.398438 38.679688 21.101562 38.484375 C 20.664062 38.183594 20.191406 37.949219 19.691406 37.777344 C 18.929688 37.511719 18.152344 37.289062 17.367188 37.109375 C 16.375 36.886719 15.398438 36.601562 14.445312 36.246094 C 13.667969 35.96875 12.945312 35.574219 12.292969 35.070312 C 11.722656 34.625 11.269531 34.046875 10.96875 33.382812 C 10.652344 32.625 10.496094 31.808594 10.515625 30.984375 L 10.515625 30.921875 C 10.507812 30.101562 10.679688 29.292969 11.019531 28.550781 C 11.359375 27.808594 11.859375 27.148438 12.484375 26.621094 C 13.132812 26.078125 13.882812 25.667969 14.6875 25.40625 C 15.59375 25.105469 16.539062 24.957031 17.492188 24.964844 C 18.875 24.945312 20.25 25.167969 21.554688 25.625 C 22.78125 26.078125 23.925781 26.726562 24.945312 27.546875 L 23.03125 30.285156 C 22.167969 29.648438 21.230469 29.121094 20.238281 28.714844 C 19.351562 28.363281 18.410156 28.179688 17.453125 28.175781 C 16.585938 28.125 15.726562 28.371094 15.015625 28.875 C 14.742188 29.074219 14.519531 29.332031 14.367188 29.632812 C 14.214844 29.9375 14.136719 30.269531 14.136719 30.605469 L 14.136719 30.660156 C 14.128906 31.019531 14.199219 31.375 14.339844 31.707031 C 14.523438 32.035156 14.796875 32.308594 15.125 32.488281 C 15.582031 32.78125 16.070312 33.015625 16.585938 33.1875 C 17.21875 33.398438 18.027344 33.628906 19.007812 33.863281 C 19.984375 34.101562 20.941406 34.40625 21.878906 34.773438 C 22.632812 35.058594 23.332031 35.46875 23.949219 35.988281 C 24.492188 36.453125 24.921875 37.035156 25.210938 37.691406 C 25.507812 38.390625 25.65625 39.144531 25.640625 39.902344 L 25.640625 39.964844 C 25.65625 40.855469 25.472656 41.738281 25.101562 42.546875 C 24.75 43.296875 24.238281 43.957031 23.601562 44.484375 C 22.917969 45.03125 22.132812 45.4375 21.289062 45.683594 C 20.320312 45.972656 19.3125 46.113281 18.300781 46.101562 Z M 18.300781 46.101562 " fill-opacity="1" fill-rule="nonzero"/></g><path fill="rgb(6.269836%, 9.408569%, 12.548828%)" d="M 28.566406 30.316406 L 32.148438 30.316406 L 32.148438 32.898438 C 32.710938 32.082031 33.425781 31.378906 34.253906 30.835938 C 35.191406 30.246094 36.28125 29.953125 37.390625 29.996094 C 38.3125 29.996094 39.230469 30.179688 40.082031 30.539062 C 40.933594 30.898438 41.707031 31.421875 42.351562 32.082031 C 43.054688 32.804688 43.605469 33.660156 43.976562 34.601562 C 44.402344 35.695312 44.609375 36.863281 44.585938 38.035156 L 44.585938 38.097656 C 44.609375 39.269531 44.40625 40.433594 43.992188 41.527344 C 43.636719 42.460938 43.105469 43.320312 42.421875 44.050781 C 41.757812 44.730469 40.953125 45.265625 40.070312 45.621094 C 39.21875 45.96875 38.308594 46.148438 37.390625 46.148438 C 36.289062 46.191406 35.199219 45.917969 34.253906 45.363281 C 33.4375 44.835938 32.726562 44.164062 32.148438 43.386719 L 32.148438 50.445312 L 28.566406 50.445312 Z M 36.574219 43.046875 C 37.164062 43.050781 37.75 42.929688 38.289062 42.695312 C 38.824219 42.464844 39.300781 42.128906 39.703125 41.707031 C 40.121094 41.253906 40.445312 40.71875 40.652344 40.136719 C 40.894531 39.476562 41.015625 38.777344 41.003906 38.074219 L 41.003906 38.011719 C 41.011719 37.316406 40.894531 36.625 40.652344 35.972656 C 40.4375 35.394531 40.117188 34.859375 39.703125 34.402344 C 39.300781 33.972656 38.816406 33.632812 38.273438 33.402344 C 37.734375 33.167969 37.152344 33.050781 36.566406 33.054688 C 35.976562 33.058594 35.394531 33.179688 34.855469 33.414062 C 34.316406 33.648438 33.832031 33.992188 33.429688 34.417969 C 33.007812 34.878906 32.675781 35.410156 32.449219 35.988281 C 32.195312 36.632812 32.070312 37.320312 32.078125 38.011719 L 32.078125 38.074219 C 32.074219 38.769531 32.199219 39.457031 32.449219 40.105469 C 32.671875 40.6875 33.003906 41.21875 33.429688 41.675781 C 33.839844 42.097656 34.328125 42.4375 34.871094 42.671875 C 35.40625 42.910156 35.984375 43.039062 36.574219 43.046875 Z M 36.574219 43.046875 " fill-opacity="1" fill-rule="nonzero"/><path fill="rgb(6.269836%, 9.408569%, 12.548828%)" d="M 47.339844 30.316406 L 50.917969 30.316406 L 50.917969 33.808594 C 51.351562 32.699219 52.070312 31.730469 53.003906 30.992188 C 53.980469 30.273438 55.191406 29.9375 56.398438 30.050781 L 56.398438 33.808594 L 56.195312 33.808594 C 55.464844 33.796875 54.738281 33.925781 54.054688 34.183594 C 53.417969 34.433594 52.847656 34.828125 52.382812 35.328125 C 51.886719 35.882812 51.519531 36.539062 51.300781 37.25 C 51.03125 38.117188 50.898438 39.023438 50.917969 39.933594 L 50.917969 45.832031 L 47.339844 45.832031 Z M 47.339844 30.316406 " fill-opacity="1" fill-rule="nonzero"/><path fill="rgb(6.269836%, 9.408569%, 12.548828%)" d="M 65.667969 46.15625 C 64.59375 46.164062 63.527344 45.964844 62.53125 45.566406 C 61.585938 45.195312 60.730469 44.636719 60.003906 43.925781 C 59.28125 43.199219 58.707031 42.335938 58.320312 41.386719 C 57.902344 40.347656 57.695312 39.234375 57.707031 38.113281 L 57.707031 38.058594 C 57.699219 36.988281 57.886719 35.921875 58.265625 34.921875 C 58.617188 33.96875 59.148438 33.097656 59.832031 32.347656 C 60.492188 31.621094 61.292969 31.035156 62.1875 30.621094 C 63.144531 30.191406 64.183594 29.972656 65.234375 29.988281 C 66.351562 29.964844 67.460938 30.195312 68.476562 30.660156 C 69.386719 31.085938 70.1875 31.707031 70.828125 32.480469 C 71.472656 33.265625 71.960938 34.171875 72.261719 35.140625 C 72.578125 36.171875 72.738281 37.242188 72.734375 38.316406 C 72.734375 38.476562 72.734375 38.640625 72.734375 38.804688 C 72.734375 38.96875 72.734375 39.140625 72.6875 39.320312 L 61.285156 39.320312 C 61.402344 40.449219 61.945312 41.492188 62.796875 42.242188 C 63.625 42.921875 64.671875 43.28125 65.746094 43.253906 C 66.53125 43.273438 67.3125 43.109375 68.027344 42.78125 C 68.726562 42.425781 69.359375 41.960938 69.910156 41.402344 L 71.996094 43.253906 C 71.261719 44.125 70.359375 44.839844 69.347656 45.363281 C 68.199219 45.914062 66.9375 46.1875 65.667969 46.15625 Z M 69.1875 36.96875 C 69.128906 36.429688 69 35.902344 68.804688 35.398438 C 68.628906 34.921875 68.363281 34.484375 68.019531 34.105469 C 67.6875 33.742188 67.285156 33.449219 66.835938 33.242188 C 66.125 32.929688 65.339844 32.835938 64.574219 32.976562 C 63.8125 33.117188 63.105469 33.480469 62.554688 34.027344 C 61.8125 34.839844 61.351562 35.871094 61.246094 36.96875 Z M 69.1875 36.96875 " fill-opacity="1" fill-rule="nonzero"/><path fill="rgb(6.269836%, 9.408569%, 12.548828%)" d="M 84.878906 45.800781 L 84.878906 43.894531 C 84.3125 44.542969 83.625 45.074219 82.859375 45.464844 C 81.925781 45.917969 80.898438 46.140625 79.863281 46.109375 C 79.148438 46.117188 78.4375 46.019531 77.753906 45.816406 C 77.117188 45.628906 76.523438 45.320312 76.003906 44.90625 C 75.5 44.492188 75.089844 43.972656 74.804688 43.386719 C 74.488281 42.746094 74.332031 42.035156 74.347656 41.324219 L 74.347656 41.261719 C 74.332031 40.484375 74.492188 39.71875 74.820312 39.015625 C 75.125 38.398438 75.570312 37.863281 76.121094 37.449219 C 76.722656 37.011719 77.402344 36.691406 78.121094 36.507812 C 78.9375 36.296875 79.777344 36.195312 80.621094 36.199219 C 81.421875 36.191406 82.222656 36.25 83.015625 36.378906 C 83.652344 36.496094 84.285156 36.648438 84.902344 36.84375 L 84.902344 36.5625 C 84.9375 36.101562 84.863281 35.644531 84.695312 35.21875 C 84.523438 34.792969 84.261719 34.410156 83.925781 34.097656 C 83.113281 33.480469 82.109375 33.175781 81.09375 33.242188 C 80.300781 33.234375 79.511719 33.324219 78.742188 33.507812 C 78.03125 33.699219 77.339844 33.933594 76.660156 34.214844 L 75.691406 31.367188 C 76.542969 30.980469 77.425781 30.664062 78.332031 30.425781 C 79.402344 30.167969 80.496094 30.042969 81.59375 30.050781 C 83.902344 30.050781 85.609375 30.621094 86.722656 31.761719 C 87.308594 32.414062 87.753906 33.179688 88.042969 34.007812 C 88.328125 34.839844 88.449219 35.714844 88.394531 36.59375 L 88.394531 45.769531 Z M 84.96875 39.324219 C 84.460938 39.125 83.933594 38.976562 83.398438 38.882812 C 82.753906 38.761719 82.101562 38.699219 81.445312 38.703125 C 80.53125 38.652344 79.625 38.875 78.84375 39.347656 C 78.546875 39.535156 78.304688 39.796875 78.140625 40.105469 C 77.976562 40.414062 77.894531 40.761719 77.902344 41.109375 L 77.902344 41.164062 C 77.886719 41.5 77.957031 41.832031 78.109375 42.128906 C 78.257812 42.429688 78.484375 42.683594 78.765625 42.867188 C 79.394531 43.277344 80.136719 43.480469 80.890625 43.457031 C 81.441406 43.460938 81.992188 43.382812 82.519531 43.222656 C 82.976562 43.085938 83.40625 42.878906 83.789062 42.601562 C 84.152344 42.328125 84.453125 41.976562 84.660156 41.574219 C 84.867188 41.160156 84.972656 40.703125 84.96875 40.238281 Z M 84.96875 39.324219 " fill-opacity="1" fill-rule="nonzero"/><path fill="rgb(6.269836%, 9.408569%, 12.548828%)" d="M 91.742188 24.386719 L 95.320312 24.386719 L 95.320312 37.179688 L 101.742188 30.316406 L 106.054688 30.316406 L 99.890625 36.59375 L 106.257812 45.769531 L 102.148438 45.769531 L 97.492188 39.078125 L 95.320312 41.339844 L 95.320312 45.769531 L 91.742188 45.769531 Z M 91.742188 24.386719 " fill-opacity="1" fill-rule="nonzero"/><path fill="rgb(6.269836%, 9.408569%, 12.548828%)" d="M 115.027344 46.15625 C 113.953125 46.164062 112.886719 45.964844 111.890625 45.566406 C 110.9375 45.195312 110.074219 44.632812 109.347656 43.914062 C 108.625 43.195312 108.054688 42.332031 107.675781 41.386719 C 107.261719 40.347656 107.050781 39.234375 107.066406 38.113281 L 107.066406 38.058594 C 107.054688 36.988281 107.246094 35.921875 107.621094 34.921875 C 107.972656 33.96875 108.507812 33.097656 109.191406 32.347656 C 109.851562 31.621094 110.652344 31.035156 111.542969 30.621094 C 112.5 30.191406 113.539062 29.972656 114.585938 29.988281 C 115.707031 29.964844 116.816406 30.195312 117.832031 30.660156 C 118.730469 31.089844 119.519531 31.710938 120.144531 32.480469 C 120.777344 33.269531 121.253906 34.171875 121.542969 35.140625 C 121.859375 36.171875 122.019531 37.242188 122.011719 38.316406 C 122.011719 38.476562 122.011719 38.640625 122.011719 38.804688 C 122.011719 38.96875 122.011719 39.140625 121.964844 39.320312 L 110.625 39.320312 C 110.746094 40.449219 111.285156 41.492188 112.140625 42.242188 C 112.96875 42.921875 114.015625 43.28125 115.089844 43.253906 C 115.875 43.273438 116.65625 43.109375 117.371094 42.78125 C 118.089844 42.429688 118.746094 41.964844 119.316406 41.402344 L 121.402344 43.253906 C 120.664062 44.125 119.761719 44.84375 118.742188 45.363281 C 117.585938 45.921875 116.308594 46.195312 115.027344 46.15625 Z M 118.53125 36.96875 C 118.472656 36.429688 118.34375 35.902344 118.148438 35.398438 C 117.96875 34.921875 117.703125 34.484375 117.363281 34.105469 C 117.035156 33.722656 116.632812 33.410156 116.179688 33.1875 C 115.6875 32.964844 115.152344 32.855469 114.609375 32.867188 C 114.105469 32.851562 113.601562 32.945312 113.132812 33.140625 C 112.664062 33.335938 112.242188 33.625 111.898438 33.996094 C 111.152344 34.808594 110.695312 35.839844 110.585938 36.9375 Z M 118.53125 36.96875 " fill-opacity="1" fill-rule="nonzero"/><path fill="rgb(6.269836%, 9.408569%, 12.548828%)" d="M 124.804688 30.316406 L 128.378906 30.316406 L 128.378906 33.808594 C 128.816406 32.703125 129.53125 31.730469 130.460938 30.992188 C 131.429688 30.285156 132.625 29.949219 133.824219 30.050781 L 133.824219 33.808594 L 133.617188 33.808594 C 132.886719 33.796875 132.160156 33.925781 131.476562 34.183594 C 130.84375 34.433594 130.273438 34.828125 129.808594 35.328125 C 129.316406 35.875 128.949219 36.519531 128.726562 37.21875 C 128.453125 38.085938 128.324219 38.992188 128.339844 39.902344 L 128.339844 45.800781 L 124.804688 45.800781 Z M 124.804688 30.316406 " fill-opacity="1" fill-rule="nonzero"/><g clip-path="url(#id3)"><path fill="rgb(100%, 75.289917%, 5.488586%)" d="M 141.015625 31.414062 L 133.492188 38.9375 L 141.015625 36.648438 L 146.878906 43.246094 L 147.25 34.609375 L 155.050781 31.414062 L 147.40625 28.214844 L 146.449219 20.0625 L 141.492188 26.292969 L 133.492188 24.847656 Z M 141.015625 31.414062 " fill-opacity="1" fill-rule="nonzero"/></g><path fill="rgb(77.249146%, 12.548828%, 17.649841%)" d="M 108.886719 50.523438 C 108.203125 50.53125 107.53125 50.703125 106.929688 51.03125 C 106.328125 51.355469 105.8125 51.824219 105.433594 52.390625 C 105.058594 51.820312 104.546875 51.355469 103.945312 51.027344 C 103.347656 50.703125 102.675781 50.53125 101.992188 50.523438 C 100.898438 50.523438 99.847656 50.960938 99.074219 51.734375 C 98.300781 52.507812 97.867188 53.554688 97.867188 54.648438 C 97.867188 56.101562 98.777344 57.144531 99.734375 58.109375 L 103.472656 61.648438 C 103.519531 61.691406 103.574219 61.71875 103.632812 61.726562 C 103.691406 61.738281 103.753906 61.730469 103.808594 61.707031 C 103.863281 61.683594 103.910156 61.640625 103.945312 61.589844 C 103.976562 61.539062 103.992188 61.480469 103.992188 61.421875 L 103.992188 58.667969 C 103.992188 58.285156 104.144531 57.917969 104.414062 57.644531 C 104.683594 57.375 105.050781 57.222656 105.433594 57.222656 C 105.816406 57.222656 106.183594 57.375 106.453125 57.644531 C 106.726562 57.917969 106.878906 58.285156 106.878906 58.667969 L 106.878906 61.429688 C 106.875 61.488281 106.894531 61.546875 106.925781 61.597656 C 106.957031 61.652344 107.003906 61.691406 107.0625 61.714844 C 107.117188 61.738281 107.175781 61.746094 107.238281 61.734375 C 107.296875 61.726562 107.351562 61.699219 107.394531 61.65625 L 111.136719 58.117188 C 112.09375 57.152344 113.011719 56.109375 113.011719 54.660156 C 113.011719 54.117188 112.90625 53.578125 112.699219 53.078125 C 112.492188 52.574219 112.1875 52.121094 111.804688 51.734375 C 111.421875 51.351562 110.964844 51.046875 110.464844 50.839844 C 109.964844 50.632812 109.425781 50.523438 108.886719 50.523438 Z M 101.695312 57.835938 C 101.667969 57.863281 101.636719 57.890625 101.597656 57.90625 C 101.5625 57.921875 101.523438 57.929688 101.484375 57.929688 C 101.410156 57.929688 101.339844 57.90625 101.285156 57.859375 C 100.753906 57.460938 100.308594 56.953125 99.992188 56.367188 C 99.671875 55.78125 99.480469 55.132812 99.4375 54.46875 C 99.449219 53.953125 99.582031 53.445312 99.828125 52.988281 C 100.070312 52.535156 100.417969 52.140625 100.839844 51.84375 C 100.871094 51.820312 100.90625 51.808594 100.941406 51.800781 C 100.980469 51.796875 101.015625 51.796875 101.054688 51.804688 C 101.089844 51.8125 101.125 51.828125 101.15625 51.847656 C 101.183594 51.871094 101.210938 51.898438 101.230469 51.929688 C 101.25 51.960938 101.265625 51.996094 101.273438 52.03125 C 101.277344 52.066406 101.277344 52.105469 101.269531 52.140625 C 101.261719 52.179688 101.246094 52.214844 101.226562 52.242188 C 101.203125 52.273438 101.175781 52.300781 101.144531 52.320312 C 100.804688 52.566406 100.523438 52.890625 100.324219 53.261719 C 100.125 53.636719 100.015625 54.046875 100 54.46875 C 100.050781 55.054688 100.226562 55.621094 100.515625 56.132812 C 100.804688 56.644531 101.195312 57.089844 101.671875 57.433594 C 101.699219 57.460938 101.722656 57.488281 101.738281 57.523438 C 101.753906 57.554688 101.761719 57.59375 101.765625 57.628906 C 101.769531 57.667969 101.761719 57.703125 101.75 57.738281 C 101.738281 57.773438 101.71875 57.808594 101.695312 57.835938 Z M 103.53125 56.777344 C 103.503906 56.820312 103.46875 56.859375 103.421875 56.882812 C 103.378906 56.90625 103.328125 56.917969 103.277344 56.917969 C 103.234375 56.929688 103.1875 56.929688 103.144531 56.917969 C 102.734375 56.6875 102.386719 56.359375 102.140625 55.957031 C 101.894531 55.554688 101.757812 55.097656 101.742188 54.625 C 101.742188 54.207031 101.859375 53.792969 102.078125 53.433594 C 102.296875 53.074219 102.605469 52.78125 102.980469 52.585938 C 103.046875 52.554688 103.125 52.546875 103.199219 52.570312 C 103.269531 52.59375 103.328125 52.644531 103.363281 52.710938 C 103.398438 52.78125 103.402344 52.855469 103.378906 52.929688 C 103.359375 53 103.3125 53.058594 103.246094 53.097656 C 102.960938 53.246094 102.722656 53.472656 102.554688 53.75 C 102.390625 54.027344 102.308594 54.34375 102.3125 54.667969 C 102.328125 55.035156 102.4375 55.390625 102.632812 55.703125 C 102.828125 56.019531 103.097656 56.277344 103.417969 56.453125 C 103.46875 56.488281 103.507812 56.539062 103.527344 56.597656 C 103.546875 56.65625 103.546875 56.71875 103.53125 56.777344 Z M 105.433594 56.046875 C 105.1875 56.046875 104.945312 55.976562 104.738281 55.839844 C 104.53125 55.703125 104.371094 55.507812 104.277344 55.28125 C 104.179688 55.050781 104.15625 54.800781 104.203125 54.558594 C 104.25 54.316406 104.371094 54.09375 104.546875 53.917969 C 104.71875 53.742188 104.941406 53.625 105.1875 53.574219 C 105.429688 53.527344 105.679688 53.554688 105.90625 53.648438 C 106.136719 53.746094 106.332031 53.90625 106.46875 54.109375 C 106.601562 54.316406 106.675781 54.558594 106.675781 54.808594 C 106.675781 54.96875 106.640625 55.132812 106.578125 55.28125 C 106.515625 55.433594 106.425781 55.570312 106.3125 55.683594 C 106.195312 55.800781 106.058594 55.890625 105.910156 55.953125 C 105.757812 56.015625 105.597656 56.046875 105.433594 56.046875 Z M 107.734375 56.886719 C 107.6875 56.898438 107.636719 56.898438 107.589844 56.886719 C 107.539062 56.886719 107.492188 56.875 107.445312 56.851562 C 107.402344 56.824219 107.367188 56.789062 107.339844 56.746094 C 107.304688 56.679688 107.296875 56.601562 107.316406 56.527344 C 107.339844 56.453125 107.386719 56.390625 107.449219 56.351562 C 107.773438 56.175781 108.046875 55.917969 108.242188 55.605469 C 108.4375 55.292969 108.546875 54.933594 108.5625 54.5625 C 108.570312 54.242188 108.488281 53.921875 108.320312 53.644531 C 108.15625 53.367188 107.917969 53.144531 107.628906 52.996094 C 107.597656 52.976562 107.566406 52.953125 107.542969 52.925781 C 107.519531 52.898438 107.503906 52.863281 107.492188 52.828125 C 107.480469 52.792969 107.476562 52.753906 107.480469 52.71875 C 107.484375 52.679688 107.496094 52.644531 107.511719 52.609375 C 107.53125 52.578125 107.554688 52.546875 107.582031 52.523438 C 107.609375 52.496094 107.644531 52.480469 107.679688 52.46875 C 107.714844 52.457031 107.753906 52.449219 107.789062 52.453125 C 107.828125 52.457031 107.863281 52.46875 107.898438 52.484375 C 108.265625 52.683594 108.578125 52.976562 108.792969 53.335938 C 109.011719 53.695312 109.128906 54.105469 109.136719 54.523438 C 109.128906 55.007812 108.992188 55.476562 108.746094 55.890625 C 108.5 56.304688 108.152344 56.648438 107.734375 56.886719 Z M 111.472656 54.46875 C 111.425781 55.136719 111.234375 55.78125 110.914062 56.367188 C 110.59375 56.953125 110.148438 57.460938 109.613281 57.859375 C 109.589844 57.886719 109.558594 57.90625 109.523438 57.921875 C 109.488281 57.933594 109.453125 57.941406 109.414062 57.941406 C 109.378906 57.941406 109.339844 57.933594 109.304688 57.921875 C 109.273438 57.90625 109.242188 57.886719 109.214844 57.859375 C 109.1875 57.832031 109.167969 57.800781 109.152344 57.765625 C 109.140625 57.734375 109.132812 57.695312 109.132812 57.660156 C 109.132812 57.621094 109.140625 57.585938 109.152344 57.550781 C 109.167969 57.515625 109.1875 57.484375 109.214844 57.457031 C 109.6875 57.113281 110.082031 56.667969 110.367188 56.15625 C 110.652344 55.644531 110.828125 55.078125 110.878906 54.492188 C 110.863281 54.074219 110.753906 53.660156 110.554688 53.289062 C 110.359375 52.914062 110.078125 52.59375 109.742188 52.34375 C 109.707031 52.324219 109.679688 52.300781 109.65625 52.269531 C 109.632812 52.238281 109.617188 52.207031 109.605469 52.167969 C 109.597656 52.132812 109.597656 52.09375 109.605469 52.054688 C 109.609375 52.019531 109.625 51.984375 109.644531 51.953125 C 109.664062 51.921875 109.691406 51.894531 109.722656 51.871094 C 109.753906 51.851562 109.789062 51.835938 109.824219 51.828125 C 109.859375 51.820312 109.898438 51.816406 109.933594 51.824219 C 109.972656 51.832031 110.007812 51.84375 110.039062 51.867188 C 110.460938 52.164062 110.8125 52.554688 111.058594 53.011719 C 111.300781 53.46875 111.4375 53.976562 111.449219 54.492188 Z M 111.472656 54.46875 " fill-opacity="1" fill-rule="nonzero"/><path fill="rgb(6.269836%, 9.408569%, 12.548828%)" d="M 118.066406 53.113281 L 120.171875 53.113281 L 120.171875 55.9375 L 122.859375 55.9375 L 122.859375 53.113281 L 124.960938 53.113281 L 124.960938 60.691406 L 122.859375 60.691406 L 122.859375 57.8125 L 120.171875 57.8125 L 120.171875 60.691406 L 118.066406 60.691406 Z M 118.066406 53.113281 " fill-opacity="1" fill-rule="nonzero"/><path fill="rgb(6.269836%, 9.408569%, 12.548828%)" d="M 125.589844 57.789062 C 125.570312 57.390625 125.636719 56.992188 125.777344 56.621094 C 125.917969 56.246094 126.132812 55.90625 126.410156 55.621094 C 126.6875 55.335938 127.019531 55.105469 127.386719 54.953125 C 127.753906 54.796875 128.148438 54.71875 128.546875 54.722656 C 130.5625 54.722656 131.496094 56.203125 131.496094 57.929688 C 131.496094 58.054688 131.496094 58.203125 131.496094 58.34375 L 127.574219 58.34375 C 127.632812 58.632812 127.792969 58.890625 128.027344 59.066406 C 128.261719 59.246094 128.550781 59.332031 128.84375 59.308594 C 129.089844 59.308594 129.332031 59.253906 129.554688 59.148438 C 129.777344 59.046875 129.976562 58.898438 130.136719 58.714844 L 131.273438 59.65625 C 130.972656 60.039062 130.585938 60.347656 130.144531 60.550781 C 129.699219 60.757812 129.214844 60.851562 128.726562 60.832031 C 128.316406 60.859375 127.902344 60.796875 127.515625 60.65625 C 127.128906 60.515625 126.777344 60.292969 126.484375 60.003906 C 126.1875 59.71875 125.957031 59.375 125.800781 58.992188 C 125.648438 58.609375 125.574219 58.199219 125.589844 57.789062 Z M 129.566406 57.253906 C 129.570312 57.117188 129.550781 56.984375 129.5 56.855469 C 129.453125 56.730469 129.378906 56.613281 129.285156 56.515625 C 129.191406 56.417969 129.074219 56.34375 128.949219 56.292969 C 128.824219 56.242188 128.6875 56.214844 128.554688 56.21875 C 128.28125 56.226562 128.023438 56.335938 127.832031 56.53125 C 127.644531 56.722656 127.535156 56.984375 127.535156 57.253906 Z M 129.566406 57.253906 " fill-opacity="1" fill-rule="nonzero"/><path fill="rgb(6.269836%, 9.408569%, 12.548828%)" d="M 138.378906 54.839844 L 140.433594 54.839844 L 140.433594 56.015625 C 140.550781 55.625 140.800781 55.285156 141.136719 55.050781 C 141.472656 54.820312 141.878906 54.707031 142.285156 54.738281 L 142.285156 56.902344 L 142.113281 56.902344 C 141.046875 56.902344 140.433594 57.519531 140.433594 58.871094 L 140.433594 60.691406 L 138.378906 60.691406 Z M 138.378906 54.839844 " fill-opacity="1" fill-rule="nonzero"/><path fill="rgb(6.269836%, 9.408569%, 12.548828%)" d="M 143.570312 58.871094 L 143.570312 56.515625 L 142.878906 56.515625 L 142.878906 54.839844 L 143.570312 54.839844 L 143.570312 53.355469 L 145.625 53.355469 L 145.625 54.839844 L 146.988281 54.839844 L 146.988281 56.492188 L 145.625 56.492188 L 145.625 58.472656 C 145.625 58.886719 145.8125 59.058594 146.191406 59.058594 C 146.460938 59.050781 146.730469 58.984375 146.972656 58.863281 L 146.972656 60.433594 C 146.535156 60.667969 146.042969 60.78125 145.546875 60.769531 C 145.285156 60.8125 145.015625 60.792969 144.761719 60.710938 C 144.511719 60.632812 144.277344 60.496094 144.085938 60.3125 C 143.894531 60.128906 143.75 59.902344 143.660156 59.652344 C 143.570312 59.402344 143.539062 59.132812 143.570312 58.871094 Z M 143.570312 58.871094 " fill-opacity="1" fill-rule="nonzero"/><path fill="rgb(6.269836%, 9.408569%, 12.548828%)" d="M 116.054688 52.570312 C 115.835938 52.570312 115.625 52.636719 115.449219 52.753906 C 115.269531 52.875 115.128906 53.046875 115.046875 53.246094 C 114.964844 53.445312 114.941406 53.664062 114.984375 53.875 C 115.027344 54.085938 115.128906 54.28125 115.28125 54.433594 C 115.433594 54.585938 115.628906 54.691406 115.839844 54.730469 C 116.050781 54.773438 116.269531 54.75 116.46875 54.667969 C 116.667969 54.585938 116.839844 54.449219 116.960938 54.269531 C 117.078125 54.089844 117.144531 53.878906 117.144531 53.660156 C 117.144531 53.371094 117.027344 53.09375 116.824219 52.890625 C 116.621094 52.6875 116.34375 52.570312 116.054688 52.570312 Z M 116.054688 52.570312 " fill-opacity="1" fill-rule="nonzero"/><path fill="rgb(6.269836%, 9.408569%, 12.548828%)" d="M 137.585938 57.75 C 137.601562 57.335938 137.527344 56.925781 137.375 56.546875 C 137.222656 56.164062 136.988281 55.820312 136.691406 55.53125 C 136.398438 55.246094 136.046875 55.023438 135.660156 54.882812 C 135.273438 54.738281 134.863281 54.679688 134.449219 54.707031 C 133.960938 54.691406 133.472656 54.796875 133.03125 55.011719 C 132.585938 55.226562 132.203125 55.542969 131.910156 55.9375 L 133.046875 56.878906 C 133.210938 56.695312 133.410156 56.546875 133.632812 56.445312 C 133.855469 56.34375 134.09375 56.285156 134.339844 56.28125 C 134.628906 56.261719 134.914062 56.347656 135.144531 56.519531 C 135.378906 56.691406 135.539062 56.941406 135.601562 57.222656 L 135.601562 57.269531 L 134.253906 57.269531 C 132.570312 57.269531 131.691406 57.921875 131.691406 59.105469 C 131.691406 60.289062 132.472656 60.863281 133.902344 60.863281 C 134.226562 60.871094 134.546875 60.8125 134.84375 60.691406 C 135.144531 60.570312 135.417969 60.386719 135.640625 60.15625 L 135.640625 60.722656 L 137.585938 60.722656 Z M 134.519531 59.523438 C 133.988281 59.523438 133.667969 59.238281 133.667969 58.871094 C 133.667969 58.5 133.949219 58.328125 134.449219 58.328125 L 135.625 58.328125 L 135.625 58.390625 C 135.628906 58.539062 135.605469 58.6875 135.550781 58.824219 C 135.496094 58.960938 135.414062 59.085938 135.3125 59.191406 C 135.207031 59.292969 135.085938 59.378906 134.949219 59.433594 C 134.8125 59.492188 134.667969 59.523438 134.519531 59.523438 Z M 134.519531 59.523438 " fill-opacity="1" fill-rule="nonzero"/><path fill="rgb(6.269836%, 9.408569%, 12.548828%)" d="M 116.09375 55.269531 L 116.015625 55.269531 C 115.875 55.269531 115.734375 55.296875 115.605469 55.351562 C 115.476562 55.40625 115.359375 55.484375 115.261719 55.582031 C 115.160156 55.683594 115.082031 55.800781 115.027344 55.929688 C 114.976562 56.058594 114.945312 56.195312 114.945312 56.335938 L 114.945312 60.691406 L 117.167969 60.691406 L 117.167969 56.335938 C 117.167969 56.195312 117.136719 56.058594 117.085938 55.925781 C 117.03125 55.796875 116.953125 55.679688 116.851562 55.578125 C 116.75 55.480469 116.632812 55.402344 116.503906 55.347656 C 116.371094 55.296875 116.234375 55.269531 116.09375 55.269531 Z M 116.09375 55.269531 " fill-opacity="1" fill-rule="nonzero"/><path fill="rgb(6.269836%, 9.408569%, 12.548828%)" d="M 74.363281 52.996094 C 74.363281 52.925781 74.375 52.859375 74.402344 52.796875 C 74.425781 52.734375 74.464844 52.675781 74.515625 52.628906 C 74.5625 52.578125 74.621094 52.539062 74.683594 52.515625 C 74.746094 52.488281 74.8125 52.476562 74.882812 52.476562 L 78.300781 52.476562 C 78.367188 52.46875 78.433594 52.472656 78.5 52.492188 C 78.5625 52.511719 78.621094 52.546875 78.671875 52.589844 C 78.722656 52.632812 78.761719 52.6875 78.789062 52.75 C 78.816406 52.8125 78.832031 52.878906 78.832031 52.945312 C 78.832031 53.011719 78.816406 53.078125 78.789062 53.136719 C 78.761719 53.199219 78.722656 53.253906 78.671875 53.296875 C 78.621094 53.34375 78.5625 53.375 78.5 53.394531 C 78.433594 53.414062 78.367188 53.417969 78.300781 53.410156 L 75.398438 53.410156 L 75.398438 54.980469 L 77.933594 54.980469 C 78.058594 54.980469 78.175781 55.03125 78.265625 55.117188 C 78.351562 55.207031 78.402344 55.324219 78.402344 55.449219 C 78.402344 55.574219 78.351562 55.695312 78.265625 55.78125 C 78.175781 55.871094 78.058594 55.921875 77.933594 55.921875 L 75.398438 55.921875 L 75.398438 57.835938 C 75.402344 57.902344 75.386719 57.96875 75.363281 58.03125 C 75.335938 58.09375 75.300781 58.152344 75.253906 58.199219 C 75.207031 58.246094 75.148438 58.28125 75.085938 58.308594 C 75.023438 58.332031 74.957031 58.347656 74.890625 58.34375 C 74.820312 58.347656 74.753906 58.332031 74.691406 58.308594 C 74.628906 58.285156 74.574219 58.246094 74.523438 58.199219 C 74.476562 58.152344 74.4375 58.09375 74.410156 58.03125 C 74.386719 57.96875 74.371094 57.902344 74.371094 57.835938 Z M 74.363281 52.996094 " fill-opacity="1" fill-rule="nonzero"/><path fill="rgb(6.269836%, 9.408569%, 12.548828%)" d="M 79.742188 54.367188 C 79.742188 54.300781 79.753906 54.234375 79.78125 54.171875 C 79.804688 54.113281 79.84375 54.054688 79.886719 54.007812 C 79.933594 53.960938 79.992188 53.921875 80.050781 53.898438 C 80.113281 53.871094 80.179688 53.859375 80.246094 53.859375 C 80.3125 53.859375 80.378906 53.871094 80.441406 53.898438 C 80.503906 53.921875 80.558594 53.960938 80.605469 54.007812 C 80.652344 54.054688 80.691406 54.109375 80.71875 54.171875 C 80.742188 54.234375 80.753906 54.300781 80.753906 54.367188 L 80.753906 54.824219 C 80.832031 54.574219 80.976562 54.347656 81.171875 54.175781 C 81.371094 54.003906 81.613281 53.890625 81.871094 53.851562 C 81.9375 53.84375 82.003906 53.855469 82.066406 53.878906 C 82.128906 53.902344 82.1875 53.9375 82.234375 53.988281 C 82.28125 54.035156 82.320312 54.09375 82.34375 54.15625 C 82.367188 54.21875 82.375 54.285156 82.371094 54.351562 C 82.375 54.46875 82.335938 54.582031 82.261719 54.671875 C 82.1875 54.761719 82.085938 54.820312 81.972656 54.839844 C 81.25 54.964844 80.753906 55.511719 80.753906 56.5625 L 80.753906 57.867188 C 80.753906 58 80.699219 58.128906 80.605469 58.222656 C 80.507812 58.316406 80.378906 58.367188 80.246094 58.367188 C 80.113281 58.367188 79.984375 58.316406 79.890625 58.222656 C 79.796875 58.128906 79.742188 58 79.742188 57.867188 Z M 79.742188 54.367188 " fill-opacity="1" fill-rule="nonzero"/><path fill="rgb(6.269836%, 9.408569%, 12.548828%)" d="M 82.808594 56.148438 C 82.808594 55.523438 83.058594 54.925781 83.5 54.484375 C 83.941406 54.042969 84.539062 53.796875 85.164062 53.796875 C 85.785156 53.796875 86.386719 54.042969 86.828125 54.484375 C 87.269531 54.925781 87.515625 55.523438 87.515625 56.148438 C 87.503906 56.765625 87.25 57.351562 86.808594 57.78125 C 86.371094 58.214844 85.777344 58.453125 85.164062 58.453125 C 84.855469 58.464844 84.550781 58.410156 84.261719 58.296875 C 83.976562 58.183594 83.71875 58.015625 83.496094 57.800781 C 83.277344 57.585938 83.105469 57.328125 82.984375 57.046875 C 82.867188 56.761719 82.808594 56.457031 82.808594 56.148438 Z M 86.511719 56.148438 C 86.519531 55.964844 86.488281 55.78125 86.425781 55.613281 C 86.359375 55.441406 86.261719 55.28125 86.132812 55.152344 C 86.007812 55.019531 85.855469 54.914062 85.6875 54.839844 C 85.519531 54.765625 85.339844 54.730469 85.15625 54.730469 C 84.972656 54.726562 84.792969 54.761719 84.625 54.835938 C 84.460938 54.90625 84.308594 55.011719 84.183594 55.140625 C 84.058594 55.273438 83.960938 55.429688 83.898438 55.601562 C 83.835938 55.769531 83.8125 55.953125 83.820312 56.132812 C 83.816406 56.316406 83.84375 56.496094 83.90625 56.667969 C 83.972656 56.839844 84.070312 56.996094 84.195312 57.128906 C 84.320312 57.261719 84.472656 57.367188 84.640625 57.4375 C 84.808594 57.511719 84.988281 57.550781 85.171875 57.554688 C 85.351562 57.554688 85.53125 57.519531 85.699219 57.449219 C 85.867188 57.375 86.019531 57.273438 86.144531 57.140625 C 86.269531 57.007812 86.367188 56.851562 86.429688 56.683594 C 86.492188 56.511719 86.519531 56.332031 86.511719 56.148438 Z M 86.511719 56.148438 " fill-opacity="1" fill-rule="nonzero"/><path fill="rgb(6.269836%, 9.408569%, 12.548828%)" d="M 88.558594 54.367188 C 88.554688 54.300781 88.566406 54.234375 88.59375 54.171875 C 88.617188 54.109375 88.652344 54.054688 88.699219 54.003906 C 88.746094 53.957031 88.804688 53.921875 88.867188 53.894531 C 88.925781 53.871094 88.992188 53.855469 89.0625 53.859375 C 89.128906 53.859375 89.195312 53.871094 89.253906 53.898438 C 89.316406 53.921875 89.375 53.960938 89.421875 54.007812 C 89.46875 54.054688 89.507812 54.109375 89.53125 54.171875 C 89.558594 54.234375 89.570312 54.300781 89.570312 54.367188 L 89.570312 54.578125 C 89.707031 54.34375 89.902344 54.144531 90.140625 54.007812 C 90.378906 53.871094 90.644531 53.796875 90.917969 53.796875 C 91.191406 53.785156 91.460938 53.851562 91.695312 53.992188 C 91.929688 54.128906 92.117188 54.335938 92.238281 54.578125 C 92.402344 54.335938 92.625 54.136719 92.882812 54 C 93.144531 53.863281 93.433594 53.792969 93.726562 53.796875 C 93.945312 53.78125 94.167969 53.816406 94.375 53.898438 C 94.578125 53.980469 94.761719 54.109375 94.914062 54.269531 C 95.0625 54.433594 95.175781 54.625 95.242188 54.835938 C 95.308594 55.046875 95.324219 55.269531 95.296875 55.488281 L 95.296875 57.84375 C 95.28125 57.964844 95.21875 58.082031 95.125 58.164062 C 95.035156 58.246094 94.914062 58.289062 94.789062 58.289062 C 94.664062 58.289062 94.542969 58.246094 94.453125 58.164062 C 94.359375 58.082031 94.296875 57.964844 94.285156 57.84375 L 94.285156 55.828125 C 94.285156 55.121094 93.953125 54.746094 93.382812 54.746094 C 92.808594 54.746094 92.441406 55.128906 92.441406 55.84375 L 92.441406 57.875 C 92.425781 58 92.367188 58.113281 92.273438 58.195312 C 92.179688 58.277344 92.058594 58.320312 91.933594 58.320312 C 91.8125 58.320312 91.691406 58.277344 91.597656 58.195312 C 91.503906 58.113281 91.445312 58 91.429688 57.875 L 91.429688 55.820312 C 91.429688 55.128906 91.09375 54.746094 90.527344 54.746094 C 89.960938 54.746094 89.585938 55.160156 89.585938 55.84375 L 89.585938 57.875 C 89.585938 57.941406 89.574219 58.007812 89.546875 58.070312 C 89.519531 58.128906 89.484375 58.1875 89.4375 58.230469 C 89.390625 58.277344 89.332031 58.316406 89.269531 58.339844 C 89.210938 58.367188 89.144531 58.378906 89.074219 58.375 C 89.011719 58.378906 88.945312 58.367188 88.882812 58.339844 C 88.820312 58.316406 88.765625 58.277344 88.71875 58.230469 C 88.671875 58.183594 88.636719 58.128906 88.609375 58.066406 C 88.585938 58.007812 88.574219 57.941406 88.574219 57.875 Z M 88.558594 54.367188 " fill-opacity="1" fill-rule="nonzero"/></svg>