<svg xmlns="http://www.w3.org/2000/svg" xmlns:xlink="http://www.w3.org/1999/xlink" width="220" zoomAndPan="magnify" viewBox="0 0 165 82.499998" height="110" preserveAspectRatio="xMidYMid meet" version="1.0"><defs><clipPath id="id1"><path d="M 0.496094 0 L 164.503906 0 L 164.503906 82.003906 L 0.496094 82.003906 Z M 0.496094 0 " clip-rule="nonzero"/></clipPath></defs><g clip-path="url(#id1)"><path fill="rgb(100%, 100%, 100%)" d="M 0.496094 0 L 164.503906 0 L 164.503906 89.457031 L 0.496094 89.457031 Z M 0.496094 0 " fill-opacity="1" fill-rule="nonzero"/><path fill="rgb(100%, 100%, 100%)" d="M 0.496094 0 L 164.503906 0 L 164.503906 82.003906 L 0.496094 82.003906 Z M 0.496094 0 " fill-opacity="1" fill-rule="nonzero"/><path fill="rgb(100%, 100%, 100%)" d="M 0.496094 0 L 164.503906 0 L 164.503906 82.003906 L 0.496094 82.003906 Z M 0.496094 0 " fill-opacity="1" fill-rule="nonzero"/><path fill="rgb(100%, 100%, 100%)" d="M 0.496094 0 L 164.503906 0 L 164.503906 82.003906 L 0.496094 82.003906 Z M 0.496094 0 " fill-opacity="1" fill-rule="nonzero"/></g><path fill="rgb(94.898987%, 18.429565%, 27.449036%)" d="M 111.988281 27.722656 L 104.523438 27.722656 C 104.414062 27.722656 104.320312 27.761719 104.246094 27.835938 C 104.167969 27.914062 104.132812 28.007812 104.128906 28.113281 L 104.128906 32.617188 C 104.132812 32.726562 104.167969 32.816406 104.246094 32.894531 C 104.320312 32.96875 104.414062 33.007812 104.523438 33.007812 L 111.988281 33.007812 C 112.097656 33.007812 112.1875 32.96875 112.265625 32.894531 C 112.339844 32.816406 112.378906 32.726562 112.378906 32.617188 L 112.378906 28.113281 C 112.378906 28.007812 112.339844 27.914062 112.265625 27.835938 C 112.1875 27.761719 112.097656 27.722656 111.988281 27.722656 " fill-opacity="1" fill-rule="nonzero"/><path fill="rgb(94.898987%, 18.429565%, 27.449036%)" d="M 71.046875 47.886719 C 69.734375 47.886719 69.046875 47.335938 69.046875 45.84375 L 69.046875 40.8125 L 73.238281 40.8125 C 73.347656 40.8125 73.4375 40.773438 73.515625 40.695312 C 73.589844 40.621094 73.628906 40.527344 73.628906 40.417969 L 73.628906 35.695312 L 79.140625 54.109375 C 79.222656 54.347656 79.390625 54.472656 79.640625 54.484375 L 85.734375 54.484375 C 85.984375 54.472656 86.15625 54.347656 86.242188 54.109375 L 88.851562 45.953125 L 90.179688 50.21875 L 91.390625 54.109375 C 91.476562 54.347656 91.644531 54.472656 91.898438 54.484375 L 98.027344 54.484375 C 98.277344 54.472656 98.445312 54.347656 98.53125 54.109375 L 104.125 35.640625 L 104.125 54.097656 C 104.125 54.207031 104.160156 54.300781 104.238281 54.375 C 104.316406 54.453125 104.40625 54.492188 104.515625 54.492188 L 111.988281 54.492188 C 112.097656 54.492188 112.1875 54.453125 112.265625 54.375 C 112.339844 54.300781 112.378906 54.207031 112.378906 54.097656 L 112.378906 34.824219 C 112.378906 34.714844 112.339844 34.621094 112.265625 34.546875 C 112.1875 34.46875 112.097656 34.429688 111.988281 34.429688 L 97.097656 34.429688 C 96.84375 34.441406 96.683594 34.566406 96.609375 34.808594 L 94.699219 42.144531 L 94.597656 42.523438 L 92.273438 34.734375 C 92.191406 34.492188 92.023438 34.367188 91.769531 34.355469 L 85.96875 34.355469 C 85.71875 34.367188 85.550781 34.492188 85.46875 34.734375 L 83.289062 42.078125 L 83.179688 42.453125 L 83.082031 42.074219 L 81.238281 34.808594 C 81.167969 34.566406 81.003906 34.441406 80.753906 34.429688 L 69.046875 34.429688 L 69.046875 28.132812 C 69.046875 28 68.992188 27.894531 68.886719 27.816406 C 68.78125 27.738281 68.664062 27.71875 68.539062 27.757812 L 61.257812 30.035156 C 61.121094 30.078125 61.007812 30.15625 60.921875 30.273438 C 60.835938 30.390625 60.792969 30.523438 60.792969 30.671875 L 60.792969 34.429688 L 58.855469 34.429688 C 58.746094 34.429688 58.65625 34.46875 58.578125 34.546875 C 58.503906 34.621094 58.464844 34.714844 58.464844 34.824219 L 58.464844 40.417969 C 58.464844 40.527344 58.503906 40.621094 58.578125 40.695312 C 58.65625 40.773438 58.746094 40.8125 58.855469 40.8125 L 60.792969 40.8125 L 60.792969 47.664062 C 60.792969 52.515625 63.410156 54.777344 68.285156 54.777344 C 70.164062 54.777344 72.015625 54.386719 73.320312 53.765625 C 73.480469 53.683594 73.558594 53.554688 73.554688 53.375 L 73.554688 47.886719 C 73.554688 47.824219 73.542969 47.761719 73.511719 47.707031 C 73.480469 47.648438 73.441406 47.601562 73.386719 47.566406 C 73.335938 47.53125 73.277344 47.507812 73.214844 47.5 C 73.148438 47.492188 73.089844 47.5 73.027344 47.523438 C 72.390625 47.761719 71.730469 47.882812 71.046875 47.886719 Z M 71.046875 47.886719 " fill-opacity="1" fill-rule="nonzero"/><path fill="rgb(94.898987%, 18.429565%, 27.449036%)" d="M 121.824219 27.722656 C 121.933594 27.722656 122.023438 27.761719 122.101562 27.835938 C 122.175781 27.914062 122.214844 28.007812 122.214844 28.113281 L 122.214844 54.101562 C 122.214844 54.207031 122.175781 54.300781 122.101562 54.375 C 122.023438 54.453125 121.929688 54.492188 121.824219 54.492188 L 114.351562 54.492188 C 114.242188 54.492188 114.152344 54.453125 114.074219 54.378906 C 114 54.300781 113.960938 54.207031 113.960938 54.101562 L 113.960938 28.113281 C 113.960938 28.007812 114 27.914062 114.074219 27.839844 C 114.152344 27.761719 114.242188 27.722656 114.351562 27.722656 Z M 121.824219 27.722656 " fill-opacity="1" fill-rule="nonzero"/><path fill="rgb(94.898987%, 18.429565%, 27.449036%)" d="M 131.652344 27.722656 C 131.757812 27.722656 131.851562 27.761719 131.929688 27.835938 C 132.003906 27.914062 132.042969 28.007812 132.042969 28.113281 L 132.042969 32.617188 C 132.042969 32.726562 132.003906 32.816406 131.925781 32.894531 C 131.851562 32.96875 131.757812 33.007812 131.652344 33.007812 L 124.179688 33.007812 C 124.070312 33.007812 123.980469 32.96875 123.902344 32.894531 C 123.824219 32.816406 123.789062 32.726562 123.789062 32.617188 L 123.789062 28.113281 C 123.789062 28.007812 123.824219 27.914062 123.902344 27.835938 C 123.976562 27.761719 124.070312 27.722656 124.179688 27.722656 Z M 131.652344 27.722656 " fill-opacity="1" fill-rule="nonzero"/><path fill="rgb(94.898987%, 18.429565%, 27.449036%)" d="M 131.652344 34.429688 C 131.757812 34.429688 131.851562 34.46875 131.929688 34.546875 C 132.003906 34.621094 132.042969 34.714844 132.042969 34.824219 L 132.042969 54.097656 C 132.042969 54.207031 132.003906 54.300781 131.929688 54.375 C 131.851562 54.453125 131.757812 54.492188 131.652344 54.492188 L 124.179688 54.492188 C 124.070312 54.492188 123.976562 54.453125 123.902344 54.375 C 123.824219 54.300781 123.789062 54.207031 123.789062 54.097656 L 123.789062 34.824219 C 123.789062 34.714844 123.824219 34.621094 123.902344 34.546875 C 123.976562 34.46875 124.070312 34.429688 124.179688 34.429688 Z M 131.652344 34.429688 " fill-opacity="1" fill-rule="nonzero"/><path fill="rgb(94.898987%, 18.429565%, 27.449036%)" d="M 144.019531 33.957031 C 137.472656 33.957031 132.816406 38.769531 132.816406 44.382812 L 132.816406 44.457031 C 132.816406 50.074219 137.4375 54.8125 143.945312 54.8125 C 150.492188 54.8125 155.148438 50 155.148438 44.382812 L 155.148438 44.3125 C 155.148438 38.695312 150.527344 33.957031 144.019531 33.957031 M 147.21875 44.457031 C 147.21875 46.355469 145.875 47.921875 144.019531 47.921875 C 142.199219 47.921875 140.746094 46.355469 140.746094 44.382812 L 140.746094 44.3125 C 140.746094 42.414062 142.089844 40.847656 143.945312 40.847656 C 145.761719 40.847656 147.21875 42.414062 147.21875 44.382812 Z M 147.21875 44.457031 " fill-opacity="1" fill-rule="nonzero"/><path fill="rgb(94.898987%, 18.429565%, 27.449036%)" d="M 31.296875 19.113281 C 30.578125 19.113281 29.863281 19.148438 29.148438 19.21875 C 28.433594 19.292969 27.722656 19.398438 27.019531 19.539062 C 26.3125 19.679688 25.617188 19.851562 24.929688 20.0625 C 24.242188 20.269531 23.566406 20.511719 22.902344 20.789062 C 22.238281 21.0625 21.589844 21.371094 20.957031 21.710938 C 20.324219 22.050781 19.707031 22.421875 19.113281 22.820312 C 18.515625 23.222656 17.9375 23.648438 17.382812 24.105469 C 16.828125 24.5625 16.296875 25.046875 15.789062 25.554688 C 15.28125 26.066406 14.796875 26.597656 14.34375 27.15625 C 13.886719 27.710938 13.460938 28.289062 13.058594 28.886719 C 12.660156 29.488281 12.292969 30.105469 11.953125 30.738281 C 11.613281 31.375 11.308594 32.023438 11.03125 32.691406 C 10.757812 33.355469 10.515625 34.03125 10.308594 34.722656 C 10.097656 35.410156 9.925781 36.109375 9.785156 36.816406 C 9.644531 37.523438 9.539062 38.234375 9.46875 38.949219 C 9.398438 39.667969 9.363281 40.386719 9.363281 41.105469 C 9.363281 41.824219 9.398438 42.542969 9.46875 43.261719 C 9.539062 43.976562 9.644531 44.6875 9.785156 45.394531 C 9.925781 46.101562 10.097656 46.800781 10.308594 47.488281 C 10.515625 48.179688 10.757812 48.855469 11.035156 49.519531 C 11.308594 50.1875 11.613281 50.835938 11.953125 51.472656 C 12.292969 52.105469 12.660156 52.722656 13.058594 53.324219 C 13.460938 53.921875 13.886719 54.5 14.34375 55.054688 C 14.796875 55.613281 15.28125 56.144531 15.789062 56.65625 C 16.296875 57.164062 16.828125 57.648438 17.382812 58.105469 C 17.9375 58.5625 18.515625 58.988281 19.113281 59.390625 C 19.710938 59.789062 20.324219 60.160156 20.957031 60.5 C 21.589844 60.839844 22.242188 61.148438 22.902344 61.421875 C 23.566406 61.699219 24.242188 61.941406 24.929688 62.148438 C 25.617188 62.359375 26.3125 62.535156 27.019531 62.671875 C 27.722656 62.8125 28.433594 62.917969 29.148438 62.992188 C 29.863281 63.0625 30.578125 63.097656 31.296875 63.097656 C 32.015625 63.097656 32.734375 63.0625 33.449219 62.992188 C 34.164062 62.917969 34.871094 62.8125 35.578125 62.671875 C 36.28125 62.535156 36.976562 62.359375 37.664062 62.148438 C 38.351562 61.941406 39.027344 61.699219 39.691406 61.421875 C 40.355469 61.148438 41.003906 60.839844 41.636719 60.5 C 42.269531 60.160156 42.886719 59.789062 43.484375 59.390625 C 44.082031 58.988281 44.65625 58.5625 45.214844 58.105469 C 45.769531 57.648438 46.300781 57.164062 46.808594 56.65625 C 47.316406 56.144531 47.796875 55.613281 48.253906 55.054688 C 48.710938 54.5 49.136719 53.921875 49.535156 53.324219 C 49.933594 52.722656 50.304688 52.105469 50.640625 51.472656 C 50.980469 50.835938 51.289062 50.1875 51.5625 49.519531 C 51.835938 48.855469 52.078125 48.179688 52.289062 47.488281 C 52.496094 46.800781 52.671875 46.101562 52.8125 45.394531 C 52.949219 44.6875 53.054688 43.976562 53.125 43.261719 C 53.195312 42.542969 53.230469 41.824219 53.230469 41.105469 C 53.230469 40.382812 53.195312 39.667969 53.125 38.949219 C 53.054688 38.234375 52.949219 37.519531 52.8125 36.816406 C 52.671875 36.109375 52.496094 35.410156 52.289062 34.722656 C 52.078125 34.03125 51.835938 33.355469 51.5625 32.6875 C 51.289062 32.023438 50.980469 31.375 50.640625 30.738281 C 50.304688 30.101562 49.933594 29.488281 49.535156 28.886719 C 49.136719 28.289062 48.707031 27.710938 48.253906 27.15625 C 47.796875 26.597656 47.316406 26.066406 46.808594 25.554688 C 46.300781 25.046875 45.769531 24.5625 45.210938 24.105469 C 44.65625 23.648438 44.082031 23.222656 43.484375 22.820312 C 42.886719 22.421875 42.269531 22.050781 41.636719 21.710938 C 41.003906 21.371094 40.355469 21.0625 39.691406 20.789062 C 39.027344 20.511719 38.351562 20.269531 37.664062 20.0625 C 36.976562 19.851562 36.28125 19.679688 35.578125 19.539062 C 34.871094 19.398438 34.160156 19.292969 33.445312 19.21875 C 32.730469 19.148438 32.015625 19.113281 31.296875 19.113281 M 31.296875 57.300781 C 30.769531 57.300781 30.242188 57.273438 29.714844 57.222656 C 29.1875 57.171875 28.664062 57.09375 28.144531 56.988281 C 27.628906 56.886719 27.113281 56.757812 26.609375 56.601562 C 26.101562 56.449219 25.605469 56.269531 25.117188 56.066406 C 24.625 55.863281 24.148438 55.636719 23.683594 55.386719 C 23.214844 55.136719 22.761719 54.867188 22.324219 54.570312 C 21.882812 54.277344 21.457031 53.960938 21.050781 53.625 C 20.640625 53.289062 20.25 52.933594 19.875 52.558594 C 19.5 52.183594 19.144531 51.789062 18.8125 51.378906 C 18.476562 50.96875 18.160156 50.542969 17.867188 50.101562 C 17.574219 49.660156 17.300781 49.207031 17.050781 48.738281 C 16.800781 48.273438 16.578125 47.792969 16.375 47.304688 C 16.171875 46.8125 15.992188 46.3125 15.839844 45.808594 C 15.6875 45.300781 15.558594 44.785156 15.453125 44.265625 C 15.351562 43.746094 15.273438 43.222656 15.222656 42.691406 C 15.171875 42.164062 15.144531 41.636719 15.144531 41.105469 C 15.144531 40.574219 15.171875 40.046875 15.222656 39.519531 C 15.273438 38.992188 15.351562 38.464844 15.453125 37.945312 C 15.558594 37.425781 15.6875 36.910156 15.839844 36.402344 C 15.992188 35.898438 16.171875 35.398438 16.375 34.90625 C 16.578125 34.417969 16.800781 33.9375 17.050781 33.472656 C 17.300781 33.003906 17.574219 32.550781 17.867188 32.109375 C 18.160156 31.667969 18.476562 31.242188 18.8125 30.832031 C 19.148438 30.421875 19.5 30.027344 19.875 29.652344 C 20.25 29.277344 20.640625 28.921875 21.050781 28.585938 C 21.460938 28.25 21.882812 27.933594 22.324219 27.640625 C 22.761719 27.34375 23.214844 27.074219 23.683594 26.824219 C 24.148438 26.574219 24.628906 26.347656 25.117188 26.144531 C 25.605469 25.941406 26.101562 25.761719 26.609375 25.609375 C 27.113281 25.453125 27.628906 25.324219 28.148438 25.222656 C 28.664062 25.117188 29.1875 25.039062 29.714844 24.988281 C 30.242188 24.9375 30.769531 24.910156 31.296875 24.910156 C 31.828125 24.910156 32.355469 24.9375 32.882812 24.988281 C 33.40625 25.039062 33.929688 25.117188 34.449219 25.222656 C 34.96875 25.324219 35.480469 25.453125 35.988281 25.609375 C 36.492188 25.761719 36.992188 25.941406 37.480469 26.144531 C 37.96875 26.347656 38.445312 26.574219 38.914062 26.824219 C 39.378906 27.074219 39.832031 27.34375 40.273438 27.640625 C 40.710938 27.933594 41.136719 28.25 41.546875 28.585938 C 41.953125 28.921875 42.347656 29.277344 42.71875 29.652344 C 43.09375 30.027344 43.449219 30.421875 43.785156 30.832031 C 44.121094 31.242188 44.433594 31.667969 44.730469 32.109375 C 45.023438 32.546875 45.296875 33.003906 45.542969 33.472656 C 45.792969 33.9375 46.019531 34.417969 46.222656 34.90625 C 46.425781 35.398438 46.601562 35.894531 46.757812 36.402344 C 46.910156 36.910156 47.039062 37.425781 47.140625 37.945312 C 47.246094 38.464844 47.320312 38.988281 47.375 39.515625 C 47.425781 40.046875 47.453125 40.574219 47.453125 41.105469 C 47.453125 41.636719 47.425781 42.164062 47.375 42.691406 C 47.320312 43.21875 47.246094 43.746094 47.140625 44.265625 C 47.039062 44.785156 46.910156 45.296875 46.757812 45.804688 C 46.601562 46.3125 46.425781 46.8125 46.222656 47.300781 C 46.019531 47.792969 45.792969 48.273438 45.542969 48.738281 C 45.296875 49.207031 45.023438 49.660156 44.730469 50.101562 C 44.433594 50.542969 44.121094 50.96875 43.785156 51.378906 C 43.449219 51.789062 43.09375 52.183594 42.71875 52.558594 C 42.347656 52.933594 41.953125 53.289062 41.546875 53.625 C 41.136719 53.960938 40.710938 54.277344 40.273438 54.570312 C 39.832031 54.867188 39.378906 55.136719 38.914062 55.386719 C 38.445312 55.636719 37.96875 55.863281 37.480469 56.066406 C 36.992188 56.269531 36.492188 56.449219 35.988281 56.601562 C 35.480469 56.757812 34.96875 56.886719 34.449219 56.988281 C 33.929688 57.09375 33.40625 57.171875 32.878906 57.222656 C 32.355469 57.273438 31.828125 57.300781 31.296875 57.300781 " fill-opacity="1" fill-rule="nonzero"/><path fill="rgb(94.898987%, 18.429565%, 27.449036%)" d="M 32.199219 35.628906 C 32.199219 35.328125 32.226562 35.03125 32.285156 34.738281 C 32.34375 34.441406 32.429688 34.15625 32.546875 33.878906 C 32.660156 33.601562 32.800781 33.335938 32.96875 33.085938 C 33.132812 32.839844 33.324219 32.605469 33.535156 32.394531 C 33.746094 32.183594 33.976562 31.992188 34.226562 31.824219 C 34.476562 31.660156 34.738281 31.519531 35.015625 31.402344 C 35.292969 31.289062 35.578125 31.203125 35.871094 31.144531 C 36.164062 31.085938 36.460938 31.054688 36.761719 31.054688 C 37.058594 31.054688 37.355469 31.085938 37.648438 31.144531 C 37.945312 31.203125 38.230469 31.289062 38.503906 31.402344 C 38.78125 31.519531 39.046875 31.660156 39.292969 31.824219 C 39.542969 31.992188 39.773438 32.183594 39.984375 32.394531 C 40.195312 32.605469 40.386719 32.835938 40.550781 33.085938 C 40.71875 33.335938 40.859375 33.601562 40.972656 33.878906 C 41.089844 34.15625 41.175781 34.441406 41.234375 34.734375 C 41.292969 35.03125 41.320312 35.328125 41.320312 35.628906 C 41.320312 35.929688 41.292969 36.226562 41.234375 36.519531 C 41.175781 36.8125 41.089844 37.101562 40.972656 37.378906 C 40.859375 37.65625 40.71875 37.917969 40.550781 38.167969 C 40.386719 38.417969 40.195312 38.648438 39.984375 38.859375 C 39.773438 39.074219 39.542969 39.261719 39.292969 39.429688 C 39.042969 39.597656 38.78125 39.738281 38.503906 39.851562 C 38.226562 39.96875 37.941406 40.054688 37.648438 40.113281 C 37.355469 40.171875 37.058594 40.199219 36.757812 40.199219 C 36.460938 40.199219 36.164062 40.171875 35.871094 40.113281 C 35.574219 40.054688 35.289062 39.96875 35.015625 39.851562 C 34.738281 39.738281 34.476562 39.597656 34.226562 39.429688 C 33.976562 39.261719 33.746094 39.074219 33.535156 38.863281 C 33.324219 38.648438 33.132812 38.417969 32.96875 38.167969 C 32.800781 37.917969 32.660156 37.65625 32.546875 37.378906 C 32.429688 37.101562 32.34375 36.816406 32.285156 36.519531 C 32.226562 36.226562 32.199219 35.929688 32.199219 35.628906 " fill-opacity="1" fill-rule="nonzero"/><path fill="rgb(94.898987%, 18.429565%, 27.449036%)" d="M 32.199219 46.582031 C 32.199219 46.28125 32.226562 45.984375 32.285156 45.691406 C 32.34375 45.394531 32.429688 45.109375 32.546875 44.832031 C 32.660156 44.554688 32.800781 44.289062 32.96875 44.042969 C 33.132812 43.792969 33.324219 43.558594 33.535156 43.347656 C 33.746094 43.136719 33.976562 42.945312 34.226562 42.78125 C 34.476562 42.613281 34.738281 42.472656 35.015625 42.355469 C 35.292969 42.242188 35.578125 42.15625 35.871094 42.097656 C 36.164062 42.039062 36.460938 42.007812 36.761719 42.007812 C 37.058594 42.007812 37.355469 42.039062 37.648438 42.097656 C 37.945312 42.15625 38.230469 42.242188 38.503906 42.355469 C 38.78125 42.472656 39.046875 42.613281 39.292969 42.777344 C 39.542969 42.945312 39.773438 43.136719 39.984375 43.347656 C 40.195312 43.558594 40.386719 43.789062 40.550781 44.039062 C 40.71875 44.289062 40.859375 44.554688 40.972656 44.832031 C 41.089844 45.109375 41.175781 45.394531 41.234375 45.6875 C 41.292969 45.984375 41.320312 46.28125 41.320312 46.582031 C 41.320312 46.882812 41.292969 47.179688 41.234375 47.472656 C 41.175781 47.769531 41.089844 48.054688 40.972656 48.332031 C 40.859375 48.609375 40.71875 48.871094 40.550781 49.121094 C 40.386719 49.371094 40.195312 49.601562 39.984375 49.816406 C 39.773438 50.027344 39.542969 50.214844 39.292969 50.382812 C 39.042969 50.550781 38.78125 50.691406 38.503906 50.804688 C 38.226562 50.921875 37.941406 51.007812 37.648438 51.066406 C 37.355469 51.125 37.058594 51.15625 36.757812 51.15625 C 36.460938 51.15625 36.164062 51.125 35.871094 51.066406 C 35.574219 51.007812 35.289062 50.921875 35.015625 50.804688 C 34.738281 50.691406 34.476562 50.550781 34.226562 50.382812 C 33.976562 50.21875 33.746094 50.027344 33.535156 49.816406 C 33.324219 49.601562 33.132812 49.371094 32.96875 49.121094 C 32.800781 48.871094 32.660156 48.609375 32.546875 48.332031 C 32.429688 48.054688 32.34375 47.769531 32.285156 47.472656 C 32.226562 47.179688 32.199219 46.882812 32.199219 46.582031 " fill-opacity="1" fill-rule="nonzero"/><path fill="rgb(94.898987%, 18.429565%, 27.449036%)" d="M 21.273438 46.582031 C 21.273438 46.28125 21.304688 45.984375 21.359375 45.691406 C 21.417969 45.394531 21.507812 45.109375 21.621094 44.832031 C 21.734375 44.554688 21.875 44.289062 22.042969 44.042969 C 22.207031 43.792969 22.398438 43.558594 22.609375 43.347656 C 22.820312 43.136719 23.050781 42.945312 23.300781 42.78125 C 23.550781 42.613281 23.8125 42.472656 24.089844 42.355469 C 24.367188 42.242188 24.652344 42.15625 24.945312 42.097656 C 25.238281 42.039062 25.535156 42.007812 25.835938 42.007812 C 26.132812 42.007812 26.429688 42.039062 26.722656 42.097656 C 27.019531 42.15625 27.304688 42.242188 27.582031 42.355469 C 27.855469 42.472656 28.121094 42.613281 28.367188 42.777344 C 28.617188 42.945312 28.847656 43.136719 29.058594 43.347656 C 29.273438 43.558594 29.460938 43.789062 29.628906 44.039062 C 29.792969 44.289062 29.933594 44.554688 30.046875 44.832031 C 30.164062 45.109375 30.25 45.394531 30.308594 45.6875 C 30.367188 45.984375 30.394531 46.28125 30.394531 46.582031 C 30.394531 46.882812 30.367188 47.179688 30.308594 47.472656 C 30.25 47.769531 30.164062 48.054688 30.046875 48.332031 C 29.933594 48.609375 29.792969 48.871094 29.628906 49.121094 C 29.460938 49.371094 29.273438 49.601562 29.058594 49.816406 C 28.847656 50.027344 28.617188 50.214844 28.367188 50.382812 C 28.121094 50.550781 27.855469 50.691406 27.578125 50.804688 C 27.304688 50.921875 27.019531 51.007812 26.722656 51.066406 C 26.429688 51.125 26.132812 51.15625 25.832031 51.15625 C 25.535156 51.15625 25.238281 51.125 24.945312 51.066406 C 24.652344 51.007812 24.367188 50.921875 24.089844 50.804688 C 23.8125 50.691406 23.550781 50.550781 23.300781 50.382812 C 23.050781 50.21875 22.820312 50.027344 22.609375 49.816406 C 22.398438 49.601562 22.207031 49.371094 22.042969 49.121094 C 21.875 48.871094 21.734375 48.609375 21.621094 48.332031 C 21.507812 48.054688 21.417969 47.769531 21.359375 47.472656 C 21.304688 47.179688 21.273438 46.882812 21.273438 46.582031 " fill-opacity="1" fill-rule="nonzero"/><path fill="rgb(94.898987%, 18.429565%, 27.449036%)" d="M 21.273438 35.628906 C 21.273438 35.328125 21.304688 35.03125 21.359375 34.738281 C 21.417969 34.441406 21.507812 34.15625 21.621094 33.878906 C 21.734375 33.601562 21.875 33.335938 22.042969 33.085938 C 22.207031 32.839844 22.398438 32.605469 22.609375 32.394531 C 22.820312 32.183594 23.050781 31.992188 23.300781 31.824219 C 23.550781 31.660156 23.8125 31.519531 24.089844 31.402344 C 24.367188 31.289062 24.652344 31.203125 24.945312 31.144531 C 25.238281 31.085938 25.535156 31.054688 25.835938 31.054688 C 26.132812 31.054688 26.429688 31.085938 26.722656 31.144531 C 27.019531 31.203125 27.304688 31.289062 27.582031 31.402344 C 27.855469 31.519531 28.121094 31.660156 28.367188 31.824219 C 28.617188 31.992188 28.847656 32.183594 29.058594 32.394531 C 29.273438 32.605469 29.460938 32.835938 29.628906 33.085938 C 29.792969 33.335938 29.933594 33.601562 30.046875 33.878906 C 30.164062 34.15625 30.25 34.441406 30.308594 34.734375 C 30.367188 35.03125 30.394531 35.328125 30.394531 35.628906 C 30.394531 35.929688 30.367188 36.226562 30.308594 36.519531 C 30.25 36.816406 30.164062 37.101562 30.046875 37.378906 C 29.933594 37.65625 29.792969 37.917969 29.628906 38.167969 C 29.460938 38.417969 29.273438 38.648438 29.058594 38.863281 C 28.847656 39.074219 28.617188 39.261719 28.367188 39.429688 C 28.121094 39.597656 27.855469 39.738281 27.578125 39.851562 C 27.304688 39.96875 27.019531 40.054688 26.722656 40.113281 C 26.429688 40.171875 26.132812 40.199219 25.832031 40.199219 C 25.535156 40.199219 25.238281 40.171875 24.945312 40.113281 C 24.652344 40.054688 24.367188 39.96875 24.089844 39.851562 C 23.8125 39.738281 23.550781 39.597656 23.300781 39.429688 C 23.050781 39.261719 22.820312 39.074219 22.609375 38.863281 C 22.398438 38.648438 22.207031 38.417969 22.042969 38.167969 C 21.875 37.917969 21.734375 37.65625 21.621094 37.378906 C 21.507812 37.101562 21.417969 36.816406 21.359375 36.519531 C 21.304688 36.226562 21.273438 35.929688 21.273438 35.628906 " fill-opacity="1" fill-rule="nonzero"/></svg>